M48
;GenerationSoftware,Autodesk,EAGLE,9.6.2*%
;CreationDate,2022-01-10T23:52:20Z*%
FMAT,2
ICI,OFF
METRIC,TZ,000.000
T5C0.200
T4C0.400
T3C0.650
T2C0.850
T1C1.700
%
G90
M71
T1
X159720Y40640
X155240Y80010
X155240Y82550
X155240Y85090
X155240Y87630
X155240Y90170
X45420Y68580
X45420Y66040
X45420Y63500
X45420Y60960
X45420Y58420
X45420Y55880
X45420Y53340
X45420Y50800
X45420Y48260
X45420Y45720
X45420Y43180
X45420Y40640
X155240Y92710
X155240Y95250
X155240Y97790
X155240Y100330
X155240Y102870
X155240Y105410
X155240Y107950
X159720Y107950
X159720Y105410
X159720Y102870
X159720Y100330
X159720Y97790
X63800Y40640
X63800Y43180
X63800Y45720
X63800Y48260
X63800Y50800
X63800Y53340
X63800Y55880
X63800Y58420
X63800Y60960
X63800Y63500
X63800Y66040
X63800Y68580
X159720Y95250
X159720Y92710
X159720Y90170
X159720Y87630
X159720Y85090
X159720Y82550
X159720Y80010
X178100Y80010
X178100Y82550
X178100Y85090
X178100Y87630
X178100Y90170
X178100Y92710
X178100Y95250
X178100Y97790
X178100Y100330
X68280Y68580
X68280Y66040
X68280Y63500
X-300Y29210
X-300Y26670
X-300Y24130
X-300Y21590
X-300Y19050
X-300Y16510
X-300Y13970
X-300Y11430
X-300Y8890
X-300Y6350
X-300Y3810
X-300Y1270
X68280Y60960
X68280Y58420
X68280Y55880
X68280Y53340
X68280Y50800
X68280Y48260
X68280Y45720
X68280Y43180
X68280Y40640
X178100Y102870
X178100Y105410
X178100Y107950
X18080Y1270
X18080Y3810
X18080Y6350
X18080Y8890
X18080Y11430
X18080Y13970
X18080Y16510
X18080Y19050
X18080Y21590
X18080Y24130
X18080Y26670
X18080Y29210
X109520Y102870
X86660Y40640
X86660Y43180
X86660Y45720
X86660Y48260
X86660Y50800
X86660Y53340
X86660Y55880
X86660Y58420
X86660Y60960
X86660Y63500
X86660Y66040
X86660Y68580
X91140Y68580
X91140Y66040
X91140Y63500
X22560Y29210
X22560Y26670
X22560Y24130
X22560Y21590
X22560Y19050
X22560Y16510
X22560Y13970
X22560Y11430
X22560Y8890
X22560Y6350
X22560Y3810
X22560Y1270
X91140Y60960
X91140Y58420
X91140Y55880
X91140Y53340
X91140Y50800
X91140Y48260
X91140Y45720
X91140Y43180
X91140Y40640
X109520Y40640
X109520Y43180
X109520Y45720
X40940Y1270
X40940Y3810
X40940Y6350
X40940Y8890
X40940Y11430
X40940Y13970
X40940Y16510
X40940Y19050
X40940Y21590
X40940Y24130
X40940Y26670
X40940Y29210
X109520Y48260
X109520Y50800
X109520Y53340
X109520Y55880
X109520Y58420
X109520Y60960
X109520Y63500
X109520Y66040
X109520Y68580
X114000Y68580
X114000Y66040
X114000Y63500
X114000Y60960
X114000Y21590
X114000Y58420
X114000Y55880
X45420Y29210
X45420Y26670
X45420Y24130
X45420Y21590
X45420Y19050
X45420Y16510
X45420Y13970
X45420Y11430
X45420Y8890
X45420Y6350
X45420Y3810
X45420Y1270
X114000Y53340
X114000Y50800
X114000Y48260
X114000Y45720
X114000Y43180
X114000Y40640
X132380Y40640
X132380Y43180
X132380Y45720
X132380Y48260
X132380Y50800
X132380Y53340
X63800Y1270
X63800Y3810
X63800Y6350
X63800Y8890
X63800Y11430
X63800Y13970
X63800Y16510
X63800Y19050
X63800Y21590
X63800Y24130
X63800Y26670
X63800Y29210
X132380Y55880
X132380Y58420
X132380Y60960
X132380Y63500
X132380Y66040
X132380Y68580
X136860Y68580
X136860Y66040
X136860Y63500
X136860Y60960
X136860Y58420
X136860Y55880
X136860Y53340
X136860Y50800
X136860Y48260
X136860Y45720
X68280Y29210
X68280Y26670
X68280Y24130
X68280Y21590
X68280Y19050
X68280Y16510
X68280Y13970
X68280Y11430
X68280Y8890
X68280Y6350
X68280Y3810
X68280Y1270
X136860Y43180
X136860Y40640
X155240Y40640
X155240Y43180
X155240Y45720
X155240Y48260
X155240Y50800
X155240Y53340
X155240Y55880
X155240Y58420
X155240Y60960
X155240Y63500
X86660Y1270
X86660Y3810
X86660Y6350
X86660Y8890
X86660Y11430
X86660Y13970
X86660Y16510
X86660Y19050
X86660Y21590
X86660Y24130
X86660Y26670
X86660Y29210
X155240Y66040
X155240Y68580
X159720Y68580
X159720Y66040
X159720Y63500
X159720Y60960
X159720Y58420
X159720Y55880
X159720Y53340
X159720Y50800
X159720Y48260
X159720Y45720
X159720Y43180
X178100Y40640
X178100Y43180
X178100Y45720
X91140Y29210
X91140Y26670
X91140Y24130
X91140Y21590
X91140Y19050
X91140Y16510
X91140Y13970
X91140Y11430
X91140Y8890
X91140Y6350
X91140Y3810
X91140Y1270
X178100Y48260
X178100Y50800
X178100Y53340
X178100Y55880
X178100Y58420
X178100Y60960
X178100Y63500
X178100Y66040
X178100Y68580
X-300Y107950
X-300Y105410
X-300Y102870
X109520Y1270
X109520Y3810
X109520Y6350
X109520Y8890
X109520Y11430
X109520Y13970
X109520Y16510
X109520Y19050
X109520Y21590
X109520Y24130
X109520Y26670
X109520Y29210
X-300Y100330
X-300Y97790
X-300Y95250
X-300Y92710
X-300Y90170
X-300Y87630
X-300Y85090
X-300Y82550
X-300Y80010
X18080Y80010
X18080Y82550
X18080Y85090
X18080Y87630
X18080Y90170
X18080Y92710
X18080Y95250
X114000Y29210
X114000Y26670
X114000Y24130
X18080Y97790
X114000Y19050
X114000Y16510
X114000Y13970
X114000Y11430
X114000Y8890
X114000Y6350
X114000Y3810
X114000Y1270
X18080Y100330
X18080Y102870
X18080Y105410
X18080Y107950
X22560Y107950
X22560Y105410
X22560Y102870
X22560Y100330
X22560Y97790
X22560Y95250
X22560Y92710
X22560Y90170
X132380Y1270
X132380Y3810
X132380Y6350
X132380Y8890
X132380Y11430
X132380Y13970
X132380Y16510
X132380Y19050
X132380Y21590
X132380Y24130
X132380Y26670
X132380Y29210
X22560Y87630
X22560Y85090
X22560Y82550
X22560Y80010
X40940Y80010
X40940Y82550
X40940Y85090
X40940Y87630
X40940Y90170
X40940Y92710
X40940Y95250
X40940Y97790
X40940Y100330
X40940Y102870
X40940Y105410
X40940Y107950
X136860Y29210
X136860Y26670
X136860Y24130
X136860Y21590
X136860Y19050
X136860Y16510
X136860Y13970
X136860Y11430
X136860Y8890
X136860Y6350
X136860Y3810
X136860Y1270
X45420Y107950
X45420Y105410
X45420Y102870
X45420Y100330
X45420Y97790
X45420Y95250
X45420Y92710
X45420Y90170
X45420Y87630
X45420Y85090
X45420Y82550
X45420Y80010
X155240Y1270
X155240Y3810
X155240Y6350
X155240Y8890
X155240Y11430
X155240Y13970
X155240Y16510
X155240Y19050
X155240Y21590
X155240Y24130
X155240Y26670
X155240Y29210
X63800Y80010
X63800Y82550
X63800Y85090
X63800Y87630
X63800Y90170
X63800Y92710
X63800Y95250
X63800Y97790
X63800Y100330
X63800Y102870
X63800Y105410
X63800Y107950
X68280Y107950
X68280Y105410
X68280Y102870
X68280Y100330
X159720Y29210
X159720Y26670
X159720Y24130
X159720Y21590
X159720Y19050
X159720Y16510
X159720Y13970
X159720Y11430
X159720Y8890
X159720Y6350
X159720Y3810
X159720Y1270
X68280Y97790
X68280Y95250
X68280Y92710
X68280Y90170
X68280Y87630
X68280Y85090
X68280Y82550
X68280Y80010
X86660Y80010
X86660Y82550
X86660Y85090
X86660Y87630
X178100Y1270
X178100Y3810
X178100Y6350
X178100Y8890
X178100Y11430
X178100Y13970
X178100Y16510
X178100Y19050
X178100Y21590
X178100Y24130
X178100Y26670
X178100Y29210
X86660Y90170
X86660Y92710
X86660Y95250
X86660Y97790
X86660Y100330
X86660Y102870
X86660Y105410
X86660Y107950
X91140Y107950
X91140Y105410
X91140Y102870
X91140Y100330
X91140Y97790
X91140Y95250
X91140Y92710
X91140Y90170
X-300Y68580
X-300Y66040
X-300Y63500
X-300Y60960
X-300Y58420
X-300Y55880
X-300Y53340
X-300Y50800
X-300Y48260
X-300Y45720
X-300Y43180
X-300Y40640
X91140Y87630
X91140Y85090
X91140Y82550
X91140Y80010
X109520Y80010
X109520Y82550
X109520Y85090
X109520Y87630
X109520Y90170
X109520Y92710
X109520Y95250
X109520Y97790
X18080Y40640
X18080Y43180
X18080Y45720
X18080Y48260
X18080Y50800
X18080Y53340
X18080Y55880
X18080Y58420
X18080Y60960
X18080Y63500
X18080Y66040
X18080Y68580
X109520Y100330
X109520Y105410
X109520Y107950
X114000Y107950
X114000Y105410
X114000Y102870
X114000Y100330
X114000Y97790
X114000Y95250
X114000Y92710
X114000Y90170
X114000Y87630
X114000Y85090
X114000Y82550
X114000Y80010
X132380Y80010
X22560Y68580
X22560Y66040
X22560Y63500
X22560Y60960
X22560Y58420
X22560Y55880
X22560Y53340
X22560Y50800
X22560Y48260
X22560Y45720
X22560Y43180
X22560Y40640
X132380Y82550
X132380Y85090
X132380Y87630
X132380Y90170
X132380Y92710
X132380Y95250
X132380Y97790
X132380Y100330
X132380Y102870
X132380Y105410
X132380Y107950
X136860Y107950
X40940Y40640
X40940Y43180
X40940Y45720
X40940Y48260
X40940Y50800
X40940Y53340
X40940Y55880
X40940Y58420
X40940Y60960
X40940Y63500
X40940Y66040
X40940Y68580
X136860Y105410
X136860Y102870
X136860Y100330
X136860Y97790
X136860Y95250
X136860Y92710
X136860Y90170
X136860Y87630
X136860Y85090
X136860Y82550
X136860Y80010
T2
X39370Y16510
X130810Y68580
X107950Y53340
X107950Y50800
X138430Y95250
X138430Y97790
X138430Y92710
X138430Y102870
X138430Y105410
X138430Y100330
X138430Y107950
X138430Y90170
X138430Y85090
X138430Y87630
X138430Y82550
X138430Y80010
X107950Y55880
X107950Y45720
X107950Y43180
X107950Y48260
X107950Y40640
X16510Y92710
X16510Y90170
X16510Y95250
X16510Y85090
X16510Y82550
X16510Y87630
X16510Y80010
X153670Y92710
X153670Y90170
X153670Y95250
X153670Y85090
X153670Y82550
X153670Y87630
X153670Y80010
X153670Y97790
X153670Y102870
X153670Y100330
X153670Y105410
X153670Y107950
X16510Y97790
X16510Y102870
X16510Y100330
X16510Y105410
X16510Y107950
X107950Y58420
X107950Y63500
X107950Y60960
X1270Y16510
X1270Y19050
X1270Y13970
X1270Y24130
X1270Y26670
X1270Y21590
X1270Y29210
X1270Y11430
X1270Y6350
X1270Y8890
X1270Y3810
X1270Y1270
X16510Y13970
X16510Y11430
X16510Y16510
X16510Y6350
X16510Y3810
X16510Y8890
X16510Y1270
X16510Y19050
X16510Y24130
X16510Y21590
X16510Y26670
X16510Y29210
X107950Y66040
X107950Y68580
X161290Y95250
X161290Y97790
X24130Y16510
X24130Y19050
X24130Y13970
X24130Y24130
X24130Y26670
X24130Y21590
X24130Y29210
X24130Y11430
X24130Y6350
X24130Y8890
X24130Y3810
X24130Y1270
X39370Y13970
X39370Y11430
X107950Y21590
X39370Y6350
X39370Y3810
X39370Y8890
X39370Y1270
X39370Y19050
X39370Y24130
X39370Y21590
X39370Y26670
X39370Y29210
X161290Y92710
X161290Y102870
X161290Y105410
X161290Y100330
X46990Y16510
X46990Y19050
X46990Y13970
X46990Y24130
X46990Y26670
X46990Y21590
X46990Y29210
X46990Y11430
X46990Y6350
X46990Y3810
X46990Y1270
X62230Y13970
X62230Y11430
X62230Y16510
X62230Y6350
X62230Y3810
X62230Y8890
X62230Y1270
X62230Y19050
X62230Y24130
X62230Y21590
X62230Y26670
X62230Y29210
X161290Y107950
X161290Y90170
X161290Y85090
X161290Y87630
X69850Y16510
X69850Y19050
X69850Y13970
X69850Y24130
X69850Y26670
X69850Y21590
X69850Y29210
X69850Y11430
X69850Y6350
X69850Y8890
X69850Y3810
X69850Y1270
X85090Y13970
X85090Y11430
X85090Y16510
X85090Y6350
X85090Y3810
X85090Y8890
X85090Y1270
X85090Y19050
X85090Y24130
X85090Y21590
X85090Y26670
X85090Y29210
X161290Y82550
X161290Y80010
X138430Y55880
X138430Y58420
X92710Y16510
X92710Y19050
X92710Y13970
X92710Y24130
X92710Y26670
X92710Y21590
X92710Y29210
X92710Y11430
X92710Y6350
X92710Y8890
X92710Y3810
X92710Y1270
X107950Y13970
X107950Y11430
X107950Y16510
X107950Y6350
X107950Y3810
X107950Y8890
X107950Y1270
X107950Y19050
X107950Y24130
X138430Y53340
X107950Y26670
X107950Y29210
X24130Y95250
X24130Y97790
X24130Y92710
X176530Y92710
X115570Y16510
X115570Y19050
X115570Y13970
X115570Y24130
X115570Y26670
X115570Y21590
X115570Y29210
X115570Y11430
X115570Y6350
X115570Y8890
X115570Y3810
X115570Y1270
X46990Y8890
X130810Y13970
X130810Y11430
X130810Y16510
X130810Y6350
X130810Y3810
X130810Y8890
X130810Y1270
X130810Y19050
X130810Y24130
X130810Y21590
X130810Y26670
X130810Y29210
X176530Y90170
X176530Y95250
X176530Y85090
X176530Y82550
X138430Y16510
X138430Y19050
X138430Y13970
X138430Y24130
X138430Y26670
X138430Y21590
X138430Y29210
X138430Y11430
X138430Y6350
X138430Y8890
X138430Y3810
X138430Y1270
X153670Y13970
X153670Y11430
X153670Y16510
X153670Y6350
X153670Y3810
X153670Y8890
X153670Y1270
X153670Y19050
X153670Y24130
X153670Y21590
X153670Y26670
X153670Y29210
X176530Y87630
X176530Y80010
X176530Y97790
X176530Y102870
X161290Y16510
X161290Y19050
X161290Y13970
X161290Y24130
X161290Y26670
X161290Y21590
X161290Y29210
X161290Y11430
X161290Y6350
X161290Y8890
X161290Y3810
X161290Y1270
X176530Y13970
X176530Y11430
X176530Y16510
X176530Y6350
X176530Y3810
X176530Y8890
X176530Y1270
X176530Y19050
X176530Y24130
X176530Y21590
X176530Y26670
X176530Y29210
X176530Y100330
X176530Y105410
X69850Y66040
X176530Y107950
X1270Y55880
X1270Y58420
X1270Y53340
X1270Y63500
X1270Y66040
X1270Y60960
X1270Y68580
X1270Y50800
X1270Y45720
X1270Y48260
X1270Y43180
X1270Y40640
X16510Y53340
X16510Y50800
X16510Y55880
X16510Y45720
X16510Y43180
X16510Y48260
X16510Y40640
X16510Y58420
X16510Y63500
X16510Y60960
X16510Y66040
X16510Y68580
X24130Y102870
X24130Y105410
X24130Y100330
X24130Y107950
X24130Y55880
X24130Y58420
X24130Y53340
X24130Y63500
X24130Y66040
X24130Y60960
X24130Y68580
X24130Y50800
X24130Y45720
X24130Y48260
X24130Y43180
X24130Y40640
X39370Y53340
X39370Y50800
X39370Y55880
X39370Y45720
X39370Y43180
X39370Y48260
X39370Y40640
X39370Y58420
X39370Y63500
X39370Y60960
X39370Y66040
X39370Y68580
X24130Y90170
X24130Y85090
X24130Y87630
X24130Y82550
X46990Y55880
X46990Y58420
X46990Y53340
X46990Y63500
X46990Y66040
X46990Y60960
X46990Y68580
X46990Y50800
X46990Y45720
X46990Y48260
X46990Y43180
X46990Y40640
X62230Y53340
X62230Y50800
X62230Y55880
X62230Y45720
X62230Y43180
X62230Y48260
X62230Y40640
X62230Y58420
X62230Y63500
X62230Y60960
X62230Y66040
X62230Y68580
X24130Y80010
X138430Y63500
X138430Y66040
X138430Y60960
X69850Y55880
X69850Y58420
X69850Y53340
X69850Y63500
X115570Y60960
X69850Y60960
X69850Y68580
X69850Y50800
X69850Y45720
X69850Y48260
X69850Y43180
X69850Y40640
X85090Y53340
X85090Y50800
X85090Y55880
X138430Y68580
X138430Y50800
X138430Y45720
X138430Y48260
X138430Y43180
X138430Y40640
X92710Y55880
X92710Y58420
X92710Y53340
X39370Y92710
X39370Y90170
X39370Y95250
X39370Y85090
X39370Y82550
X39370Y87630
X39370Y80010
X39370Y97790
X39370Y102870
X39370Y100330
X39370Y105410
X39370Y107950
X92710Y63500
X92710Y66040
X92710Y60960
X92710Y68580
X92710Y50800
X92710Y45720
X92710Y48260
X92710Y43180
X92710Y40640
X153670Y53340
X153670Y50800
X153670Y55880
X46990Y95250
X46990Y97790
X46990Y92710
X46990Y102870
X46990Y105410
X46990Y100330
X46990Y107950
X46990Y90170
X46990Y85090
X46990Y87630
X46990Y82550
X46990Y80010
X153670Y45720
X153670Y43180
X153670Y48260
X153670Y40640
X153670Y58420
X153670Y63500
X153670Y60960
X153670Y66040
X153670Y68580
X62230Y92710
X62230Y90170
X62230Y95250
X62230Y85090
X62230Y82550
X62230Y87630
X62230Y80010
X62230Y97790
X62230Y102870
X62230Y100330
X62230Y105410
X62230Y107950
X115570Y55880
X115570Y58420
X115570Y53340
X115570Y63500
X115570Y66040
X115570Y68580
X115570Y50800
X69850Y95250
X69850Y97790
X69850Y92710
X69850Y102870
X69850Y105410
X69850Y100330
X69850Y107950
X69850Y90170
X69850Y85090
X69850Y87630
X69850Y82550
X69850Y80010
X161290Y55880
X161290Y58420
X161290Y53340
X161290Y63500
X161290Y66040
X161290Y60960
X161290Y68580
X161290Y50800
X161290Y45720
X161290Y48260
X161290Y43180
X85090Y92710
X85090Y90170
X85090Y95250
X85090Y85090
X85090Y82550
X85090Y87630
X85090Y80010
X85090Y97790
X85090Y102870
X85090Y100330
X85090Y105410
X85090Y107950
X161290Y40640
X115570Y45720
X115570Y48260
X115570Y43180
X115570Y40640
X85090Y63500
X85090Y60960
X85090Y66040
X85090Y68580
X85090Y43180
X85090Y48260
X85090Y40640
X92710Y95250
X92710Y97790
X92710Y92710
X92710Y102870
X92710Y105410
X92710Y100330
X92710Y107950
X92710Y90170
X92710Y85090
X92710Y87630
X92710Y82550
X92710Y80010
X176530Y53340
X176530Y50800
X176530Y55880
X176530Y45720
X176530Y43180
X176530Y48260
X176530Y40640
X176530Y58420
X176530Y63500
X176530Y60960
X176530Y66040
X176530Y68580
X107950Y92710
X107950Y90170
X107950Y95250
X107950Y85090
X107950Y82550
X107950Y87630
X107950Y80010
X107950Y97790
X107950Y102870
X107950Y100330
X107950Y105410
X107950Y107950
X85090Y58420
X130810Y53340
X130810Y50800
X130810Y55880
X130810Y45720
X85090Y45720
X130810Y43180
X130810Y48260
X115570Y95250
X115570Y97790
X115570Y92710
X115570Y102870
X115570Y105410
X115570Y100330
X115570Y107950
X115570Y90170
X115570Y85090
X115570Y87630
X115570Y82550
X115570Y80010
X130810Y40640
X1270Y95250
X1270Y97790
X1270Y92710
X1270Y102870
X1270Y105410
X1270Y100330
X1270Y107950
X130810Y92710
X130810Y90170
X130810Y95250
X130810Y85090
X130810Y82550
X130810Y87630
X130810Y80010
X130810Y97790
X130810Y102870
X130810Y100330
X130810Y105410
X130810Y107950
X1270Y90170
X1270Y85090
X1270Y87630
X1270Y82550
X1270Y80010
X130810Y58420
X130810Y63500
X130810Y60960
X130810Y66040
T3
X6000Y28115
X34640Y28115
X28860Y28115
X57500Y28115
X51720Y28115
X80360Y28115
X74580Y28115
X103220Y28115
X97440Y28115
X126080Y28115
X120300Y28115
X148940Y28115
X143160Y28115
X171800Y28115
X166020Y28115
X11780Y67485
X6000Y67485
X34640Y67485
X28860Y67485
X57500Y67485
X51720Y67485
X80360Y67485
X74580Y67485
X103220Y67485
X97440Y67485
X126080Y67485
X120300Y67485
X148940Y67485
X143160Y67485
X171800Y67485
X166020Y67485
X11780Y106855
X6000Y106855
X34640Y106855
X28860Y106855
X57500Y106855
X51720Y106855
X80360Y106855
X74580Y106855
X103220Y106855
X97440Y106855
X126080Y106855
X120300Y106855
X148940Y106855
X143160Y106855
X171800Y106855
X166020Y106855
X11780Y28115
T4
X13208Y31765
X4572Y31765
X4572Y27585
X13208Y27585
X36068Y31765
X27432Y31765
X27432Y27585
X36068Y27585
X58928Y31765
X50292Y31765
X50292Y27585
X58928Y27585
X81788Y31765
X73152Y31765
X73152Y27585
X81788Y27585
X104648Y31765
X96012Y31765
X96012Y27585
X104648Y27585
X127508Y31765
X118872Y31765
X118872Y27585
X127508Y27585
X150368Y31765
X141732Y31765
X141732Y27585
X150368Y27585
X173228Y31765
X164592Y31765
X173228Y27585
X13208Y71135
X4572Y71135
X4572Y66955
X13208Y66955
X36068Y71135
X27432Y71135
X27432Y66955
X36068Y66955
X58928Y71135
X50292Y71135
X50292Y66955
X58928Y66955
X150368Y106325
X73152Y110505
X73152Y106325
X81788Y106325
X50292Y110505
X50292Y106325
X104648Y110505
X96012Y110505
X96012Y106325
X104648Y106325
X58928Y106325
X104648Y66955
X96012Y71135
X118872Y66955
X127508Y66955
X96012Y66955
X27432Y110505
X27432Y106325
X13208Y110505
X4572Y110505
X4572Y106325
X13208Y106325
X36068Y106325
X164592Y27585
X36068Y110505
X104648Y71135
X150368Y71135
X141732Y71135
X141732Y66955
X173228Y71135
X164592Y71135
X127508Y110505
X118872Y110505
X118872Y106325
X127508Y106325
X164592Y66955
X173228Y66955
X150368Y66955
X81788Y71135
X73152Y71135
X73152Y66955
X81788Y66955
X58928Y110505
X81788Y110505
X127508Y71135
X118872Y71135
X150368Y110505
X141732Y110505
X141732Y106325
X173228Y110505
X164592Y110505
X164592Y106325
X173228Y106325
T5
X118872Y48133
X124660Y53213
X128270Y63246
X124206Y53213
X127000Y63373
X123317Y48768
X123190Y53213
X120904Y53340
X121158Y59309
X121285Y52959
X121158Y58039
X126365Y65278
X122555Y67310
X127635Y65278
X123952Y67310
X117221Y41402
X118491Y57531
X128500Y51270
X129300Y67870
X131445Y70231
X146050Y63881
X141351Y55245
X142875Y55499
X146558Y56261
X148590Y56134
X149860Y56642
X150495Y59055
X150495Y61849
X149733Y62611
X149606Y67945
X142494Y68072
X140970Y70485
X144145Y68961
X151130Y70358
X143256Y57404
X145034Y48514
X147574Y46609
X144526Y46609
X144526Y43434
X141732Y43180
X141732Y40640
X152019Y43180
X151130Y40640
X150876Y45212
X140462Y51054
X144780Y49530
X144780Y52070
X147320Y52070
X146050Y49530
X146050Y50800
X144780Y50800
X147320Y50800
X146050Y52070
X145225Y63436
X147320Y67310
X151384Y67818
X144399Y67183
X143383Y68707
X148310Y67971
X150241Y46863
X150495Y49784
X146177Y48260
X145542Y43434
X148336Y53340
X146612Y53213
X141986Y54610
X143871Y49811
X151003Y56769
X147000Y61026
X148082Y48260
X148209Y43815
X150749Y62738
X147574Y48260
X147066Y48260
X151638Y50673
X143637Y49403
X143637Y48949
X143637Y50673
X143637Y50219
X151130Y49417
X149225Y47371
X149225Y43053
X148612Y48260
X148717Y42418
X144885Y53457
X144780Y58039
X148082Y58039
X144780Y52926
X144399Y56769
X148082Y56769
X145415Y53340
X145161Y59309
X148082Y59309
X145542Y48133
X141732Y48133
X147520Y53213
X151130Y63246
X147066Y53213
X149860Y63373
X146177Y48768
X146050Y53213
X143764Y53340
X144018Y59309
X144145Y52959
X144018Y58039
X149225Y65278
X145415Y67310
X150495Y65278
X146812Y67310
X140081Y41402
X141351Y57531
X151360Y51270
X152160Y67870
X154305Y70231
X168910Y63881
X164211Y55245
X165735Y55499
X169418Y56261
X171450Y56134
X172720Y56642
X173355Y59055
X173355Y61849
X172593Y62611
X172466Y67945
X165354Y68072
X163830Y70485
X167005Y68961
X173990Y70358
X166116Y57404
X167894Y48514
X170434Y46609
X167386Y46609
X167386Y43434
X164592Y43180
X164592Y40640
X174879Y43180
X173990Y40640
X173736Y45212
X163322Y51054
X167640Y49530
X167640Y52070
X170180Y52070
X168910Y49530
X168910Y50800
X167640Y50800
X170180Y50800
X168910Y52070
X168085Y63436
X170180Y67310
X174244Y67818
X167259Y67183
X166243Y68707
X171170Y67971
X173101Y46863
X173355Y49784
X169037Y48260
X168402Y43434
X171196Y53340
X169472Y53213
X164846Y54610
X166731Y49811
X173863Y56769
X169860Y61026
X170942Y48260
X171069Y43815
X173609Y62738
X170434Y48260
X169926Y48260
X174498Y50673
X166497Y49403
X166497Y48949
X166497Y50673
X166497Y50219
X173990Y49417
X172085Y47371
X172085Y43053
X171472Y48260
X171577Y42418
X167745Y53457
X167640Y58039
X170942Y58039
X167640Y52926
X167259Y56769
X170942Y56769
X168275Y53340
X168021Y59309
X170942Y59309
X168402Y48133
X164592Y48133
X170380Y53213
X173990Y63246
X169926Y53213
X172720Y63373
X169037Y48768
X168910Y53213
X166624Y53340
X166878Y59309
X167005Y52959
X166878Y58039
X172085Y65278
X168275Y67310
X173355Y65278
X169672Y67310
X162941Y41402
X164211Y57531
X174220Y51270
X175020Y67870
X177165Y70231
X8890Y103251
X4191Y94615
X5715Y94869
X9398Y95631
X11430Y95504
X12700Y96012
X13335Y98425
X13335Y101219
X12573Y101981
X12446Y107315
X5334Y107442
X3810Y109855
X6985Y108331
X13970Y109728
X6096Y96774
X7874Y87884
X10414Y85979
X7366Y85979
X7366Y82804
X4572Y82550
X4572Y80010
X14859Y82550
X13970Y80010
X13716Y84582
X3302Y90424
X7620Y88900
X7620Y91440
X10160Y91440
X8890Y88900
X8890Y90170
X7620Y90170
X10160Y90170
X8890Y91440
X8064Y102806
X10160Y106680
X14224Y107188
X7239Y106553
X6223Y108077
X11150Y107341
X13081Y86233
X13335Y89154
X9017Y87630
X8382Y82804
X11176Y92710
X9452Y92583
X4826Y93980
X6711Y89181
X13843Y96139
X9840Y100396
X10922Y87630
X11049Y83185
X13589Y102108
X10414Y87630
X9906Y87630
X14478Y90043
X6477Y88773
X6477Y88319
X6477Y90043
X6477Y89589
X13970Y88787
X12065Y86741
X12065Y82423
X11452Y87630
X11557Y81788
X7725Y92827
X7620Y97409
X10922Y97409
X7620Y92296
X7239Y96139
X10922Y96139
X8255Y92710
X8001Y98679
X10922Y98679
X8382Y87503
X4572Y87503
X10360Y92583
X13970Y102616
X9906Y92583
X12700Y102743
X9017Y88138
X8890Y92583
X6604Y92710
X6858Y98679
X6985Y92329
X6858Y97409
X12065Y104648
X8255Y106680
X13335Y104648
X9652Y106680
X2921Y80772
X4191Y96901
X14200Y90640
X15000Y107240
X17145Y109601
X31750Y103251
X27051Y94615
X28575Y94869
X32258Y95631
X34290Y95504
X35560Y96012
X36195Y98425
X36195Y101219
X35433Y101981
X35306Y107315
X28194Y107442
X26670Y109855
X29845Y108331
X36830Y109728
X28956Y96774
X30734Y87884
X33274Y85979
X30226Y85979
X30226Y82804
X27432Y82550
X27432Y80010
X37719Y82550
X36830Y80010
X36576Y84582
X26162Y90424
X30480Y88900
X30480Y91440
X33020Y91440
X31750Y88900
X31750Y90170
X30480Y90170
X33020Y90170
X31750Y91440
X30924Y102806
X33020Y106680
X37084Y107188
X30099Y106553
X29083Y108077
X34010Y107341
X35941Y86233
X36195Y89154
X31877Y87630
X31242Y82804
X34036Y92710
X32312Y92583
X27686Y93980
X29571Y89181
X36703Y96139
X32700Y100396
X33782Y87630
X33909Y83185
X36449Y102108
X33274Y87630
X32766Y87630
X37338Y90043
X29337Y88773
X29337Y88319
X29337Y90043
X29337Y89589
X36830Y88787
X34925Y86741
X34925Y82423
X34312Y87630
X34417Y81788
X30585Y92827
X30480Y97409
X33782Y97409
X30480Y92296
X30099Y96139
X33782Y96139
X31115Y92710
X30861Y98679
X33782Y98679
X31242Y87503
X27432Y87503
X33220Y92583
X36830Y102616
X32766Y92583
X35560Y102743
X31877Y88138
X31750Y92583
X29464Y92710
X29718Y98679
X29845Y92329
X29718Y97409
X34925Y104648
X31115Y106680
X36195Y104648
X32512Y106680
X25781Y80772
X27051Y96901
X37060Y90640
X37860Y107240
X40005Y109601
X54610Y103251
X49911Y94615
X51435Y94869
X55118Y95631
X57150Y95504
X58420Y96012
X59055Y98425
X59055Y101219
X58293Y101981
X58166Y107315
X51054Y107442
X49530Y109855
X52705Y108331
X59690Y109728
X51816Y96774
X53594Y87884
X56134Y85979
X53086Y85979
X53086Y82804
X50292Y82550
X50292Y80010
X60579Y82550
X59690Y80010
X59436Y84582
X49022Y90424
X53340Y88900
X53340Y91440
X55880Y91440
X54610Y88900
X54610Y90170
X53340Y90170
X55880Y90170
X54610Y91440
X53784Y102806
X55880Y106680
X59944Y107188
X52959Y106553
X51943Y108077
X56870Y107341
X58801Y86233
X59055Y89154
X54737Y87630
X54102Y82804
X56896Y92710
X55172Y92583
X50546Y93980
X52431Y89181
X59563Y96139
X55560Y100396
X56642Y87630
X56769Y83185
X59309Y102108
X56134Y87630
X55626Y87630
X60198Y90043
X52197Y88773
X52197Y88319
X52197Y90043
X52197Y89589
X59690Y88787
X57785Y86741
X57785Y82423
X57172Y87630
X57277Y81788
X53445Y92827
X53340Y97409
X56642Y97409
X53340Y92296
X52959Y96139
X56642Y96139
X53975Y92710
X53721Y98679
X56642Y98679
X54102Y87503
X50292Y87503
X56080Y92583
X59690Y102616
X55626Y92583
X58420Y102743
X54737Y88138
X54610Y92583
X52324Y92710
X52578Y98679
X52705Y92329
X98679Y17399
X57785Y104648
X53975Y106680
X59055Y104648
X55372Y106680
X48641Y80772
X49911Y96901
X59920Y90640
X60720Y107240
X62865Y109601
X77470Y103251
X72771Y94615
X74295Y94869
X77978Y95631
X80010Y95504
X81280Y96012
X81915Y98425
X81915Y101219
X81153Y101981
X81026Y107315
X73914Y107442
X72390Y109855
X75565Y108331
X82550Y109728
X74676Y96774
X76454Y87884
X78994Y85979
X75946Y85979
X75946Y82804
X73152Y82550
X73152Y80010
X83439Y82550
X82550Y80010
X82296Y84582
X71882Y90424
X76200Y88900
X76200Y91440
X78740Y91440
X77470Y88900
X77470Y90170
X76200Y90170
X78740Y90170
X77470Y91440
X76645Y102806
X78740Y106680
X82804Y107188
X75819Y106553
X74803Y108077
X79730Y107341
X81661Y86233
X81915Y89154
X77597Y87630
X76962Y82804
X79756Y92710
X78032Y92583
X73406Y93980
X75291Y89181
X82423Y96139
X78420Y100396
X79502Y87630
X79629Y83185
X82169Y102108
X78994Y87630
X78486Y87630
X83058Y90043
X75057Y88773
X75057Y88319
X75057Y90043
X75057Y89589
X82550Y88787
X80645Y86741
X80645Y82423
X80032Y87630
X80137Y81788
X76305Y92827
X76200Y97409
X79502Y97409
X76200Y92296
X75819Y96139
X79502Y96139
X76835Y92710
X76581Y98679
X79502Y98679
X76962Y87503
X73152Y87503
X78940Y92583
X82550Y102616
X78486Y92583
X81280Y102743
X77597Y88138
X77470Y92583
X75184Y92710
X75438Y98679
X75565Y92329
X75438Y97409
X80645Y104648
X76835Y106680
X81915Y104648
X78232Y106680
X71501Y80772
X72771Y96901
X82780Y90640
X83580Y107240
X85725Y109601
X100330Y103251
X95631Y94615
X97155Y94869
X100838Y95631
X102870Y95504
X104140Y96012
X104775Y98425
X104775Y101219
X104013Y101981
X103886Y107315
X96774Y107442
X95250Y109855
X98425Y108331
X105410Y109728
X97536Y96774
X99314Y87884
X101854Y85979
X98806Y85979
X98806Y82804
X96012Y82550
X96012Y80010
X106299Y82550
X105410Y80010
X105156Y84582
X94742Y90424
X99060Y88900
X99060Y91440
X101600Y91440
X100330Y88900
X100330Y90170
X99060Y90170
X101600Y90170
X100330Y91440
X99504Y102806
X101600Y106680
X105664Y107188
X98679Y106553
X97663Y108077
X102590Y107341
X104521Y86233
X104775Y89154
X100457Y87630
X99822Y82804
X102616Y92710
X100892Y92583
X96266Y93980
X98151Y89181
X105283Y96139
X101280Y100396
X102362Y87630
X102489Y83185
X105029Y102108
X101854Y87630
X101346Y87630
X105918Y90043
X97917Y88773
X97917Y88319
X97917Y90043
X97917Y89589
X105410Y88787
X103505Y86741
X103505Y82423
X102892Y87630
X102997Y81788
X99165Y92827
X99060Y97409
X102362Y97409
X99060Y92296
X98679Y96139
X102362Y96139
X99695Y92710
X99441Y98679
X102362Y98679
X99822Y87503
X96012Y87503
X101800Y92583
X105410Y102616
X101346Y92583
X104140Y102743
X100457Y88138
X100330Y92583
X98044Y92710
X98298Y98679
X98425Y92329
X98298Y97409
X103505Y104648
X99695Y106680
X104775Y104648
X101092Y106680
X94361Y80772
X95631Y96901
X105640Y90640
X106440Y107240
X108585Y109601
X123190Y103251
X118491Y94615
X120015Y94869
X123698Y95631
X125730Y95504
X127000Y96012
X127635Y98425
X127635Y101219
X126873Y101981
X126746Y107315
X119634Y107442
X118110Y109855
X121285Y108331
X128270Y109728
X120396Y96774
X122174Y87884
X124714Y85979
X121666Y85979
X121666Y82804
X118872Y82550
X118872Y80010
X129159Y82550
X128270Y80010
X128016Y84582
X117602Y90424
X121920Y88900
X121920Y91440
X124460Y91440
X123190Y88900
X123190Y90170
X121920Y90170
X124460Y90170
X123190Y91440
X122364Y102806
X124460Y106680
X128524Y107188
X121539Y106553
X120523Y108077
X125450Y107341
X127381Y86233
X127635Y89154
X123317Y87630
X122682Y82804
X125476Y92710
X123752Y92583
X119126Y93980
X121011Y89181
X128143Y96139
X124140Y100396
X125222Y87630
X125349Y83185
X127889Y102108
X124714Y87630
X124206Y87630
X128778Y90043
X120777Y88773
X120777Y88319
X120777Y90043
X120777Y89589
X128270Y88787
X126365Y86741
X126365Y82423
X125752Y87630
X125857Y81788
X122025Y92827
X121920Y97409
X125222Y97409
X121920Y92296
X121539Y96139
X125222Y96139
X122555Y92710
X122301Y98679
X125222Y98679
X122682Y87503
X118872Y87503
X124660Y92583
X128270Y102616
X124206Y92583
X127000Y102743
X123317Y88138
X123190Y92583
X120904Y92710
X121158Y98679
X121285Y92329
X121158Y97409
X126365Y104648
X122555Y106680
X127635Y104648
X123952Y106680
X117221Y80772
X118491Y96901
X128500Y90640
X129300Y107240
X131445Y109601
X146050Y103251
X141351Y94615
X142875Y94869
X146558Y95631
X148590Y95504
X149860Y96012
X150495Y98425
X150495Y101219
X149733Y101981
X149606Y107315
X142494Y107442
X140970Y109855
X144145Y108331
X151130Y109728
X143256Y96774
X145034Y87884
X147574Y85979
X144526Y85979
X144526Y82804
X141732Y82550
X141732Y80010
X152019Y82550
X151130Y80010
X150876Y84582
X140462Y90424
X144780Y88900
X144780Y91440
X147320Y91440
X146050Y88900
X146050Y90170
X144780Y90170
X147320Y90170
X146050Y91440
X145225Y102806
X147320Y106680
X151384Y107188
X144399Y106553
X143383Y108077
X148310Y107341
X150241Y86233
X150495Y89154
X146177Y87630
X145542Y82804
X148336Y92710
X146612Y92583
X141986Y93980
X143871Y89181
X151003Y96139
X147000Y100396
X148082Y87630
X148209Y83185
X150749Y102108
X147574Y87630
X147066Y87630
X151638Y90043
X143637Y88773
X143637Y88319
X143637Y90043
X143637Y89589
X151130Y88787
X149225Y86741
X149225Y82423
X148612Y87630
X148717Y81788
X144885Y92827
X144780Y97409
X148082Y97409
X144780Y92296
X144399Y96139
X148082Y96139
X145415Y92710
X145161Y98679
X148082Y98679
X145542Y87503
X141732Y87503
X147520Y92583
X151130Y102616
X147066Y92583
X149860Y102743
X146177Y88138
X146050Y92583
X143764Y92710
X144018Y98679
X144145Y92329
X144018Y97409
X149225Y104648
X145415Y106680
X150495Y104648
X146812Y106680
X140081Y80772
X141351Y96901
X151360Y90640
X152160Y107240
X154305Y109601
X168910Y103251
X164211Y94615
X165735Y94869
X169418Y95631
X171450Y95504
X172720Y96012
X173355Y98425
X173355Y101219
X172593Y101981
X172466Y107315
X165354Y107442
X163830Y109855
X167005Y108331
X173990Y109728
X166116Y96774
X167894Y87884
X170434Y85979
X167386Y85979
X167386Y82804
X164592Y82550
X164592Y80010
X174879Y82550
X173990Y80010
X173736Y84582
X163322Y90424
X167640Y88900
X167640Y91440
X170180Y91440
X168910Y88900
X168910Y90170
X167640Y90170
X170180Y90170
X168910Y91440
X168085Y102806
X170180Y106680
X174244Y107188
X167259Y106553
X166243Y108077
X171170Y107341
X173101Y86233
X173355Y89154
X169037Y87630
X168402Y82804
X171196Y92710
X169472Y92583
X164846Y93980
X166731Y89181
X173863Y96139
X169860Y100396
X170942Y87630
X171069Y83185
X173609Y102108
X170434Y87630
X169926Y87630
X174498Y90043
X166497Y88773
X166497Y88319
X166497Y90043
X166497Y89589
X173990Y88787
X172085Y86741
X172085Y82423
X171472Y87630
X171577Y81788
X167745Y92827
X167640Y97409
X170942Y97409
X167640Y92296
X167259Y96139
X170942Y96139
X168275Y92710
X168021Y98679
X170942Y98679
X168402Y87503
X164592Y87503
X170380Y92583
X173990Y102616
X169926Y92583
X172720Y102743
X169037Y88138
X168910Y92583
X166624Y92710
X166878Y98679
X167005Y92329
X166878Y97409
X172085Y104648
X168275Y106680
X173355Y104648
X169672Y106680
X162941Y80772
X164211Y96901
X174220Y90640
X175020Y107240
X177165Y109601
X8890Y24511
X4191Y15875
X5715Y16129
X9398Y16891
X11430Y16764
X12700Y17272
X13335Y19685
X13335Y22479
X12573Y23241
X12446Y28575
X5334Y28702
X3810Y31115
X6985Y29591
X13970Y30988
X6096Y18034
X7874Y9144
X10414Y7239
X7366Y7239
X7366Y4064
X4572Y3810
X4572Y1270
X14859Y3810
X13970Y1270
X13716Y5842
X3302Y11684
X7620Y10160
X7620Y12700
X10160Y12700
X8890Y10160
X8890Y11430
X7620Y11430
X10160Y11430
X8890Y12700
X8064Y24066
X10160Y27940
X14224Y28448
X7239Y27813
X6223Y29337
X11150Y28601
X13081Y7493
X13335Y10414
X9017Y8890
X8382Y4064
X11176Y13970
X9452Y13843
X4826Y15240
X6711Y10441
X13843Y17399
X9840Y21656
X10922Y8890
X11049Y4445
X13589Y23368
X10414Y8890
X9906Y8890
X14478Y11303
X6477Y10033
X6477Y9579
X6477Y11303
X6477Y10849
X13970Y10048
X12065Y8001
X12065Y3683
X11452Y8890
X11557Y3048
X7725Y14087
X7620Y18669
X10922Y18669
X7620Y13556
X7239Y17399
X10922Y17399
X8255Y13970
X8001Y19939
X10922Y19939
X8382Y8763
X4572Y8763
X10360Y13843
X13970Y23876
X9906Y13843
X12700Y24003
X9017Y9398
X8890Y13843
X6604Y13970
X6858Y19939
X6985Y13589
X6858Y18669
X12065Y25908
X8255Y27940
X13335Y25908
X9652Y27940
X2921Y2032
X4191Y18161
X14200Y11900
X15000Y28500
X17145Y30861
X31750Y24511
X27051Y15875
X28575Y16129
X32258Y16891
X34290Y16764
X35560Y17272
X36195Y19685
X36195Y22479
X35433Y23241
X35306Y28575
X28194Y28702
X26670Y31115
X29845Y29591
X36830Y30988
X28956Y18034
X30734Y9144
X33274Y7239
X30226Y7239
X30226Y4064
X27432Y3810
X27432Y1270
X37719Y3810
X36830Y1270
X36576Y5842
X26162Y11684
X30480Y10160
X30480Y12700
X33020Y12700
X31750Y10160
X31750Y11430
X30480Y11430
X33020Y11430
X31750Y12700
X30924Y24066
X33020Y27940
X37084Y28448
X30099Y27813
X29083Y29337
X34010Y28601
X35941Y7493
X36195Y10414
X31877Y8890
X31242Y4064
X34036Y13970
X32312Y13843
X27686Y15240
X29571Y10441
X36703Y17399
X32700Y21656
X33782Y8890
X33909Y4445
X36449Y23368
X33274Y8890
X32766Y8890
X37338Y11303
X29337Y10033
X29337Y9579
X29337Y11303
X29337Y10849
X36830Y10048
X34925Y8001
X34925Y3683
X34312Y8890
X34417Y3048
X30585Y14087
X30480Y18669
X33782Y18669
X30480Y13556
X30099Y17399
X33782Y17399
X31115Y13970
X30861Y19939
X33782Y19939
X31242Y8763
X27432Y8763
X33220Y13843
X36830Y23876
X32766Y13843
X35560Y24003
X31877Y9398
X31750Y13843
X29464Y13970
X29718Y19939
X29845Y13589
X29718Y18669
X34925Y25908
X31115Y27940
X36195Y25908
X32512Y27940
X25781Y2032
X27051Y18161
X37060Y11900
X37860Y28500
X40005Y30861
X54610Y24511
X49911Y15875
X51435Y16129
X55118Y16891
X57150Y16764
X58420Y17272
X59055Y19685
X59055Y22479
X58293Y23241
X58166Y28575
X51054Y28702
X49530Y31115
X52705Y29591
X59690Y30988
X51816Y18034
X53594Y9144
X56134Y7239
X53086Y7239
X53086Y4064
X50292Y3810
X50292Y1270
X60579Y3810
X59690Y1270
X59436Y5842
X49022Y11684
X53340Y10160
X53340Y12700
X55880Y12700
X54610Y10160
X54610Y11430
X53340Y11430
X55880Y11430
X54610Y12700
X53784Y24066
X55880Y27940
X59944Y28448
X52959Y27813
X51943Y29337
X56870Y28601
X58801Y7493
X59055Y10414
X54737Y8890
X54102Y4064
X56896Y13970
X55172Y13843
X50546Y15240
X52431Y10441
X59563Y17399
X55560Y21656
X56642Y8890
X56769Y4445
X59309Y23368
X56134Y8890
X55626Y8890
X60198Y11303
X52197Y10033
X52197Y9579
X52197Y11303
X52197Y10849
X59690Y10048
X57785Y8001
X57785Y3683
X57172Y8890
X57277Y3048
X53445Y14087
X53340Y18669
X56642Y18669
X53340Y13556
X52959Y17399
X56642Y17399
X53975Y13970
X53721Y19939
X56642Y19939
X54102Y8763
X50292Y8763
X56080Y13843
X59690Y23876
X55626Y13843
X58420Y24003
X54737Y9398
X54610Y13843
X52324Y13970
X52578Y19939
X52705Y13589
X52578Y18669
X57785Y25908
X53975Y27940
X59055Y25908
X55372Y27940
X48641Y2032
X49911Y18161
X59920Y11900
X60720Y28500
X62865Y30861
X77470Y24511
X72771Y15875
X74295Y16129
X77978Y16891
X80010Y16764
X81280Y17272
X81915Y19685
X81915Y22479
X81153Y23241
X81026Y28575
X73914Y28702
X72390Y31115
X75565Y29591
X82550Y30988
X74676Y18034
X76454Y9144
X78994Y7239
X75946Y7239
X75946Y4064
X73152Y3810
X73152Y1270
X83439Y3810
X82550Y1270
X82296Y5842
X71882Y11684
X76200Y10160
X76200Y12700
X78740Y12700
X77470Y10160
X77470Y11430
X76200Y11430
X78740Y11430
X77470Y12700
X76645Y24066
X78740Y27940
X82804Y28448
X75819Y27813
X74803Y29337
X79730Y28601
X81661Y7493
X81915Y10414
X77597Y8890
X76962Y4064
X79756Y13970
X78032Y13843
X73406Y15240
X75291Y10441
X82423Y17399
X78420Y21656
X79502Y8890
X79629Y4445
X82169Y23368
X78994Y8890
X78486Y8890
X83058Y11303
X75057Y10033
X75057Y9579
X75057Y11303
X75057Y10849
X82550Y10048
X80645Y8001
X80645Y3683
X80032Y8890
X80137Y3048
X76305Y14087
X76200Y18669
X79502Y18669
X76200Y13556
X75819Y17399
X79502Y17399
X76835Y13970
X76581Y19939
X79502Y19939
X76962Y8763
X73152Y8763
X78940Y13843
X82550Y23876
X78486Y13843
X81280Y24003
X77597Y9398
X77470Y13843
X75184Y13970
X75438Y19939
X75565Y13589
X75438Y18669
X80645Y25908
X76835Y27940
X81915Y25908
X78232Y27940
X71501Y2032
X72771Y18161
X82780Y11900
X83580Y28500
X85725Y30861
X100330Y24511
X95631Y15875
X97155Y16129
X100838Y16891
X102870Y16764
X104140Y17272
X104775Y19685
X104775Y22479
X104013Y23241
X103886Y28575
X96774Y28702
X95250Y31115
X98425Y29591
X105410Y30988
X97536Y18034
X99314Y9144
X101854Y7239
X98806Y7239
X98806Y4064
X96012Y3810
X96012Y1270
X106299Y3810
X105410Y1270
X105156Y5842
X94742Y11684
X99060Y10160
X99060Y12700
X101600Y12700
X100330Y10160
X100330Y11430
X99060Y11430
X101600Y11430
X100330Y12700
X99504Y24066
X101600Y27940
X105664Y28448
X98679Y27813
X97663Y29337
X102590Y28601
X104521Y7493
X104775Y10414
X100457Y8890
X99822Y4064
X102616Y13970
X100892Y13843
X96266Y15240
X98151Y10441
X105283Y17399
X101280Y21656
X102362Y8890
X102489Y4445
X105029Y23368
X101854Y8890
X101346Y8890
X105918Y11303
X97917Y10033
X97917Y9579
X97917Y11303
X97917Y10849
X105410Y10048
X103505Y8001
X103505Y3683
X102892Y8890
X102997Y3048
X99165Y14087
X99060Y18669
X102362Y18669
X99060Y13556
X102362Y17399
X99695Y13970
X99441Y19939
X102362Y19939
X99822Y8763
X96012Y8763
X101800Y13843
X105410Y23876
X101346Y13843
X104140Y24003
X100457Y9398
X100330Y13843
X98044Y13970
X98298Y19939
X98425Y13589
X98298Y18669
X103505Y25908
X99695Y27940
X104775Y25908
X101092Y27940
X94361Y2032
X95631Y18161
X105640Y11900
X106440Y28500
X108585Y30861
X123190Y24511
X118491Y15875
X120015Y16129
X123698Y16891
X125730Y16764
X127000Y17272
X127635Y19685
X127635Y22479
X126873Y23241
X126746Y28575
X119634Y28702
X118110Y31115
X121285Y29591
X128270Y30988
X120396Y18034
X122174Y9144
X124714Y7239
X121666Y7239
X121666Y4064
X118872Y3810
X118872Y1270
X129159Y3810
X128270Y1270
X128016Y5842
X117602Y11684
X121920Y10160
X121920Y12700
X124460Y12700
X123190Y10160
X123190Y11430
X121920Y11430
X124460Y11430
X123190Y12700
X122364Y24066
X124460Y27940
X128524Y28448
X121539Y27813
X120523Y29337
X125450Y28601
X127381Y7493
X127635Y10414
X123317Y8890
X122682Y4064
X125476Y13970
X123752Y13843
X119126Y15240
X121011Y10441
X128143Y17399
X124140Y21656
X125222Y8890
X125349Y4445
X127889Y23368
X124714Y8890
X124206Y8890
X128778Y11303
X120777Y10033
X120777Y9579
X120777Y11303
X120777Y10849
X128270Y10048
X126365Y8001
X126365Y3683
X125752Y8890
X125857Y3048
X122025Y14087
X121920Y18669
X125222Y18669
X121920Y13556
X121539Y17399
X125222Y17399
X122555Y13970
X122301Y19939
X125222Y19939
X122682Y8763
X118872Y8763
X124660Y13843
X128270Y23876
X124206Y13843
X127000Y24003
X123317Y9398
X123190Y13843
X120904Y13970
X121158Y19939
X121285Y13589
X121158Y18669
X126365Y25908
X122555Y27940
X127635Y25908
X123952Y27940
X117221Y2032
X118491Y18161
X128500Y11900
X129300Y28500
X131445Y30861
X146050Y24511
X141351Y15875
X142875Y16129
X146558Y16891
X148590Y16764
X149860Y17272
X150495Y19685
X150495Y22479
X149733Y23241
X149606Y28575
X142494Y28702
X140970Y31115
X144145Y29591
X151130Y30988
X143256Y18034
X145034Y9144
X147574Y7239
X144526Y7239
X144526Y4064
X141732Y3810
X141732Y1270
X152019Y3810
X151130Y1270
X150876Y5842
X140462Y11684
X144780Y10160
X144780Y12700
X147320Y12700
X146050Y10160
X146050Y11430
X144780Y11430
X147320Y11430
X146050Y12700
X145225Y24066
X147320Y27940
X151384Y28448
X144399Y27813
X143383Y29337
X148310Y28601
X150241Y7493
X150495Y10414
X146177Y8890
X145542Y4064
X148336Y13970
X146612Y13843
X141986Y15240
X143871Y10441
X151003Y17399
X147000Y21656
X148082Y8890
X148209Y4445
X150749Y23368
X147574Y8890
X147066Y8890
X151638Y11303
X143637Y10033
X143637Y9579
X143637Y11303
X143637Y10849
X151130Y10048
X149225Y8001
X149225Y3683
X148612Y8890
X148717Y3048
X144885Y14087
X144780Y18669
X148082Y18669
X144780Y13556
X144399Y17399
X148082Y17399
X145415Y13970
X145161Y19939
X148082Y19939
X145542Y8763
X141732Y8763
X147520Y13843
X151130Y23876
X147066Y13843
X149860Y24003
X146177Y9398
X146050Y13843
X143764Y13970
X144018Y19939
X144145Y13589
X144018Y18669
X149225Y25908
X145415Y27940
X150495Y25908
X146812Y27940
X140081Y2032
X141351Y18161
X151360Y11900
X152160Y28500
X154305Y30861
X168910Y24511
X164211Y15875
X165735Y16129
X169418Y16891
X171450Y16764
X172720Y17272
X173355Y19685
X173355Y22479
X172593Y23241
X172466Y28575
X165354Y28702
X163830Y31115
X167005Y29591
X173990Y30988
X166116Y18034
X167894Y9144
X170434Y7239
X167386Y7239
X167386Y4064
X164592Y3810
X164592Y1270
X174879Y3810
X173990Y1270
X173736Y5842
X163322Y11684
X167640Y10160
X167640Y12700
X170180Y12700
X168910Y10160
X168910Y11430
X167640Y11430
X170180Y11430
X168910Y12700
X168085Y24066
X170180Y27940
X174244Y28448
X167259Y27813
X166243Y29337
X171170Y28601
X173101Y7493
X173355Y10414
X169037Y8890
X168402Y4064
X171196Y13970
X169472Y13843
X164846Y15240
X166731Y10441
X173863Y17399
X169860Y21656
X170942Y8890
X171069Y4445
X173609Y23368
X170434Y8890
X169926Y8890
X174498Y11303
X166497Y10033
X166497Y9579
X166497Y11303
X166497Y10849
X173990Y10048
X172085Y8001
X172085Y3683
X171472Y8890
X171577Y3048
X167745Y14087
X167640Y18669
X170942Y18669
X167640Y13556
X167259Y17399
X170942Y17399
X168275Y13970
X168021Y19939
X170942Y19939
X168402Y8763
X164592Y8763
X170380Y13843
X173990Y23876
X169926Y13843
X172720Y24003
X169037Y9398
X168910Y13843
X166624Y13970
X166878Y19939
X167005Y13589
X166878Y18669
X172085Y25908
X168275Y27940
X173355Y25908
X169672Y27940
X162941Y2032
X164211Y18161
X174220Y11900
X175020Y28500
X177165Y30861
X8890Y63881
X4191Y55245
X5715Y55499
X9398Y56261
X11430Y56134
X12700Y56642
X13335Y59055
X13335Y61849
X12573Y62611
X12446Y67945
X5334Y68072
X3810Y70485
X6985Y68961
X13970Y70358
X6096Y57404
X7874Y48514
X10414Y46609
X7366Y46609
X7366Y43434
X4572Y43180
X4572Y40640
X14859Y43180
X13970Y40640
X13716Y45212
X3302Y51054
X7620Y49530
X7620Y52070
X10160Y52070
X8890Y49530
X8890Y50800
X7620Y50800
X10160Y50800
X8890Y52070
X8064Y63436
X10160Y67310
X14224Y67818
X7239Y67183
X6223Y68707
X11150Y67971
X13081Y46863
X13335Y49784
X9017Y48260
X8382Y43434
X11176Y53340
X9452Y53213
X4826Y54610
X6711Y49811
X13843Y56769
X9840Y61026
X10922Y48260
X11049Y43815
X13589Y62738
X10414Y48260
X9906Y48260
X14478Y50673
X6477Y49403
X6477Y48949
X6477Y50673
X6477Y50219
X13970Y49417
X12065Y47371
X12065Y43053
X11452Y48260
X11557Y42418
X7725Y53457
X7620Y58039
X10922Y58039
X7620Y52926
X7239Y56769
X10922Y56769
X8255Y53340
X8001Y59309
X10922Y59309
X8382Y48133
X4572Y48133
X10360Y53213
X13970Y63246
X9906Y53213
X12700Y63373
X9017Y48768
X8890Y53213
X6604Y53340
X6858Y59309
X6985Y52959
X6858Y58039
X12065Y65278
X8255Y67310
X13335Y65278
X9652Y67310
X2921Y41402
X4191Y57531
X14200Y51270
X15000Y67870
X17145Y70231
X31750Y63881
X27051Y55245
X28575Y55499
X32258Y56261
X34290Y56134
X35560Y56642
X52578Y97409
X36195Y59055
X36195Y61849
X35433Y62611
X35306Y67945
X28194Y68072
X26670Y70485
X29845Y68961
X36830Y70358
X28956Y57404
X30734Y48514
X33274Y46609
X30226Y46609
X30226Y43434
X27432Y43180
X27432Y40640
X37719Y43180
X36830Y40640
X36576Y45212
X26162Y51054
X30480Y49530
X30480Y52070
X33020Y52070
X31750Y49530
X31750Y50800
X30480Y50800
X33020Y50800
X31750Y52070
X30924Y63436
X33020Y67310
X37084Y67818
X30099Y67183
X29083Y68707
X34010Y67971
X35941Y46863
X36195Y49784
X31877Y48260
X31242Y43434
X34036Y53340
X32312Y53213
X27686Y54610
X29571Y49811
X36703Y56769
X32700Y61026
X33782Y48260
X33909Y43815
X36449Y62738
X33274Y48260
X32766Y48260
X37338Y50673
X29337Y49403
X29337Y48949
X29337Y50673
X29337Y50219
X36830Y49417
X34925Y47371
X34925Y43053
X34312Y48260
X34417Y42418
X30585Y53457
X30480Y58039
X33782Y58039
X30480Y52926
X30099Y56769
X33782Y56769
X31115Y53340
X30861Y59309
X33782Y59309
X31242Y48133
X27432Y48133
X33220Y53213
X36830Y63246
X32766Y53213
X35560Y63373
X31877Y48768
X31750Y53213
X29464Y53340
X29718Y59309
X29845Y52959
X29718Y58039
X34925Y65278
X31115Y67310
X36195Y65278
X32512Y67310
X25781Y41402
X27051Y57531
X37060Y51270
X37860Y67870
X40005Y70231
X54610Y63881
X49911Y55245
X51435Y55499
X55118Y56261
X57150Y56134
X58420Y56642
X59055Y59055
X59055Y61849
X58293Y62611
X58166Y67945
X51054Y68072
X49530Y70485
X52705Y68961
X59690Y70358
X51816Y57404
X53594Y48514
X56134Y46609
X53086Y46609
X53086Y43434
X50292Y43180
X50292Y40640
X60579Y43180
X59690Y40640
X59436Y45212
X49022Y51054
X53340Y49530
X53340Y52070
X55880Y52070
X54610Y49530
X54610Y50800
X53340Y50800
X55880Y50800
X54610Y52070
X53784Y63436
X55880Y67310
X59944Y67818
X52959Y67183
X51943Y68707
X56870Y67971
X58801Y46863
X59055Y49784
X54737Y48260
X54102Y43434
X56896Y53340
X55172Y53213
X50546Y54610
X52431Y49811
X59563Y56769
X55560Y61026
X56642Y48260
X56769Y43815
X59309Y62738
X56134Y48260
X55626Y48260
X60198Y50673
X52197Y49403
X52197Y48949
X52197Y50673
X52197Y50219
X59690Y49417
X57785Y47371
X57785Y43053
X57172Y48260
X57277Y42418
X53445Y53457
X53340Y58039
X56642Y58039
X53340Y52926
X52959Y56769
X56642Y56769
X53975Y53340
X53721Y59309
X56642Y59309
X54102Y48133
X50292Y48133
X56080Y53213
X59690Y63246
X55626Y53213
X58420Y63373
X54737Y48768
X54610Y53213
X52324Y53340
X52578Y59309
X52705Y52959
X52578Y58039
X57785Y65278
X53975Y67310
X59055Y65278
X55372Y67310
X48641Y41402
X49911Y57531
X59920Y51270
X60720Y67870
X62865Y70231
X77470Y63881
X72771Y55245
X74295Y55499
X77978Y56261
X80010Y56134
X81280Y56642
X81915Y59055
X81915Y61849
X81153Y62611
X81026Y67945
X73914Y68072
X72390Y70485
X75565Y68961
X82550Y70358
X74676Y57404
X76454Y48514
X78994Y46609
X75946Y46609
X75946Y43434
X73152Y43180
X73152Y40640
X83439Y43180
X82550Y40640
X82296Y45212
X71882Y51054
X76200Y49530
X76200Y52070
X78740Y52070
X77470Y49530
X77470Y50800
X76200Y50800
X78740Y50800
X77470Y52070
X76645Y63436
X78740Y67310
X82804Y67818
X75819Y67183
X74803Y68707
X79730Y67971
X81661Y46863
X81915Y49784
X77597Y48260
X76962Y43434
X79756Y53340
X78032Y53213
X73406Y54610
X75291Y49811
X82423Y56769
X78420Y61026
X79502Y48260
X79629Y43815
X82169Y62738
X78994Y48260
X78486Y48260
X83058Y50673
X75057Y49403
X75057Y48949
X75057Y50673
X75057Y50219
X82550Y49417
X80645Y47371
X80645Y43053
X80032Y48260
X80137Y42418
X76305Y53457
X76200Y58039
X79502Y58039
X76200Y52926
X75819Y56769
X79502Y56769
X76835Y53340
X76581Y59309
X79502Y59309
X76962Y48133
X73152Y48133
X78940Y53213
X82550Y63246
X78486Y53213
X81280Y63373
X77597Y48768
X77470Y53213
X75184Y53340
X75438Y59309
X75565Y52959
X75438Y58039
X80645Y65278
X76835Y67310
X81915Y65278
X78232Y67310
X71501Y41402
X72771Y57531
X82780Y51270
X83580Y67870
X85725Y70231
X100330Y63881
X95631Y55245
X97155Y55499
X100838Y56261
X102870Y56134
X104140Y56642
X104775Y59055
X104775Y61849
X104013Y62611
X103886Y67945
X96774Y68072
X95250Y70485
X98425Y68961
X105410Y70358
X97536Y57404
X99314Y48514
X101854Y46609
X98806Y46609
X98806Y43434
X96012Y43180
X96012Y40640
X106299Y43180
X105410Y40640
X105156Y45212
X94742Y51054
X99060Y49530
X99060Y52070
X101600Y52070
X100330Y49530
X100330Y50800
X99060Y50800
X101600Y50800
X100330Y52070
X99504Y63436
X101600Y67310
X105664Y67818
X98679Y67183
X97663Y68707
X102590Y67971
X104521Y46863
X104775Y49784
X100457Y48260
X99822Y43434
X102616Y53340
X100892Y53213
X96266Y54610
X98151Y49811
X105283Y56769
X101280Y61026
X102362Y48260
X102489Y43815
X105029Y62738
X101854Y48260
X101346Y48260
X105918Y50673
X97917Y49403
X97917Y48949
X97917Y50673
X97917Y50219
X105410Y49417
X103505Y47371
X103505Y43053
X102892Y48260
X102997Y42418
X99165Y53457
X99060Y58039
X102362Y58039
X99060Y52926
X98679Y56769
X102362Y56769
X99695Y53340
X99441Y59309
X102362Y59309
X99822Y48133
X96012Y48133
X101800Y53213
X105410Y63246
X101346Y53213
X104140Y63373
X100457Y48768
X100330Y53213
X98044Y53340
X98298Y59309
X98425Y52959
X98298Y58039
X103505Y65278
X99695Y67310
X104775Y65278
X101092Y67310
X94361Y41402
X95631Y57531
X105640Y51270
X106440Y67870
X108585Y70231
X123190Y63881
X118491Y55245
X120015Y55499
X123698Y56261
X125730Y56134
X127000Y56642
X127635Y59055
X127635Y61849
X126873Y62611
X126746Y67945
X119634Y68072
X118110Y70485
X121285Y68961
X128270Y70358
X120396Y57404
X122174Y48514
X124714Y46609
X121666Y46609
X121666Y43434
X118872Y43180
X118872Y40640
X129159Y43180
X128270Y40640
X128016Y45212
X117602Y51054
X121920Y49530
X121920Y52070
X124460Y52070
X123190Y49530
X123190Y50800
X121920Y50800
X124460Y50800
X123190Y52070
X122364Y63436
X124460Y67310
X128524Y67818
X121539Y67183
X120523Y68707
X125450Y67971
X127381Y46863
X127635Y49784
X123317Y48260
X122682Y43434
X125476Y53340
X123752Y53213
X119126Y54610
X121011Y49811
X128143Y56769
X124140Y61026
X125222Y48260
X125349Y43815
X127889Y62738
X124714Y48260
X124206Y48260
X128778Y50673
X120777Y49403
X120777Y48949
X120777Y50673
X120777Y50219
X128270Y49417
X126365Y47371
X126365Y43053
X125752Y48260
X125857Y42418
X122025Y53457
X121920Y58039
X125222Y58039
X121920Y52926
X121539Y56769
X125222Y56769
X122555Y53340
X122301Y59309
X125222Y59309
X122682Y48133
M30