M48
;GenerationSoftware,Autodesk,EAGLE,9.6.2*%
;CreationDate,2020-11-28T04:05:14Z*%
FMAT,2
ICI,OFF
METRIC,TZ,000.000
T5C0.200
T4C0.400
T3C0.650
T2C0.850
T1C1.700
%
G90
M71
T1
X109520Y34798
X91140Y39878
X91140Y42418
X91140Y44958
X91140Y47498
X91140Y50038
X91140Y52578
X91140Y55118
X91140Y57658
X91140Y60198
X91140Y62738
X86660Y62738
X86660Y60198
X86660Y57658
X86660Y55118
X86660Y52578
X86660Y50038
X86660Y47498
X86660Y44958
X86660Y42418
X86660Y39878
X86660Y37338
X86660Y34798
X68280Y34798
X68280Y37338
X68280Y39878
X68280Y42418
X68280Y44958
X68280Y47498
X68280Y50038
X68280Y52578
X86660Y508
X86660Y3048
X86660Y5588
X86660Y8128
X86660Y10668
X86660Y13208
X86660Y15748
X86660Y18288
X63800Y42418
X63800Y39878
X63800Y37338
X63800Y34798
X-300Y18288
X-300Y15748
X-300Y13208
X-300Y10668
X-300Y8128
X-300Y5588
X-300Y3048
X-300Y508
X-300Y-2032
X-300Y-4572
X-300Y-7112
X-300Y-9652
X40940Y44958
X40940Y47498
X40940Y50038
X40940Y52578
X18080Y34798
X18080Y37338
X18080Y39878
X18080Y42418
X18080Y44958
X18080Y47498
X18080Y50038
X18080Y52578
X18080Y-9652
X18080Y-7112
X18080Y-4572
X18080Y-2032
X18080Y508
X18080Y3048
X18080Y5588
X18080Y8128
X18080Y10668
X18080Y13208
X18080Y15748
X18080Y18288
X68280Y55118
X68280Y57658
X68280Y60198
X68280Y62738
X91140Y18288
X91140Y15748
X91140Y13208
X91140Y10668
X91140Y8128
X91140Y5588
X91140Y3048
X91140Y508
X91140Y-2032
X91140Y-4572
X91140Y-7112
X91140Y-9652
X22560Y18288
X22560Y15748
X22560Y13208
X22560Y10668
X22560Y8128
X22560Y5588
X22560Y3048
X22560Y508
X22560Y-2032
X22560Y-4572
X22560Y-7112
X22560Y-9652
X18080Y55118
X18080Y57658
X18080Y60198
X18080Y62738
X45420Y44958
X45420Y47498
X45420Y50038
X45420Y52578
X40940Y55118
X40940Y57658
X40940Y60198
X40940Y62738
X40940Y-9652
X40940Y-7112
X40940Y-4572
X40940Y-2032
X40940Y508
X40940Y3048
X40940Y5588
X40940Y8128
X40940Y10668
X40940Y13208
X40940Y15748
X40940Y18288
X63800Y62738
X63800Y60198
X63800Y57658
X63800Y55118
X109520Y-9652
X109520Y-7112
X109520Y-4572
X109520Y-2032
X109520Y508
X109520Y3048
X109520Y5588
X109520Y8128
X109520Y10668
X109520Y13208
X109520Y15748
X109520Y18288
X45420Y18288
X45420Y15748
X45420Y13208
X45420Y10668
X45420Y8128
X45420Y5588
X45420Y3048
X45420Y508
X45420Y-2032
X45420Y-4572
X45420Y-7112
X45420Y-9652
X45420Y34798
X45420Y37338
X45420Y39878
X45420Y42418
X45420Y55118
X45420Y57658
X45420Y60198
X45420Y62738
X40940Y34798
X40940Y37338
X40940Y39878
X40940Y42418
X63800Y-9652
X63800Y-7112
X63800Y-4572
X63800Y-2032
X63800Y508
X63800Y3048
X63800Y5588
X63800Y8128
X63800Y10668
X63800Y13208
X63800Y15748
X63800Y18288
X63800Y52578
X63800Y50038
X63800Y47498
X63800Y44958
X22560Y62738
X22560Y60198
X22560Y57658
X22560Y55118
X-300Y62738
X-300Y60198
X-300Y57658
X-300Y55118
X-300Y52578
X-300Y50038
X-300Y47498
X-300Y44958
X68280Y18288
X68280Y15748
X68280Y13208
X68280Y10668
X68280Y8128
X68280Y5588
X68280Y3048
X68280Y508
X68280Y-2032
X68280Y-4572
X68280Y-7112
X68280Y-9652
X-300Y42418
X-300Y39878
X-300Y37338
X-300Y34798
X22560Y52578
X22560Y50038
X22560Y47498
X22560Y44958
X22560Y42418
X22560Y39878
X22560Y37338
X22560Y34798
X86660Y-9652
X86660Y-7112
X86660Y-4572
X86660Y-2032
X91140Y37338
X91140Y34798
X109520Y37338
X109520Y39878
X109520Y42418
X109520Y44958
X109520Y47498
X109520Y50038
X109520Y52578
X109520Y55118
X109520Y57658
X109520Y60198
X109520Y62738
X-300Y107188
X-300Y104648
X-300Y102108
X-300Y99568
X-300Y97028
X-300Y94488
X-300Y91948
X-300Y89408
X-300Y86868
X-300Y84328
X-300Y81788
X-300Y79248
X18080Y79248
X18080Y81788
X18080Y84328
X18080Y86868
X18080Y89408
X18080Y91948
X18080Y94488
X18080Y97028
X18080Y99568
X18080Y102108
X18080Y104648
X18080Y107188
X22560Y107188
X22560Y104648
X22560Y102108
X22560Y99568
X22560Y97028
X22560Y94488
X22560Y91948
X22560Y89408
X22560Y86868
X22560Y84328
X22560Y81788
X22560Y79248
X40940Y79248
X40940Y81788
X40940Y84328
X40940Y86868
X40940Y89408
X40940Y91948
X40940Y94488
X40940Y97028
X40940Y99568
X40940Y102108
X40940Y104648
X40940Y107188
X45420Y107188
X45420Y104648
X45420Y102108
X45420Y99568
X45420Y97028
X45420Y94488
X45420Y91948
X45420Y89408
X45420Y86868
X45420Y84328
X45420Y81788
X45420Y79248
X63800Y79248
X63800Y81788
X63800Y84328
X63800Y86868
X63800Y89408
X63800Y91948
X63800Y94488
X63800Y97028
X63800Y99568
X63800Y102108
X63800Y104648
X63800Y107188
X68280Y107188
X68280Y104648
X68280Y102108
X68280Y99568
X68280Y97028
X68280Y94488
X68280Y91948
X68280Y89408
X68280Y86868
X68280Y84328
X68280Y81788
X68280Y79248
X86660Y79248
X86660Y81788
X86660Y84328
X86660Y86868
X86660Y89408
X86660Y91948
X86660Y94488
X86660Y97028
X86660Y99568
X86660Y102108
X86660Y104648
X86660Y107188
X91140Y107188
X91140Y104648
X91140Y102108
X91140Y99568
X91140Y97028
X91140Y94488
X91140Y91948
X91140Y89408
X91140Y86868
X91140Y84328
X91140Y81788
X91140Y79248
X109520Y79248
X109520Y81788
X109520Y84328
X109520Y86868
X109520Y89408
X109520Y91948
X109520Y94488
X109520Y97028
X109520Y99568
X109520Y102108
X109520Y104648
X109520Y107188
T2
X16510Y44958
X16510Y50038
X16510Y39878
X16510Y37338
X16510Y42418
X16510Y34798
X16510Y52578
X16510Y57658
X16510Y55118
X16510Y60198
X16510Y62738
X24130Y50038
X24130Y52578
X24130Y47498
X24130Y57658
X24130Y60198
X24130Y55118
X24130Y62738
X24130Y44958
X24130Y39878
X24130Y42418
X24130Y37338
X24130Y34798
X39370Y47498
X39370Y44958
X39370Y50038
X39370Y39878
X39370Y37338
X39370Y42418
X39370Y34798
X39370Y52578
X39370Y57658
X39370Y55118
X39370Y60198
X39370Y62738
X46990Y50038
X46990Y52578
X46990Y47498
X46990Y57658
X46990Y60198
X46990Y55118
X46990Y62738
X46990Y44958
X46990Y39878
X46990Y42418
X46990Y37338
X46990Y34798
X62230Y47498
X62230Y44958
X62230Y50038
X62230Y39878
X62230Y37338
X62230Y42418
X62230Y34798
X62230Y52578
X62230Y57658
X62230Y55118
X62230Y60198
X62230Y62738
X69850Y50038
X69850Y52578
X69850Y47498
X69850Y57658
X69850Y60198
X69850Y55118
X69850Y62738
X69850Y44958
X69850Y39878
X69850Y42418
X69850Y37338
X69850Y34798
X85090Y47498
X85090Y44958
X85090Y50038
X85090Y39878
X85090Y37338
X85090Y42418
X85090Y34798
X85090Y52578
X85090Y57658
X85090Y55118
X85090Y60198
X85090Y62738
X92710Y50038
X92710Y52578
X92710Y47498
X92710Y57658
X92710Y60198
X92710Y55118
X92710Y62738
X92710Y44958
X92710Y39878
X92710Y42418
X92710Y37338
X92710Y34798
X1270Y5588
X1270Y8128
X107950Y47498
X107950Y44958
X107950Y50038
X107950Y39878
X107950Y37338
X107950Y42418
X107950Y34798
X107950Y52578
X107950Y57658
X107950Y55118
X107950Y60198
X107950Y62738
X1270Y3048
X1270Y13208
X1270Y15748
X1270Y10668
X1270Y18288
X1270Y508
X1270Y-4572
X1270Y-2032
X1270Y-7112
X1270Y-9652
X16510Y3048
X1270Y94488
X1270Y97028
X1270Y91948
X1270Y102108
X1270Y104648
X1270Y99568
X1270Y107188
X1270Y89408
X1270Y84328
X1270Y86868
X1270Y81788
X1270Y79248
X16510Y508
X16510Y5588
X16510Y-4572
X16510Y-7112
X16510Y-2032
X16510Y-9652
X16510Y8128
X16510Y13208
X16510Y10668
X16510Y15748
X16510Y18288
X24130Y5588
X16510Y91948
X16510Y89408
X16510Y94488
X16510Y84328
X16510Y81788
X16510Y86868
X16510Y79248
X16510Y97028
X16510Y102108
X16510Y99568
X16510Y104648
X16510Y107188
X24130Y8128
X24130Y3048
X24130Y13208
X24130Y15748
X24130Y10668
X24130Y18288
X24130Y508
X24130Y-4572
X24130Y-2032
X24130Y-7112
X24130Y-9652
X39370Y3048
X24130Y94488
X24130Y97028
X24130Y91948
X24130Y102108
X24130Y104648
X24130Y99568
X24130Y107188
X24130Y89408
X24130Y84328
X24130Y86868
X24130Y81788
X24130Y79248
X39370Y508
X39370Y5588
X39370Y-4572
X39370Y-7112
X39370Y-2032
X39370Y-9652
X39370Y8128
X39370Y13208
X39370Y10668
X39370Y15748
X39370Y18288
X46990Y5588
X39370Y91948
X39370Y89408
X39370Y94488
X39370Y84328
X39370Y81788
X39370Y86868
X39370Y79248
X39370Y97028
X39370Y102108
X39370Y99568
X39370Y104648
X39370Y107188
X46990Y8128
X46990Y3048
X46990Y13208
X46990Y15748
X46990Y10668
X46990Y18288
X46990Y508
X46990Y-4572
X46990Y-2032
X46990Y-7112
X46990Y-9652
X62230Y3048
X46990Y94488
X46990Y97028
X46990Y91948
X46990Y102108
X46990Y104648
X46990Y99568
X46990Y107188
X46990Y89408
X46990Y84328
X46990Y86868
X46990Y81788
X46990Y79248
X62230Y508
X62230Y5588
X62230Y-4572
X62230Y-7112
X62230Y-2032
X62230Y-9652
X62230Y8128
X62230Y13208
X62230Y10668
X62230Y15748
X62230Y18288
X69850Y5588
X62230Y91948
X62230Y89408
X62230Y94488
X62230Y84328
X62230Y81788
X62230Y86868
X62230Y79248
X62230Y97028
X62230Y102108
X62230Y99568
X62230Y104648
X62230Y107188
X69850Y8128
X69850Y3048
X69850Y13208
X69850Y15748
X69850Y10668
X69850Y18288
X69850Y508
X69850Y-4572
X69850Y-2032
X69850Y-7112
X69850Y-9652
X85090Y3048
X69850Y94488
X69850Y97028
X69850Y91948
X69850Y102108
X69850Y104648
X69850Y99568
X69850Y107188
X69850Y89408
X69850Y84328
X69850Y86868
X69850Y81788
X69850Y79248
X85090Y508
X85090Y5588
X85090Y-4572
X85090Y-7112
X85090Y-2032
X85090Y-9652
X85090Y8128
X85090Y13208
X85090Y10668
X85090Y15748
X85090Y18288
X92710Y5588
X85090Y91948
X85090Y89408
X85090Y94488
X85090Y84328
X85090Y81788
X85090Y86868
X85090Y79248
X85090Y97028
X85090Y102108
X85090Y99568
X85090Y104648
X85090Y107188
X92710Y8128
X92710Y3048
X92710Y13208
X92710Y15748
X92710Y10668
X92710Y18288
X92710Y508
X92710Y-4572
X92710Y-2032
X92710Y-7112
X92710Y-9652
X107950Y3048
X92710Y94488
X92710Y97028
X92710Y91948
X92710Y102108
X92710Y104648
X92710Y99568
X92710Y107188
X92710Y89408
X92710Y84328
X92710Y86868
X92710Y81788
X92710Y79248
X107950Y508
X107950Y5588
X107950Y-4572
X107950Y-7112
X107950Y-2032
X107950Y-9652
X107950Y8128
X107950Y13208
X107950Y10668
X107950Y15748
X107950Y18288
X1270Y50038
X107950Y91948
X107950Y89408
X107950Y94488
X107950Y84328
X107950Y81788
X107950Y86868
X107950Y79248
X107950Y97028
X107950Y102108
X107950Y99568
X107950Y104648
X107950Y107188
X1270Y52578
X1270Y47498
X1270Y57658
X1270Y60198
X1270Y55118
X1270Y62738
X1270Y44958
X1270Y39878
X1270Y42418
X1270Y37338
X1270Y34798
X16510Y47498
T3
X11780Y61643
X103220Y17193
X97440Y17193
X11780Y17193
X74580Y17193
X80360Y17193
X51720Y17193
X57500Y17193
X28860Y17193
X34640Y17193
X6000Y17193
X97440Y106093
X103220Y106093
X74580Y106093
X80360Y106093
X51720Y106093
X57500Y106093
X28860Y106093
X34640Y106093
X103220Y61643
X6000Y106093
X11780Y106093
X97440Y61643
X74580Y61643
X80360Y61643
X51720Y61643
X57500Y61643
X28860Y61643
X34640Y61643
X6000Y61643
T4
X27432Y65293
X104648Y16663
X96012Y16663
X96012Y20843
X81788Y109743
X73152Y109743
X73152Y105563
X81788Y105563
X104648Y20843
X13208Y16663
X4572Y16663
X4572Y20843
X13208Y109743
X4572Y109743
X4572Y105563
X13208Y105563
X13208Y20843
X81788Y65293
X73152Y65293
X73152Y61113
X81788Y61113
X58928Y65293
X50292Y65293
X50292Y61113
X58928Y61113
X81788Y16663
X73152Y16663
X73152Y20843
X81788Y20843
X58928Y16663
X50292Y16663
X50292Y20843
X58928Y20843
X36068Y16663
X104648Y65293
X96012Y65293
X96012Y61113
X36068Y61113
X58928Y109743
X50292Y109743
X50292Y105563
X58928Y105563
X27432Y16663
X27432Y20843
X36068Y20843
X27432Y61113
X36068Y109743
X27432Y109743
X104648Y61113
X27432Y105563
X36068Y105563
X36068Y65293
X13208Y61113
X4572Y61113
X4572Y65293
X13208Y65293
X104648Y109743
X96012Y109743
X96012Y105563
X104648Y105563
T5
X79502Y52197
X76200Y47084
X75819Y50927
X79502Y50927
X76835Y47498
X76581Y53467
X79502Y53467
X76962Y42291
X73152Y42291
X78940Y47371
X82550Y57404
X78486Y47371
X81280Y57531
X77597Y42926
X77470Y47371
X75184Y47498
X75438Y53467
X75565Y47117
X75438Y52197
X80645Y59436
X76835Y61468
X81915Y59436
X78232Y61468
X71501Y35560
X72771Y51689
X82780Y45428
X83580Y62028
X100330Y58039
X95631Y49403
X97155Y49657
X100838Y50419
X102870Y50292
X105410Y50546
X104775Y53213
X104775Y56007
X104013Y56769
X103886Y62103
X96774Y62230
X95250Y64643
X98425Y63119
X105410Y64516
X97536Y51562
X99314Y42672
X101854Y40767
X98806Y40767
X98806Y37592
X96012Y37338
X96012Y34798
X106299Y37338
X105410Y34798
X105156Y39370
X94742Y45212
X99060Y43688
X99060Y46228
X101600Y46228
X100330Y43688
X100330Y44958
X99060Y44958
X101600Y44958
X100330Y46228
X99504Y57594
X101600Y61468
X105664Y61976
X98679Y61341
X97663Y62865
X102590Y62129
X104521Y41021
X104775Y43942
X100457Y42418
X99822Y37592
X102616Y47498
X100892Y47371
X96266Y48768
X98151Y43969
X105410Y51308
X101280Y55184
X102362Y42418
X102489Y37973
X105029Y56896
X101854Y42418
X101346Y42418
X105918Y44831
X97917Y43561
X97917Y43107
X97917Y44831
X97917Y44377
X105410Y43576
X103505Y41529
X103505Y37211
X102892Y42418
X102997Y36576
X99165Y47615
X99060Y52197
X102362Y52197
X99060Y47084
X98679Y50927
X102362Y50927
X99695Y47498
X99441Y53467
X102362Y53467
X99822Y42291
X96012Y42291
X101800Y47371
X105410Y57404
X101346Y47371
X104140Y57531
X100457Y42926
X100330Y47371
X98044Y47498
X98298Y53467
X98425Y47117
X98298Y52197
X103505Y59436
X99695Y61468
X104775Y59436
X101092Y61468
X94361Y35560
X95631Y51689
X105640Y45428
X106440Y62028
X8890Y102489
X4191Y93853
X5715Y94107
X9398Y94869
X11430Y94742
X13970Y94996
X13335Y97663
X13335Y100457
X12573Y101219
X12446Y106553
X5334Y106680
X3810Y109093
X6985Y107569
X13970Y108966
X6096Y96012
X7874Y87122
X10414Y85217
X7366Y85217
X7366Y82042
X4572Y81788
X4572Y79248
X14859Y81788
X13970Y79248
X13716Y83820
X3302Y89662
X7620Y88138
X7620Y90678
X10160Y90678
X8890Y88138
X8890Y89408
X7620Y89408
X10160Y89408
X8890Y90678
X8064Y102044
X10160Y105918
X14224Y106426
X7239Y105791
X6223Y107315
X11150Y106579
X13081Y85471
X13335Y88392
X9017Y86868
X8382Y82042
X11176Y91948
X9452Y91821
X4826Y93218
X6711Y88419
X13970Y95758
X9840Y99634
X10922Y86868
X11049Y82423
X13589Y101346
X10414Y86868
X9906Y86868
X14478Y89281
X6477Y88011
X6477Y87557
X6477Y89281
X6477Y88827
X13970Y88025
X12065Y85979
X12065Y81661
X11452Y86868
X11557Y81026
X7725Y92065
X7620Y96647
X10922Y96647
X7620Y91534
X7239Y95377
X10922Y95377
X8255Y91948
X8001Y97917
X10922Y97917
X8382Y86741
X4572Y86741
X10360Y91821
X13970Y101854
X9906Y91821
X12700Y101981
X9017Y87376
X8890Y91821
X6604Y91948
X6858Y97917
X6985Y91567
X6858Y96647
X12065Y103886
X8255Y105918
X13335Y103886
X9652Y105918
X2921Y80010
X4191Y96139
X14200Y89878
X15000Y106478
X31750Y102489
X27051Y93853
X28575Y94107
X32258Y94869
X34290Y94742
X36830Y94996
X36195Y97663
X36195Y100457
X35433Y101219
X35306Y106553
X28194Y106680
X26670Y109093
X29845Y107569
X36830Y108966
X28956Y96012
X30734Y87122
X33274Y85217
X30226Y85217
X30226Y82042
X27432Y81788
X27432Y79248
X37719Y81788
X36830Y79248
X36576Y83820
X26162Y89662
X30480Y88138
X30480Y90678
X33020Y90678
X31750Y88138
X31750Y89408
X30480Y89408
X33020Y89408
X31750Y90678
X30924Y102044
X33020Y105918
X37084Y106426
X30099Y105791
X29083Y107315
X34010Y106579
X35941Y85471
X36195Y88392
X31877Y86868
X31242Y82042
X34036Y91948
X32312Y91821
X27686Y93218
X29571Y88419
X36830Y95758
X32700Y99634
X33782Y86868
X33909Y82423
X36449Y101346
X33274Y86868
X32766Y86868
X37338Y89281
X29337Y88011
X29337Y87557
X29337Y89281
X29337Y88827
X36830Y88025
X34925Y85979
X34925Y81661
X34312Y86868
X34417Y81026
X30585Y92065
X30480Y96647
X33782Y96647
X30480Y91534
X30099Y95377
X33782Y95377
X31115Y91948
X30861Y97917
X33782Y97917
X31242Y86741
X27432Y86741
X33220Y91821
X36830Y101854
X32766Y91821
X35560Y101981
X48641Y-8890
X31750Y91821
X29464Y91948
X29718Y97917
X29845Y91567
X29718Y96647
X34925Y103886
X31115Y105918
X36195Y103886
X32512Y105918
X25781Y80010
X27051Y96139
X37060Y89878
X37860Y106478
X54610Y102489
X49911Y93853
X51435Y94107
X55118Y94869
X57150Y94742
X59690Y94996
X59055Y97663
X59055Y100457
X58293Y101219
X58166Y106553
X51054Y106680
X49530Y109093
X52705Y107569
X59690Y108966
X51816Y96012
X53594Y87122
X56134Y85217
X53086Y85217
X53086Y82042
X50292Y81788
X50292Y79248
X60579Y81788
X59690Y79248
X59436Y83820
X49022Y89662
X53340Y88138
X53340Y90678
X55880Y90678
X54610Y88138
X54610Y89408
X53340Y89408
X55880Y89408
X54610Y90678
X53784Y102044
X55880Y105918
X59944Y106426
X52959Y105791
X51943Y107315
X56870Y106579
X58801Y85471
X59055Y88392
X54737Y86868
X54102Y82042
X56896Y91948
X55172Y91821
X50546Y93218
X52431Y88419
X59690Y95758
X55560Y99634
X56642Y86868
X56769Y82423
X59309Y101346
X56134Y86868
X55626Y86868
X60198Y89281
X52197Y88011
X52197Y87557
X52197Y89281
X52197Y88827
X59690Y88025
X57785Y85979
X57785Y81661
X57172Y86868
X57277Y81026
X53445Y92065
X53340Y96647
X56642Y96647
X53340Y91534
X52959Y95377
X56642Y95377
X53975Y91948
X53721Y97917
X56642Y97917
X54102Y86741
X50292Y86741
X56080Y91821
X59690Y101854
X55626Y91821
X58420Y101981
X54737Y87376
X54610Y91821
X52324Y91948
X52578Y97917
X52705Y91567
X52578Y96647
X57785Y103886
X53975Y105918
X59055Y103886
X55372Y105918
X48641Y80010
X49911Y96139
X59920Y89878
X60720Y106478
X77470Y102489
X72771Y93853
X74295Y94107
X77978Y94869
X80010Y94742
X82550Y94996
X81915Y97663
X81915Y100457
X81153Y101219
X81026Y106553
X73914Y106680
X72390Y109093
X75565Y107569
X82550Y108966
X74676Y96012
X76454Y87122
X78994Y85217
X75946Y85217
X75946Y82042
X73152Y81788
X73152Y79248
X83439Y81788
X82550Y79248
X82296Y83820
X71882Y89662
X76200Y88138
X76200Y90678
X78740Y90678
X77470Y88138
X77470Y89408
X76200Y89408
X78740Y89408
X77470Y90678
X76645Y102044
X78740Y105918
X82804Y106426
X75819Y105791
X74803Y107315
X79730Y106579
X81661Y85471
X81915Y88392
X77597Y86868
X76962Y82042
X79756Y91948
X78032Y91821
X73406Y93218
X75291Y88419
X82550Y95758
X78420Y99634
X79502Y86868
X79629Y82423
X82169Y101346
X78994Y86868
X78486Y86868
X83058Y89281
X75057Y88011
X75057Y87557
X75057Y89281
X75057Y88827
X82550Y88025
X80645Y85979
X80645Y81661
X80032Y86868
X80137Y81026
X76305Y92065
X76200Y96647
X79502Y96647
X76200Y91534
X75819Y95377
X79502Y95377
X76835Y91948
X76581Y97917
X79502Y97917
X76962Y86741
X73152Y86741
X78940Y91821
X82550Y101854
X78486Y91821
X81280Y101981
X77597Y87376
X77470Y91821
X75184Y91948
X75438Y97917
X75565Y91567
X75438Y96647
X80645Y103886
X76835Y105918
X81915Y103886
X78232Y105918
X71501Y80010
X72771Y96139
X82780Y89878
X83580Y106478
X100330Y102489
X95631Y93853
X97155Y94107
X100838Y94869
X102870Y94742
X105410Y94996
X104775Y97663
X104775Y100457
X104013Y101219
X103886Y106553
X96774Y106680
X95250Y109093
X98425Y107569
X105410Y108966
X97536Y96012
X99314Y87122
X101854Y85217
X98806Y85217
X98806Y82042
X96012Y81788
X96012Y79248
X106299Y81788
X105410Y79248
X105156Y83820
X94742Y89662
X99060Y88138
X99060Y90678
X101600Y90678
X100330Y88138
X100330Y89408
X99060Y89408
X101600Y89408
X100330Y90678
X99504Y102044
X101600Y105918
X105664Y106426
X98679Y105791
X97663Y107315
X102590Y106579
X104521Y85471
X104775Y88392
X100457Y86868
X99822Y82042
X102616Y91948
X100892Y91821
X96266Y93218
X98151Y88419
X105410Y95758
X101280Y99634
X102362Y86868
X102489Y82423
X105029Y101346
X101854Y86868
X101346Y86868
X105918Y89281
X97917Y88011
X97917Y87557
X97917Y89281
X97917Y88827
X105410Y88025
X103505Y85979
X103505Y81661
X102892Y86868
X102997Y81026
X99165Y92065
X99060Y96647
X102362Y96647
X99060Y91534
X98679Y95377
X102362Y95377
X99695Y91948
X99441Y97917
X102362Y97917
X99822Y86741
X96012Y86741
X101800Y91821
X105410Y101854
X101346Y91821
X104140Y101981
X100457Y87376
X100330Y91821
X98044Y91948
X98298Y97917
X98425Y91567
X98298Y96647
X103505Y103886
X99695Y105918
X104775Y103886
X101092Y105918
X94361Y80010
X95631Y96139
X105640Y89878
X106440Y106478
X8890Y13589
X4191Y4953
X5715Y5207
X9398Y5969
X11430Y5842
X13970Y6096
X13335Y8763
X13335Y11557
X12573Y12319
X12446Y17653
X5334Y17780
X3810Y20193
X6985Y18669
X13970Y20066
X6096Y7112
X7874Y-1778
X10414Y-3683
X7366Y-3683
X7366Y-6858
X4572Y-7112
X4572Y-9652
X14859Y-7112
X13970Y-9652
X13716Y-5080
X3302Y762
X7620Y-762
X7620Y1778
X10160Y1778
X8890Y-762
X8890Y508
X7620Y508
X10160Y508
X8890Y1778
X8064Y13144
X10160Y17018
X14224Y17526
X7239Y16891
X6223Y18415
X11150Y17679
X13081Y-3429
X13335Y-508
X9017Y-2032
X8382Y-6858
X11176Y3048
X9452Y2921
X4826Y4318
X6711Y-481
X13970Y6858
X9840Y10734
X10922Y-2032
X11049Y-6477
X13589Y12446
X10414Y-2032
X9906Y-2032
X14478Y381
X6477Y-889
X6477Y-1343
X6477Y381
X6477Y-73
X13970Y-874
X12065Y-2921
X12065Y-7239
X11452Y-2032
X11557Y-7874
X7725Y3165
X7620Y7747
X10922Y7747
X7620Y2634
X7239Y6477
X10922Y6477
X8255Y3048
X8001Y9017
X10922Y9017
X8382Y-2159
X4572Y-2159
X10360Y2921
X13970Y12954
X9906Y2921
X12700Y13081
X9017Y-1524
X8890Y2921
X6604Y3048
X6858Y9017
X6985Y2667
X6858Y7747
X12065Y14986
X8255Y17018
X13335Y14986
X9652Y17018
X2921Y-8890
X4191Y7239
X14200Y978
X15000Y17578
X31750Y13589
X27051Y4953
X28575Y5207
X32258Y5969
X34290Y5842
X36830Y6096
X36195Y8763
X36195Y11557
X35433Y12319
X35306Y17653
X28194Y17780
X26670Y20193
X29845Y18669
X36830Y20066
X28956Y7112
X30734Y-1778
X33274Y-3683
X30226Y-3683
X30226Y-6858
X27432Y-7112
X27432Y-9652
X37719Y-7112
X36830Y-9652
X36576Y-5080
X26162Y762
X30480Y-762
X30480Y1778
X33020Y1778
X31750Y-762
X31750Y508
X30480Y508
X33020Y508
X31750Y1778
X30924Y13144
X33020Y17018
X37084Y17526
X30099Y16891
X29083Y18415
X34010Y17679
X35941Y-3429
X36195Y-508
X31877Y-2032
X31242Y-6858
X34036Y3048
X32312Y2921
X27686Y4318
X29571Y-481
X36830Y6858
X32700Y10734
X33782Y-2032
X33909Y-6477
X36449Y12446
X33274Y-2032
X32766Y-2032
X37338Y381
X29337Y-889
X29337Y-1343
X29337Y381
X29337Y-73
X36830Y-874
X34925Y-2921
X34925Y-7239
X34312Y-2032
X34417Y-7874
X30585Y3165
X30480Y7747
X33782Y7747
X30480Y2634
X30099Y6477
X33782Y6477
X31115Y3048
X30861Y9017
X33782Y9017
X31242Y-2159
X27432Y-2159
X33220Y2921
X36830Y12954
X32766Y2921
X35560Y13081
X31877Y-1524
X31750Y2921
X29464Y3048
X29718Y9017
X29845Y2667
X29718Y7747
X34925Y14986
X31115Y17018
X36195Y14986
X32512Y17018
X25781Y-8890
X27051Y7239
X37060Y978
X37860Y17578
X54610Y13589
X49911Y4953
X51435Y5207
X55118Y5969
X57150Y5842
X59690Y6096
X59055Y8763
X59055Y11557
X58293Y12319
X58166Y17653
X51054Y17780
X49530Y20193
X52705Y18669
X59690Y20066
X51816Y7112
X53594Y-1778
X56134Y-3683
X53086Y-3683
X53086Y-6858
X50292Y-7112
X50292Y-9652
X60579Y-7112
X59690Y-9652
X59436Y-5080
X49022Y762
X53340Y-762
X53340Y1778
X55880Y1778
X54610Y-762
X54610Y508
X53340Y508
X55880Y508
X54610Y1778
X53784Y13144
X55880Y17018
X59944Y17526
X52959Y16891
X51943Y18415
X56870Y17679
X58801Y-3429
X59055Y-508
X54737Y-2032
X54102Y-6858
X56896Y3048
X55172Y2921
X50546Y4318
X52431Y-481
X59690Y6858
X55560Y10734
X56642Y-2032
X56769Y-6477
X59309Y12446
X56134Y-2032
X55626Y-2032
X60198Y381
X52197Y-889
X52197Y-1343
X52197Y381
X52197Y-73
X59690Y-874
X57785Y-2921
X57785Y-7239
X57172Y-2032
X57277Y-7874
X53445Y3165
X53340Y7747
X56642Y7747
X53340Y2634
X52959Y6477
X56642Y6477
X53975Y3048
X53721Y9017
X56642Y9017
X54102Y-2159
X50292Y-2159
X56080Y2921
X59690Y12954
X55626Y2921
X58420Y13081
X54737Y-1524
X54610Y2921
X52324Y3048
X52578Y9017
X52705Y2667
X52578Y7747
X57785Y14986
X53975Y17018
X59055Y14986
X55372Y17018
X49911Y7239
X59920Y978
X60720Y17578
X77470Y13589
X72771Y4953
X74295Y5207
X77978Y5969
X80010Y5842
X82550Y6096
X81915Y8763
X81915Y11557
X81153Y12319
X81026Y17653
X73914Y17780
X72390Y20193
X75565Y18669
X82550Y20066
X74676Y7112
X76454Y-1778
X78994Y-3683
X75946Y-3683
X75946Y-6858
X73152Y-7112
X73152Y-9652
X83439Y-7112
X82550Y-9652
X82296Y-5080
X71882Y762
X76200Y-762
X76200Y1778
X78740Y1778
X77470Y-762
X77470Y508
X76200Y508
X78740Y508
X77470Y1778
X76645Y13144
X78740Y17018
X82804Y17526
X75819Y16891
X74803Y18415
X79730Y17679
X81661Y-3429
X81915Y-508
X77597Y-2032
X76962Y-6858
X79756Y3048
X78032Y2921
X73406Y4318
X75291Y-481
X82550Y6858
X78420Y10734
X79502Y-2032
X79629Y-6477
X82169Y12446
X78994Y-2032
X78486Y-2032
X83058Y381
X75057Y-889
X75057Y-1343
X75057Y381
X75057Y-73
X82550Y-874
X80645Y-2921
X80645Y-7239
X80032Y-2032
X80137Y-7874
X76305Y3165
X76200Y7747
X79502Y7747
X76200Y2634
X75819Y6477
X79502Y6477
X76835Y3048
X76581Y9017
X79502Y9017
X76962Y-2159
X73152Y-2159
X78940Y2921
X82550Y12954
X78486Y2921
X81280Y13081
X77597Y-1524
X77470Y2921
X75184Y3048
X75438Y9017
X75565Y2667
X75438Y7747
X80645Y14986
X76835Y17018
X81915Y14986
X78232Y17018
X71501Y-8890
X72771Y7239
X82780Y978
X83580Y17578
X100330Y13589
X95631Y4953
X97155Y5207
X100838Y5969
X102870Y5842
X105410Y6096
X104775Y8763
X104775Y11557
X104013Y12319
X103886Y17653
X96774Y17780
X95250Y20193
X98425Y18669
X105410Y20066
X97536Y7112
X99314Y-1778
X101854Y-3683
X98806Y-3683
X98806Y-6858
X96012Y-7112
X96012Y-9652
X106299Y-7112
X105410Y-9652
X105156Y-5080
X94742Y762
X99060Y-762
X99060Y1778
X101600Y1778
X100330Y-762
X100330Y508
X99060Y508
X101600Y508
X100330Y1778
X99504Y13144
X101600Y17018
X105664Y17526
X98679Y16891
X97663Y18415
X102590Y17679
X104521Y-3429
X104775Y-508
X100457Y-2032
X99822Y-6858
X102616Y3048
X100892Y2921
X96266Y4318
X98151Y-481
X105410Y6858
X101280Y10734
X102362Y-2032
X102489Y-6477
X105029Y12446
X101854Y-2032
X101346Y-2032
X105918Y381
X97917Y-889
X97917Y-1343
X97917Y381
X97917Y-73
X105410Y-874
X103505Y-2921
X103505Y-7239
X102892Y-2032
X102997Y-7874
X99165Y3165
X99060Y7747
X102362Y7747
X99060Y2634
X98679Y6477
X102362Y6477
X99695Y3048
X99441Y9017
X102362Y9017
X99822Y-2159
X96012Y-2159
X101800Y2921
X105410Y12954
X101346Y2921
X104140Y13081
X100457Y-1524
X100330Y2921
X98044Y3048
X98298Y9017
X98425Y2667
X98298Y7747
X103505Y14986
X99695Y17018
X104775Y14986
X101092Y17018
X94361Y-8890
X95631Y7239
X105640Y978
X106440Y17578
X8890Y58039
X4191Y49403
X5715Y49657
X9398Y50419
X11430Y50292
X13970Y50546
X13335Y53213
X13335Y56007
X12573Y56769
X12446Y62103
X5334Y62230
X3810Y64643
X6985Y63119
X13970Y64516
X6096Y51562
X7874Y42672
X10414Y40767
X7366Y40767
X7366Y37592
X4572Y37338
X4572Y34798
X14859Y37338
X13970Y34798
X13716Y39370
X3302Y45212
X7620Y43688
X7620Y46228
X10160Y46228
X8890Y43688
X8890Y44958
X7620Y44958
X10160Y44958
X8890Y46228
X8064Y57594
X10160Y61468
X14224Y61976
X7239Y61341
X6223Y62865
X11150Y62129
X13081Y41021
X13335Y43942
X9017Y42418
X8382Y37592
X11176Y47498
X9452Y47371
X4826Y48768
X6711Y43969
X13970Y51308
X9840Y55184
X10922Y42418
X11049Y37973
X13589Y56896
X10414Y42418
X9906Y42418
X14478Y44831
X6477Y43561
X6477Y43107
X6477Y44831
X6477Y44377
X13970Y43576
X12065Y41529
X12065Y37211
X11452Y42418
X11557Y36576
X7725Y47615
X7620Y52197
X10922Y52197
X7620Y47084
X7239Y50927
X10922Y50927
X31877Y87376
X8255Y47498
X8001Y53467
X10922Y53467
X8382Y42291
X4572Y42291
X10360Y47371
X13970Y57404
X9906Y47371
X12700Y57531
X9017Y42926
X8890Y47371
X6604Y47498
X6858Y53467
X6985Y47117
X6858Y52197
X12065Y59436
X8255Y61468
X13335Y59436
X9652Y61468
X2921Y35560
X4191Y51689
X14200Y45428
X15000Y62028
X31750Y58039
X27051Y49403
X28575Y49657
X32258Y50419
X34290Y50292
X36830Y50546
X36195Y53213
X36195Y56007
X35433Y56769
X35306Y62103
X28194Y62230
X26670Y64643
X29845Y63119
X36830Y64516
X28956Y51562
X30734Y42672
X33274Y40767
X30226Y40767
X30226Y37592
X27432Y37338
X27432Y34798
X37719Y37338
X36830Y34798
X36576Y39370
X26162Y45212
X30480Y43688
X30480Y46228
X33020Y46228
X31750Y43688
X31750Y44958
X30480Y44958
X33020Y44958
X31750Y46228
X30924Y57594
X33020Y61468
X37084Y61976
X30099Y61341
X29083Y62865
X34010Y62129
X35941Y41021
X36195Y43942
X31877Y42418
X31242Y37592
X34036Y47498
X32312Y47371
X27686Y48768
X29571Y43969
X36830Y51308
X32700Y55184
X33782Y42418
X33909Y37973
X36449Y56896
X33274Y42418
X32766Y42418
X37338Y44831
X29337Y43561
X29337Y43107
X29337Y44831
X29337Y44377
X36830Y43576
X34925Y41529
X34925Y37211
X34312Y42418
X34417Y36576
X30585Y47615
X30480Y52197
X33782Y52197
X30480Y47084
X30099Y50927
X33782Y50927
X31115Y47498
X30861Y53467
X33782Y53467
X31242Y42291
X27432Y42291
X33220Y47371
X36830Y57404
X32766Y47371
X35560Y57531
X31877Y42926
X31750Y47371
X29464Y47498
X29718Y53467
X29845Y47117
X29718Y52197
X34925Y59436
X31115Y61468
X36195Y59436
X32512Y61468
X25781Y35560
X27051Y51689
X37060Y45428
X37860Y62028
X54610Y58039
X49911Y49403
X51435Y49657
X55118Y50419
X57150Y50292
X59690Y50546
X59055Y53213
X59055Y56007
X58293Y56769
X58166Y62103
X51054Y62230
X49530Y64643
X52705Y63119
X59690Y64516
X51816Y51562
X53594Y42672
X56134Y40767
X53086Y40767
X53086Y37592
X50292Y37338
X50292Y34798
X60579Y37338
X59690Y34798
X59436Y39370
X49022Y45212
X53340Y43688
X53340Y46228
X55880Y46228
X54610Y43688
X54610Y44958
X53340Y44958
X55880Y44958
X54610Y46228
X53784Y57594
X55880Y61468
X59944Y61976
X52959Y61341
X51943Y62865
X56870Y62129
X58801Y41021
X59055Y43942
X54737Y42418
X54102Y37592
X56896Y47498
X55172Y47371
X50546Y48768
X52431Y43969
X59690Y51308
X55560Y55184
X56642Y42418
X56769Y37973
X59309Y56896
X56134Y42418
X55626Y42418
X60198Y44831
X52197Y43561
X52197Y43107
X52197Y44831
X52197Y44377
X59690Y43576
X57785Y41529
X57785Y37211
X57172Y42418
X57277Y36576
X53445Y47615
X53340Y52197
X56642Y52197
X53340Y47084
X52959Y50927
X56642Y50927
X53975Y47498
X53721Y53467
X56642Y53467
X54102Y42291
X50292Y42291
X56080Y47371
X59690Y57404
X55626Y47371
X58420Y57531
X54737Y42926
X54610Y47371
X52324Y47498
X52578Y53467
X52705Y47117
X52578Y52197
X57785Y59436
X53975Y61468
X59055Y59436
X55372Y61468
X48641Y35560
X49911Y51689
X59920Y45428
X60720Y62028
X77470Y58039
X72771Y49403
X74295Y49657
X77978Y50419
X80010Y50292
X82550Y50546
X81915Y53213
X81915Y56007
X81153Y56769
X81026Y62103
X73914Y62230
X72390Y64643
X75565Y63119
X82550Y64516
X74676Y51562
X76454Y42672
X78994Y40767
X75946Y40767
X75946Y37592
X73152Y37338
X73152Y34798
X83439Y37338
X82550Y34798
X82296Y39370
X71882Y45212
X76200Y43688
X76200Y46228
X78740Y46228
X77470Y43688
X77470Y44958
X76200Y44958
X78740Y44958
X77470Y46228
X76645Y57594
X78740Y61468
X82804Y61976
X75819Y61341
X74803Y62865
X79730Y62129
X81661Y41021
X81915Y43942
X77597Y42418
X76962Y37592
X79756Y47498
X78032Y47371
X73406Y48768
X75291Y43969
X82550Y51308
X78420Y55184
X79502Y42418
X79629Y37973
X82169Y56896
X78994Y42418
X78486Y42418
X83058Y44831
X75057Y43561
X75057Y43107
X75057Y44831
X75057Y44377
X82550Y43576
X80645Y41529
X80645Y37211
X80032Y42418
X80137Y36576
X76305Y47615
X76200Y52197
M30