G04 EAGLE Gerber RS-274X export*
G75*
%MOMM*%
%FSLAX34Y34*%
%LPD*%
%INSolderpaste Top*%
%IPPOS*%
%AMOC8*
5,1,8,0,0,1.08239X$1,22.5*%
G01*
%ADD10R,0.600000X0.600000*%
%ADD11C,0.300000*%
%ADD12R,1.200000X0.800000*%
%ADD13R,0.830000X0.630000*%
%ADD14R,0.550000X1.200000*%
%ADD15R,1.000000X0.900000*%
%ADD16R,1.200000X2.000000*%
%ADD17R,0.600000X1.350000*%
%ADD18R,0.300000X1.000000*%
%ADD19R,0.600000X1.000000*%
%ADD20R,0.650000X0.200000*%
%ADD21R,0.200000X0.650000*%
%ADD22R,1.200000X1.100000*%
%ADD23R,0.850000X0.500000*%
%ADD24R,0.800000X0.800000*%
%ADD25R,0.700000X0.700000*%

G36*
X960304Y1044935D02*
X960304Y1044935D01*
X960307Y1044931D01*
X961415Y1045101D01*
X961421Y1045107D01*
X961426Y1045104D01*
X962468Y1045516D01*
X962472Y1045523D01*
X962477Y1045521D01*
X963402Y1046155D01*
X963404Y1046163D01*
X963410Y1046162D01*
X964170Y1046986D01*
X964171Y1046994D01*
X964177Y1046994D01*
X964734Y1047966D01*
X964734Y1047970D01*
X964735Y1047971D01*
X964733Y1047973D01*
X964733Y1047974D01*
X964739Y1047976D01*
X965066Y1049048D01*
X965065Y1049053D01*
X965067Y1049054D01*
X965065Y1049057D01*
X965068Y1049059D01*
X965149Y1050176D01*
X965148Y1050179D01*
X965149Y1050180D01*
X965149Y1062180D01*
X965144Y1062187D01*
X965148Y1062191D01*
X964929Y1063135D01*
X964923Y1063141D01*
X964925Y1063146D01*
X964502Y1064018D01*
X964494Y1064021D01*
X964496Y1064027D01*
X963889Y1064783D01*
X963881Y1064785D01*
X963881Y1064791D01*
X963121Y1065392D01*
X963112Y1065392D01*
X963111Y1065398D01*
X962236Y1065816D01*
X962228Y1065814D01*
X962226Y1065819D01*
X961280Y1066032D01*
X961273Y1066028D01*
X961269Y1066033D01*
X960300Y1066029D01*
X960299Y1066029D01*
X959231Y1066010D01*
X959230Y1066010D01*
X959224Y1066006D01*
X959220Y1066009D01*
X958183Y1065753D01*
X958178Y1065746D01*
X958172Y1065749D01*
X957218Y1065268D01*
X957215Y1065261D01*
X957209Y1065262D01*
X956386Y1064581D01*
X956384Y1064573D01*
X956378Y1064573D01*
X955727Y1063726D01*
X955727Y1063718D01*
X955721Y1063717D01*
X955274Y1062746D01*
X955276Y1062738D01*
X955271Y1062736D01*
X955052Y1061690D01*
X955055Y1061683D01*
X955051Y1061680D01*
X955051Y1049680D01*
X955054Y1049675D01*
X955051Y1049672D01*
X955231Y1048577D01*
X955237Y1048571D01*
X955234Y1048566D01*
X955653Y1047538D01*
X955660Y1047534D01*
X955658Y1047529D01*
X956296Y1046620D01*
X956303Y1046618D01*
X956303Y1046612D01*
X957126Y1045868D01*
X957134Y1045867D01*
X957135Y1045861D01*
X958103Y1045319D01*
X958112Y1045320D01*
X958114Y1045314D01*
X959178Y1045001D01*
X959186Y1045004D01*
X959189Y1044999D01*
X960297Y1044931D01*
X960304Y1044935D01*
G37*
G36*
X503104Y155935D02*
X503104Y155935D01*
X503107Y155931D01*
X504215Y156101D01*
X504221Y156107D01*
X504226Y156104D01*
X505268Y156516D01*
X505272Y156523D01*
X505277Y156521D01*
X506202Y157155D01*
X506204Y157163D01*
X506210Y157162D01*
X506970Y157986D01*
X506971Y157994D01*
X506977Y157994D01*
X507534Y158966D01*
X507534Y158970D01*
X507535Y158971D01*
X507533Y158973D01*
X507533Y158974D01*
X507539Y158976D01*
X507866Y160048D01*
X507865Y160053D01*
X507867Y160054D01*
X507865Y160057D01*
X507868Y160059D01*
X507949Y161176D01*
X507948Y161179D01*
X507949Y161180D01*
X507949Y173180D01*
X507944Y173187D01*
X507948Y173191D01*
X507729Y174135D01*
X507723Y174141D01*
X507725Y174146D01*
X507302Y175018D01*
X507294Y175021D01*
X507296Y175027D01*
X506689Y175783D01*
X506681Y175785D01*
X506681Y175791D01*
X505921Y176392D01*
X505912Y176392D01*
X505911Y176398D01*
X505036Y176816D01*
X505028Y176814D01*
X505026Y176819D01*
X504080Y177032D01*
X504073Y177028D01*
X504069Y177033D01*
X503100Y177029D01*
X503099Y177029D01*
X502031Y177010D01*
X502030Y177010D01*
X502024Y177006D01*
X502020Y177009D01*
X500983Y176753D01*
X500978Y176746D01*
X500972Y176749D01*
X500018Y176268D01*
X500015Y176261D01*
X500009Y176262D01*
X499186Y175581D01*
X499184Y175573D01*
X499178Y175573D01*
X498527Y174726D01*
X498527Y174718D01*
X498521Y174717D01*
X498074Y173746D01*
X498076Y173738D01*
X498071Y173736D01*
X497852Y172690D01*
X497855Y172683D01*
X497851Y172680D01*
X497851Y160680D01*
X497854Y160675D01*
X497851Y160672D01*
X498031Y159577D01*
X498037Y159571D01*
X498034Y159566D01*
X498453Y158538D01*
X498460Y158534D01*
X498458Y158529D01*
X499096Y157620D01*
X499103Y157618D01*
X499103Y157612D01*
X499926Y156868D01*
X499934Y156867D01*
X499935Y156861D01*
X500903Y156319D01*
X500912Y156320D01*
X500914Y156314D01*
X501978Y156001D01*
X501986Y156004D01*
X501989Y155999D01*
X503097Y155931D01*
X503104Y155935D01*
G37*
G36*
X45904Y600435D02*
X45904Y600435D01*
X45907Y600431D01*
X47015Y600601D01*
X47021Y600607D01*
X47026Y600604D01*
X48068Y601016D01*
X48072Y601023D01*
X48077Y601021D01*
X49002Y601655D01*
X49004Y601663D01*
X49010Y601662D01*
X49770Y602486D01*
X49771Y602494D01*
X49777Y602494D01*
X50334Y603466D01*
X50334Y603470D01*
X50335Y603471D01*
X50333Y603473D01*
X50333Y603474D01*
X50339Y603476D01*
X50666Y604548D01*
X50665Y604553D01*
X50667Y604554D01*
X50665Y604557D01*
X50668Y604559D01*
X50749Y605676D01*
X50748Y605679D01*
X50749Y605680D01*
X50749Y617680D01*
X50744Y617687D01*
X50748Y617691D01*
X50529Y618635D01*
X50523Y618641D01*
X50525Y618646D01*
X50102Y619518D01*
X50094Y619521D01*
X50096Y619527D01*
X49489Y620283D01*
X49481Y620285D01*
X49481Y620291D01*
X48721Y620892D01*
X48712Y620892D01*
X48711Y620898D01*
X47836Y621316D01*
X47828Y621314D01*
X47826Y621319D01*
X46880Y621532D01*
X46873Y621528D01*
X46869Y621533D01*
X45900Y621529D01*
X45899Y621529D01*
X44831Y621510D01*
X44830Y621510D01*
X44824Y621506D01*
X44820Y621509D01*
X43783Y621253D01*
X43778Y621246D01*
X43772Y621249D01*
X42818Y620768D01*
X42815Y620761D01*
X42809Y620762D01*
X41986Y620081D01*
X41984Y620073D01*
X41978Y620073D01*
X41327Y619226D01*
X41327Y619218D01*
X41321Y619217D01*
X40874Y618246D01*
X40876Y618238D01*
X40871Y618236D01*
X40652Y617190D01*
X40655Y617183D01*
X40651Y617180D01*
X40651Y605180D01*
X40654Y605175D01*
X40651Y605172D01*
X40831Y604077D01*
X40837Y604071D01*
X40834Y604066D01*
X41253Y603038D01*
X41260Y603034D01*
X41258Y603029D01*
X41896Y602120D01*
X41903Y602118D01*
X41903Y602112D01*
X42726Y601368D01*
X42734Y601367D01*
X42735Y601361D01*
X43703Y600819D01*
X43712Y600820D01*
X43714Y600814D01*
X44778Y600501D01*
X44786Y600504D01*
X44789Y600499D01*
X45897Y600431D01*
X45904Y600435D01*
G37*
G36*
X960304Y600435D02*
X960304Y600435D01*
X960307Y600431D01*
X961415Y600601D01*
X961421Y600607D01*
X961426Y600604D01*
X962468Y601016D01*
X962472Y601023D01*
X962477Y601021D01*
X963402Y601655D01*
X963404Y601663D01*
X963410Y601662D01*
X964170Y602486D01*
X964171Y602494D01*
X964177Y602494D01*
X964734Y603466D01*
X964734Y603470D01*
X964735Y603471D01*
X964733Y603473D01*
X964733Y603474D01*
X964739Y603476D01*
X965066Y604548D01*
X965065Y604553D01*
X965067Y604554D01*
X965065Y604557D01*
X965068Y604559D01*
X965149Y605676D01*
X965148Y605679D01*
X965149Y605680D01*
X965149Y617680D01*
X965144Y617687D01*
X965148Y617691D01*
X964929Y618635D01*
X964923Y618641D01*
X964925Y618646D01*
X964502Y619518D01*
X964494Y619521D01*
X964496Y619527D01*
X963889Y620283D01*
X963881Y620285D01*
X963881Y620291D01*
X963121Y620892D01*
X963112Y620892D01*
X963111Y620898D01*
X962236Y621316D01*
X962228Y621314D01*
X962226Y621319D01*
X961280Y621532D01*
X961273Y621528D01*
X961269Y621533D01*
X960300Y621529D01*
X960299Y621529D01*
X959231Y621510D01*
X959230Y621510D01*
X959224Y621506D01*
X959220Y621509D01*
X958183Y621253D01*
X958178Y621246D01*
X958172Y621249D01*
X957218Y620768D01*
X957215Y620761D01*
X957209Y620762D01*
X956386Y620081D01*
X956384Y620073D01*
X956378Y620073D01*
X955727Y619226D01*
X955727Y619218D01*
X955721Y619217D01*
X955274Y618246D01*
X955276Y618238D01*
X955271Y618236D01*
X955052Y617190D01*
X955055Y617183D01*
X955051Y617180D01*
X955051Y605180D01*
X955054Y605175D01*
X955051Y605172D01*
X955231Y604077D01*
X955237Y604071D01*
X955234Y604066D01*
X955653Y603038D01*
X955660Y603034D01*
X955658Y603029D01*
X956296Y602120D01*
X956303Y602118D01*
X956303Y602112D01*
X957126Y601368D01*
X957134Y601367D01*
X957135Y601361D01*
X958103Y600819D01*
X958112Y600820D01*
X958114Y600814D01*
X959178Y600501D01*
X959186Y600504D01*
X959189Y600499D01*
X960297Y600431D01*
X960304Y600435D01*
G37*
G36*
X274504Y600435D02*
X274504Y600435D01*
X274507Y600431D01*
X275615Y600601D01*
X275621Y600607D01*
X275626Y600604D01*
X276668Y601016D01*
X276672Y601023D01*
X276677Y601021D01*
X277602Y601655D01*
X277604Y601663D01*
X277610Y601662D01*
X278370Y602486D01*
X278371Y602494D01*
X278377Y602494D01*
X278934Y603466D01*
X278934Y603470D01*
X278935Y603471D01*
X278933Y603473D01*
X278933Y603474D01*
X278939Y603476D01*
X279266Y604548D01*
X279265Y604553D01*
X279267Y604554D01*
X279265Y604557D01*
X279268Y604559D01*
X279349Y605676D01*
X279348Y605679D01*
X279349Y605680D01*
X279349Y617680D01*
X279344Y617687D01*
X279348Y617691D01*
X279129Y618635D01*
X279123Y618641D01*
X279125Y618646D01*
X278702Y619518D01*
X278694Y619521D01*
X278696Y619527D01*
X278089Y620283D01*
X278081Y620285D01*
X278081Y620291D01*
X277321Y620892D01*
X277312Y620892D01*
X277311Y620898D01*
X276436Y621316D01*
X276428Y621314D01*
X276426Y621319D01*
X275480Y621532D01*
X275473Y621528D01*
X275469Y621533D01*
X274500Y621529D01*
X274499Y621529D01*
X273431Y621510D01*
X273430Y621510D01*
X273424Y621506D01*
X273420Y621509D01*
X272383Y621253D01*
X272378Y621246D01*
X272372Y621249D01*
X271418Y620768D01*
X271415Y620761D01*
X271409Y620762D01*
X270586Y620081D01*
X270584Y620073D01*
X270578Y620073D01*
X269927Y619226D01*
X269927Y619218D01*
X269921Y619217D01*
X269474Y618246D01*
X269476Y618238D01*
X269471Y618236D01*
X269252Y617190D01*
X269255Y617183D01*
X269251Y617180D01*
X269251Y605180D01*
X269254Y605175D01*
X269251Y605172D01*
X269431Y604077D01*
X269437Y604071D01*
X269434Y604066D01*
X269853Y603038D01*
X269860Y603034D01*
X269858Y603029D01*
X270496Y602120D01*
X270503Y602118D01*
X270503Y602112D01*
X271326Y601368D01*
X271334Y601367D01*
X271335Y601361D01*
X272303Y600819D01*
X272312Y600820D01*
X272314Y600814D01*
X273378Y600501D01*
X273386Y600504D01*
X273389Y600499D01*
X274497Y600431D01*
X274504Y600435D01*
G37*
G36*
X503104Y600435D02*
X503104Y600435D01*
X503107Y600431D01*
X504215Y600601D01*
X504221Y600607D01*
X504226Y600604D01*
X505268Y601016D01*
X505272Y601023D01*
X505277Y601021D01*
X506202Y601655D01*
X506204Y601663D01*
X506210Y601662D01*
X506970Y602486D01*
X506971Y602494D01*
X506977Y602494D01*
X507534Y603466D01*
X507534Y603470D01*
X507535Y603471D01*
X507533Y603473D01*
X507533Y603474D01*
X507539Y603476D01*
X507866Y604548D01*
X507865Y604553D01*
X507867Y604554D01*
X507865Y604557D01*
X507868Y604559D01*
X507949Y605676D01*
X507948Y605679D01*
X507949Y605680D01*
X507949Y617680D01*
X507944Y617687D01*
X507948Y617691D01*
X507729Y618635D01*
X507723Y618641D01*
X507725Y618646D01*
X507302Y619518D01*
X507294Y619521D01*
X507296Y619527D01*
X506689Y620283D01*
X506681Y620285D01*
X506681Y620291D01*
X505921Y620892D01*
X505912Y620892D01*
X505911Y620898D01*
X505036Y621316D01*
X505028Y621314D01*
X505026Y621319D01*
X504080Y621532D01*
X504073Y621528D01*
X504069Y621533D01*
X503100Y621529D01*
X503099Y621529D01*
X502031Y621510D01*
X502030Y621510D01*
X502024Y621506D01*
X502020Y621509D01*
X500983Y621253D01*
X500978Y621246D01*
X500972Y621249D01*
X500018Y620768D01*
X500015Y620761D01*
X500009Y620762D01*
X499186Y620081D01*
X499184Y620073D01*
X499178Y620073D01*
X498527Y619226D01*
X498527Y619218D01*
X498521Y619217D01*
X498074Y618246D01*
X498076Y618238D01*
X498071Y618236D01*
X497852Y617190D01*
X497855Y617183D01*
X497851Y617180D01*
X497851Y605180D01*
X497854Y605175D01*
X497851Y605172D01*
X498031Y604077D01*
X498037Y604071D01*
X498034Y604066D01*
X498453Y603038D01*
X498460Y603034D01*
X498458Y603029D01*
X499096Y602120D01*
X499103Y602118D01*
X499103Y602112D01*
X499926Y601368D01*
X499934Y601367D01*
X499935Y601361D01*
X500903Y600819D01*
X500912Y600820D01*
X500914Y600814D01*
X501978Y600501D01*
X501986Y600504D01*
X501989Y600499D01*
X503097Y600431D01*
X503104Y600435D01*
G37*
G36*
X960304Y155935D02*
X960304Y155935D01*
X960307Y155931D01*
X961415Y156101D01*
X961421Y156107D01*
X961426Y156104D01*
X962468Y156516D01*
X962472Y156523D01*
X962477Y156521D01*
X963402Y157155D01*
X963404Y157163D01*
X963410Y157162D01*
X964170Y157986D01*
X964171Y157994D01*
X964177Y157994D01*
X964734Y158966D01*
X964734Y158970D01*
X964735Y158971D01*
X964733Y158973D01*
X964733Y158974D01*
X964739Y158976D01*
X965066Y160048D01*
X965065Y160053D01*
X965067Y160054D01*
X965065Y160057D01*
X965068Y160059D01*
X965149Y161176D01*
X965148Y161179D01*
X965149Y161180D01*
X965149Y173180D01*
X965144Y173187D01*
X965148Y173191D01*
X964929Y174135D01*
X964923Y174141D01*
X964925Y174146D01*
X964502Y175018D01*
X964494Y175021D01*
X964496Y175027D01*
X963889Y175783D01*
X963881Y175785D01*
X963881Y175791D01*
X963121Y176392D01*
X963112Y176392D01*
X963111Y176398D01*
X962236Y176816D01*
X962228Y176814D01*
X962226Y176819D01*
X961280Y177032D01*
X961273Y177028D01*
X961269Y177033D01*
X960300Y177029D01*
X960299Y177029D01*
X959231Y177010D01*
X959230Y177010D01*
X959224Y177006D01*
X959220Y177009D01*
X958183Y176753D01*
X958178Y176746D01*
X958172Y176749D01*
X957218Y176268D01*
X957215Y176261D01*
X957209Y176262D01*
X956386Y175581D01*
X956384Y175573D01*
X956378Y175573D01*
X955727Y174726D01*
X955727Y174718D01*
X955721Y174717D01*
X955274Y173746D01*
X955276Y173738D01*
X955271Y173736D01*
X955052Y172690D01*
X955055Y172683D01*
X955051Y172680D01*
X955051Y160680D01*
X955054Y160675D01*
X955051Y160672D01*
X955231Y159577D01*
X955237Y159571D01*
X955234Y159566D01*
X955653Y158538D01*
X955660Y158534D01*
X955658Y158529D01*
X956296Y157620D01*
X956303Y157618D01*
X956303Y157612D01*
X957126Y156868D01*
X957134Y156867D01*
X957135Y156861D01*
X958103Y156319D01*
X958112Y156320D01*
X958114Y156314D01*
X959178Y156001D01*
X959186Y156004D01*
X959189Y155999D01*
X960297Y155931D01*
X960304Y155935D01*
G37*
G36*
X45904Y155935D02*
X45904Y155935D01*
X45907Y155931D01*
X47015Y156101D01*
X47021Y156107D01*
X47026Y156104D01*
X48068Y156516D01*
X48072Y156523D01*
X48077Y156521D01*
X49002Y157155D01*
X49004Y157163D01*
X49010Y157162D01*
X49770Y157986D01*
X49771Y157994D01*
X49777Y157994D01*
X50334Y158966D01*
X50334Y158970D01*
X50335Y158971D01*
X50333Y158973D01*
X50333Y158974D01*
X50339Y158976D01*
X50666Y160048D01*
X50665Y160053D01*
X50667Y160054D01*
X50665Y160057D01*
X50668Y160059D01*
X50749Y161176D01*
X50748Y161179D01*
X50749Y161180D01*
X50749Y173180D01*
X50744Y173187D01*
X50748Y173191D01*
X50529Y174135D01*
X50523Y174141D01*
X50525Y174146D01*
X50102Y175018D01*
X50094Y175021D01*
X50096Y175027D01*
X49489Y175783D01*
X49481Y175785D01*
X49481Y175791D01*
X48721Y176392D01*
X48712Y176392D01*
X48711Y176398D01*
X47836Y176816D01*
X47828Y176814D01*
X47826Y176819D01*
X46880Y177032D01*
X46873Y177028D01*
X46869Y177033D01*
X45900Y177029D01*
X45899Y177029D01*
X44831Y177010D01*
X44830Y177010D01*
X44824Y177006D01*
X44820Y177009D01*
X43783Y176753D01*
X43778Y176746D01*
X43772Y176749D01*
X42818Y176268D01*
X42815Y176261D01*
X42809Y176262D01*
X41986Y175581D01*
X41984Y175573D01*
X41978Y175573D01*
X41327Y174726D01*
X41327Y174718D01*
X41321Y174717D01*
X40874Y173746D01*
X40876Y173738D01*
X40871Y173736D01*
X40652Y172690D01*
X40655Y172683D01*
X40651Y172680D01*
X40651Y160680D01*
X40654Y160675D01*
X40651Y160672D01*
X40831Y159577D01*
X40837Y159571D01*
X40834Y159566D01*
X41253Y158538D01*
X41260Y158534D01*
X41258Y158529D01*
X41896Y157620D01*
X41903Y157618D01*
X41903Y157612D01*
X42726Y156868D01*
X42734Y156867D01*
X42735Y156861D01*
X43703Y156319D01*
X43712Y156320D01*
X43714Y156314D01*
X44778Y156001D01*
X44786Y156004D01*
X44789Y155999D01*
X45897Y155931D01*
X45904Y155935D01*
G37*
G36*
X731704Y155935D02*
X731704Y155935D01*
X731707Y155931D01*
X732815Y156101D01*
X732821Y156107D01*
X732826Y156104D01*
X733868Y156516D01*
X733872Y156523D01*
X733877Y156521D01*
X734802Y157155D01*
X734804Y157163D01*
X734810Y157162D01*
X735570Y157986D01*
X735571Y157994D01*
X735577Y157994D01*
X736134Y158966D01*
X736134Y158970D01*
X736135Y158971D01*
X736133Y158973D01*
X736133Y158974D01*
X736139Y158976D01*
X736466Y160048D01*
X736465Y160053D01*
X736467Y160054D01*
X736465Y160057D01*
X736468Y160059D01*
X736549Y161176D01*
X736548Y161179D01*
X736549Y161180D01*
X736549Y173180D01*
X736544Y173187D01*
X736548Y173191D01*
X736329Y174135D01*
X736323Y174141D01*
X736325Y174146D01*
X735902Y175018D01*
X735894Y175021D01*
X735896Y175027D01*
X735289Y175783D01*
X735281Y175785D01*
X735281Y175791D01*
X734521Y176392D01*
X734512Y176392D01*
X734511Y176398D01*
X733636Y176816D01*
X733628Y176814D01*
X733626Y176819D01*
X732680Y177032D01*
X732673Y177028D01*
X732669Y177033D01*
X731700Y177029D01*
X731699Y177029D01*
X730631Y177010D01*
X730630Y177010D01*
X730624Y177006D01*
X730620Y177009D01*
X729583Y176753D01*
X729578Y176746D01*
X729572Y176749D01*
X728618Y176268D01*
X728615Y176261D01*
X728609Y176262D01*
X727786Y175581D01*
X727784Y175573D01*
X727778Y175573D01*
X727127Y174726D01*
X727127Y174718D01*
X727121Y174717D01*
X726674Y173746D01*
X726676Y173738D01*
X726671Y173736D01*
X726452Y172690D01*
X726455Y172683D01*
X726451Y172680D01*
X726451Y160680D01*
X726454Y160675D01*
X726451Y160672D01*
X726631Y159577D01*
X726637Y159571D01*
X726634Y159566D01*
X727053Y158538D01*
X727060Y158534D01*
X727058Y158529D01*
X727696Y157620D01*
X727703Y157618D01*
X727703Y157612D01*
X728526Y156868D01*
X728534Y156867D01*
X728535Y156861D01*
X729503Y156319D01*
X729512Y156320D01*
X729514Y156314D01*
X730578Y156001D01*
X730586Y156004D01*
X730589Y155999D01*
X731697Y155931D01*
X731704Y155935D01*
G37*
G36*
X731704Y600435D02*
X731704Y600435D01*
X731707Y600431D01*
X732815Y600601D01*
X732821Y600607D01*
X732826Y600604D01*
X733868Y601016D01*
X733872Y601023D01*
X733877Y601021D01*
X734802Y601655D01*
X734804Y601663D01*
X734810Y601662D01*
X735570Y602486D01*
X735571Y602494D01*
X735577Y602494D01*
X736134Y603466D01*
X736134Y603470D01*
X736135Y603471D01*
X736133Y603473D01*
X736133Y603474D01*
X736139Y603476D01*
X736466Y604548D01*
X736465Y604553D01*
X736467Y604554D01*
X736465Y604557D01*
X736468Y604559D01*
X736549Y605676D01*
X736548Y605679D01*
X736549Y605680D01*
X736549Y617680D01*
X736544Y617687D01*
X736548Y617691D01*
X736329Y618635D01*
X736323Y618641D01*
X736325Y618646D01*
X735902Y619518D01*
X735894Y619521D01*
X735896Y619527D01*
X735289Y620283D01*
X735281Y620285D01*
X735281Y620291D01*
X734521Y620892D01*
X734512Y620892D01*
X734511Y620898D01*
X733636Y621316D01*
X733628Y621314D01*
X733626Y621319D01*
X732680Y621532D01*
X732673Y621528D01*
X732669Y621533D01*
X731700Y621529D01*
X731699Y621529D01*
X730631Y621510D01*
X730630Y621510D01*
X730624Y621506D01*
X730620Y621509D01*
X729583Y621253D01*
X729578Y621246D01*
X729572Y621249D01*
X728618Y620768D01*
X728615Y620761D01*
X728609Y620762D01*
X727786Y620081D01*
X727784Y620073D01*
X727778Y620073D01*
X727127Y619226D01*
X727127Y619218D01*
X727121Y619217D01*
X726674Y618246D01*
X726676Y618238D01*
X726671Y618236D01*
X726452Y617190D01*
X726455Y617183D01*
X726451Y617180D01*
X726451Y605180D01*
X726454Y605175D01*
X726451Y605172D01*
X726631Y604077D01*
X726637Y604071D01*
X726634Y604066D01*
X727053Y603038D01*
X727060Y603034D01*
X727058Y603029D01*
X727696Y602120D01*
X727703Y602118D01*
X727703Y602112D01*
X728526Y601368D01*
X728534Y601367D01*
X728535Y601361D01*
X729503Y600819D01*
X729512Y600820D01*
X729514Y600814D01*
X730578Y600501D01*
X730586Y600504D01*
X730589Y600499D01*
X731697Y600431D01*
X731704Y600435D01*
G37*
G36*
X503104Y1044935D02*
X503104Y1044935D01*
X503107Y1044931D01*
X504215Y1045101D01*
X504221Y1045107D01*
X504226Y1045104D01*
X505268Y1045516D01*
X505272Y1045523D01*
X505277Y1045521D01*
X506202Y1046155D01*
X506204Y1046163D01*
X506210Y1046162D01*
X506970Y1046986D01*
X506971Y1046994D01*
X506977Y1046994D01*
X507534Y1047966D01*
X507534Y1047970D01*
X507535Y1047971D01*
X507533Y1047973D01*
X507533Y1047974D01*
X507539Y1047976D01*
X507866Y1049048D01*
X507865Y1049053D01*
X507867Y1049054D01*
X507865Y1049057D01*
X507868Y1049059D01*
X507949Y1050176D01*
X507948Y1050179D01*
X507949Y1050180D01*
X507949Y1062180D01*
X507944Y1062187D01*
X507948Y1062191D01*
X507729Y1063135D01*
X507723Y1063141D01*
X507725Y1063146D01*
X507302Y1064018D01*
X507294Y1064021D01*
X507296Y1064027D01*
X506689Y1064783D01*
X506681Y1064785D01*
X506681Y1064791D01*
X505921Y1065392D01*
X505912Y1065392D01*
X505911Y1065398D01*
X505036Y1065816D01*
X505028Y1065814D01*
X505026Y1065819D01*
X504080Y1066032D01*
X504073Y1066028D01*
X504069Y1066033D01*
X503100Y1066029D01*
X503099Y1066029D01*
X502031Y1066010D01*
X502030Y1066010D01*
X502024Y1066006D01*
X502020Y1066009D01*
X500983Y1065753D01*
X500978Y1065746D01*
X500972Y1065749D01*
X500018Y1065268D01*
X500015Y1065261D01*
X500009Y1065262D01*
X499186Y1064581D01*
X499184Y1064573D01*
X499178Y1064573D01*
X498527Y1063726D01*
X498527Y1063718D01*
X498521Y1063717D01*
X498074Y1062746D01*
X498076Y1062738D01*
X498071Y1062736D01*
X497852Y1061690D01*
X497855Y1061683D01*
X497851Y1061680D01*
X497851Y1049680D01*
X497854Y1049675D01*
X497851Y1049672D01*
X498031Y1048577D01*
X498037Y1048571D01*
X498034Y1048566D01*
X498453Y1047538D01*
X498460Y1047534D01*
X498458Y1047529D01*
X499096Y1046620D01*
X499103Y1046618D01*
X499103Y1046612D01*
X499926Y1045868D01*
X499934Y1045867D01*
X499935Y1045861D01*
X500903Y1045319D01*
X500912Y1045320D01*
X500914Y1045314D01*
X501978Y1045001D01*
X501986Y1045004D01*
X501989Y1044999D01*
X503097Y1044931D01*
X503104Y1044935D01*
G37*
G36*
X274504Y1044935D02*
X274504Y1044935D01*
X274507Y1044931D01*
X275615Y1045101D01*
X275621Y1045107D01*
X275626Y1045104D01*
X276668Y1045516D01*
X276672Y1045523D01*
X276677Y1045521D01*
X277602Y1046155D01*
X277604Y1046163D01*
X277610Y1046162D01*
X278370Y1046986D01*
X278371Y1046994D01*
X278377Y1046994D01*
X278934Y1047966D01*
X278934Y1047970D01*
X278935Y1047971D01*
X278933Y1047973D01*
X278933Y1047974D01*
X278939Y1047976D01*
X279266Y1049048D01*
X279265Y1049053D01*
X279267Y1049054D01*
X279265Y1049057D01*
X279268Y1049059D01*
X279349Y1050176D01*
X279348Y1050179D01*
X279349Y1050180D01*
X279349Y1062180D01*
X279344Y1062187D01*
X279348Y1062191D01*
X279129Y1063135D01*
X279123Y1063141D01*
X279125Y1063146D01*
X278702Y1064018D01*
X278694Y1064021D01*
X278696Y1064027D01*
X278089Y1064783D01*
X278081Y1064785D01*
X278081Y1064791D01*
X277321Y1065392D01*
X277312Y1065392D01*
X277311Y1065398D01*
X276436Y1065816D01*
X276428Y1065814D01*
X276426Y1065819D01*
X275480Y1066032D01*
X275473Y1066028D01*
X275469Y1066033D01*
X274500Y1066029D01*
X274499Y1066029D01*
X273431Y1066010D01*
X273430Y1066010D01*
X273424Y1066006D01*
X273420Y1066009D01*
X272383Y1065753D01*
X272378Y1065746D01*
X272372Y1065749D01*
X271418Y1065268D01*
X271415Y1065261D01*
X271409Y1065262D01*
X270586Y1064581D01*
X270584Y1064573D01*
X270578Y1064573D01*
X269927Y1063726D01*
X269927Y1063718D01*
X269921Y1063717D01*
X269474Y1062746D01*
X269476Y1062738D01*
X269471Y1062736D01*
X269252Y1061690D01*
X269255Y1061683D01*
X269251Y1061680D01*
X269251Y1049680D01*
X269254Y1049675D01*
X269251Y1049672D01*
X269431Y1048577D01*
X269437Y1048571D01*
X269434Y1048566D01*
X269853Y1047538D01*
X269860Y1047534D01*
X269858Y1047529D01*
X270496Y1046620D01*
X270503Y1046618D01*
X270503Y1046612D01*
X271326Y1045868D01*
X271334Y1045867D01*
X271335Y1045861D01*
X272303Y1045319D01*
X272312Y1045320D01*
X272314Y1045314D01*
X273378Y1045001D01*
X273386Y1045004D01*
X273389Y1044999D01*
X274497Y1044931D01*
X274504Y1044935D01*
G37*
G36*
X45904Y1044935D02*
X45904Y1044935D01*
X45907Y1044931D01*
X47015Y1045101D01*
X47021Y1045107D01*
X47026Y1045104D01*
X48068Y1045516D01*
X48072Y1045523D01*
X48077Y1045521D01*
X49002Y1046155D01*
X49004Y1046163D01*
X49010Y1046162D01*
X49770Y1046986D01*
X49771Y1046994D01*
X49777Y1046994D01*
X50334Y1047966D01*
X50334Y1047970D01*
X50335Y1047971D01*
X50333Y1047973D01*
X50333Y1047974D01*
X50339Y1047976D01*
X50666Y1049048D01*
X50665Y1049053D01*
X50667Y1049054D01*
X50665Y1049057D01*
X50668Y1049059D01*
X50749Y1050176D01*
X50748Y1050179D01*
X50749Y1050180D01*
X50749Y1062180D01*
X50744Y1062187D01*
X50748Y1062191D01*
X50529Y1063135D01*
X50523Y1063141D01*
X50525Y1063146D01*
X50102Y1064018D01*
X50094Y1064021D01*
X50096Y1064027D01*
X49489Y1064783D01*
X49481Y1064785D01*
X49481Y1064791D01*
X48721Y1065392D01*
X48712Y1065392D01*
X48711Y1065398D01*
X47836Y1065816D01*
X47828Y1065814D01*
X47826Y1065819D01*
X46880Y1066032D01*
X46873Y1066028D01*
X46869Y1066033D01*
X45900Y1066029D01*
X45899Y1066029D01*
X44831Y1066010D01*
X44830Y1066010D01*
X44824Y1066006D01*
X44820Y1066009D01*
X43783Y1065753D01*
X43778Y1065746D01*
X43772Y1065749D01*
X42818Y1065268D01*
X42815Y1065261D01*
X42809Y1065262D01*
X41986Y1064581D01*
X41984Y1064573D01*
X41978Y1064573D01*
X41327Y1063726D01*
X41327Y1063718D01*
X41321Y1063717D01*
X40874Y1062746D01*
X40876Y1062738D01*
X40871Y1062736D01*
X40652Y1061690D01*
X40655Y1061683D01*
X40651Y1061680D01*
X40651Y1049680D01*
X40654Y1049675D01*
X40651Y1049672D01*
X40831Y1048577D01*
X40837Y1048571D01*
X40834Y1048566D01*
X41253Y1047538D01*
X41260Y1047534D01*
X41258Y1047529D01*
X41896Y1046620D01*
X41903Y1046618D01*
X41903Y1046612D01*
X42726Y1045868D01*
X42734Y1045867D01*
X42735Y1045861D01*
X43703Y1045319D01*
X43712Y1045320D01*
X43714Y1045314D01*
X44778Y1045001D01*
X44786Y1045004D01*
X44789Y1044999D01*
X45897Y1044931D01*
X45904Y1044935D01*
G37*
G36*
X731704Y1044935D02*
X731704Y1044935D01*
X731707Y1044931D01*
X732815Y1045101D01*
X732821Y1045107D01*
X732826Y1045104D01*
X733868Y1045516D01*
X733872Y1045523D01*
X733877Y1045521D01*
X734802Y1046155D01*
X734804Y1046163D01*
X734810Y1046162D01*
X735570Y1046986D01*
X735571Y1046994D01*
X735577Y1046994D01*
X736134Y1047966D01*
X736134Y1047970D01*
X736135Y1047971D01*
X736133Y1047973D01*
X736133Y1047974D01*
X736139Y1047976D01*
X736466Y1049048D01*
X736465Y1049053D01*
X736467Y1049054D01*
X736465Y1049057D01*
X736468Y1049059D01*
X736549Y1050176D01*
X736548Y1050179D01*
X736549Y1050180D01*
X736549Y1062180D01*
X736544Y1062187D01*
X736548Y1062191D01*
X736329Y1063135D01*
X736323Y1063141D01*
X736325Y1063146D01*
X735902Y1064018D01*
X735894Y1064021D01*
X735896Y1064027D01*
X735289Y1064783D01*
X735281Y1064785D01*
X735281Y1064791D01*
X734521Y1065392D01*
X734512Y1065392D01*
X734511Y1065398D01*
X733636Y1065816D01*
X733628Y1065814D01*
X733626Y1065819D01*
X732680Y1066032D01*
X732673Y1066028D01*
X732669Y1066033D01*
X731700Y1066029D01*
X731699Y1066029D01*
X730631Y1066010D01*
X730630Y1066010D01*
X730624Y1066006D01*
X730620Y1066009D01*
X729583Y1065753D01*
X729578Y1065746D01*
X729572Y1065749D01*
X728618Y1065268D01*
X728615Y1065261D01*
X728609Y1065262D01*
X727786Y1064581D01*
X727784Y1064573D01*
X727778Y1064573D01*
X727127Y1063726D01*
X727127Y1063718D01*
X727121Y1063717D01*
X726674Y1062746D01*
X726676Y1062738D01*
X726671Y1062736D01*
X726452Y1061690D01*
X726455Y1061683D01*
X726451Y1061680D01*
X726451Y1049680D01*
X726454Y1049675D01*
X726451Y1049672D01*
X726631Y1048577D01*
X726637Y1048571D01*
X726634Y1048566D01*
X727053Y1047538D01*
X727060Y1047534D01*
X727058Y1047529D01*
X727696Y1046620D01*
X727703Y1046618D01*
X727703Y1046612D01*
X728526Y1045868D01*
X728534Y1045867D01*
X728535Y1045861D01*
X729503Y1045319D01*
X729512Y1045320D01*
X729514Y1045314D01*
X730578Y1045001D01*
X730586Y1045004D01*
X730589Y1044999D01*
X731697Y1044931D01*
X731704Y1044935D01*
G37*
G36*
X274504Y155935D02*
X274504Y155935D01*
X274507Y155931D01*
X275615Y156101D01*
X275621Y156107D01*
X275626Y156104D01*
X276668Y156516D01*
X276672Y156523D01*
X276677Y156521D01*
X277602Y157155D01*
X277604Y157163D01*
X277610Y157162D01*
X278370Y157986D01*
X278371Y157994D01*
X278377Y157994D01*
X278934Y158966D01*
X278934Y158970D01*
X278935Y158971D01*
X278933Y158973D01*
X278933Y158974D01*
X278939Y158976D01*
X279266Y160048D01*
X279265Y160053D01*
X279267Y160054D01*
X279265Y160057D01*
X279268Y160059D01*
X279349Y161176D01*
X279348Y161179D01*
X279349Y161180D01*
X279349Y173180D01*
X279344Y173187D01*
X279348Y173191D01*
X279129Y174135D01*
X279123Y174141D01*
X279125Y174146D01*
X278702Y175018D01*
X278694Y175021D01*
X278696Y175027D01*
X278089Y175783D01*
X278081Y175785D01*
X278081Y175791D01*
X277321Y176392D01*
X277312Y176392D01*
X277311Y176398D01*
X276436Y176816D01*
X276428Y176814D01*
X276426Y176819D01*
X275480Y177032D01*
X275473Y177028D01*
X275469Y177033D01*
X274500Y177029D01*
X274499Y177029D01*
X273431Y177010D01*
X273430Y177010D01*
X273424Y177006D01*
X273420Y177009D01*
X272383Y176753D01*
X272378Y176746D01*
X272372Y176749D01*
X271418Y176268D01*
X271415Y176261D01*
X271409Y176262D01*
X270586Y175581D01*
X270584Y175573D01*
X270578Y175573D01*
X269927Y174726D01*
X269927Y174718D01*
X269921Y174717D01*
X269474Y173746D01*
X269476Y173738D01*
X269471Y173736D01*
X269252Y172690D01*
X269255Y172683D01*
X269251Y172680D01*
X269251Y160680D01*
X269254Y160675D01*
X269251Y160672D01*
X269431Y159577D01*
X269437Y159571D01*
X269434Y159566D01*
X269853Y158538D01*
X269860Y158534D01*
X269858Y158529D01*
X270496Y157620D01*
X270503Y157618D01*
X270503Y157612D01*
X271326Y156868D01*
X271334Y156867D01*
X271335Y156861D01*
X272303Y156319D01*
X272312Y156320D01*
X272314Y156314D01*
X273378Y156001D01*
X273386Y156004D01*
X273389Y155999D01*
X274497Y155931D01*
X274504Y155935D01*
G37*
G36*
X818202Y155934D02*
X818202Y155934D01*
X818206Y155931D01*
X819251Y156049D01*
X819257Y156055D01*
X819262Y156051D01*
X820256Y156399D01*
X820260Y156406D01*
X820265Y156404D01*
X821157Y156964D01*
X821160Y156971D01*
X821165Y156971D01*
X821909Y157715D01*
X821911Y157723D01*
X821916Y157723D01*
X822476Y158615D01*
X822476Y158622D01*
X822477Y158623D01*
X822481Y158624D01*
X822829Y159618D01*
X822826Y159626D01*
X822831Y159629D01*
X822949Y160675D01*
X822947Y160678D01*
X822949Y160680D01*
X822949Y172680D01*
X822946Y172685D01*
X822949Y172688D01*
X822791Y173684D01*
X822785Y173690D01*
X822788Y173695D01*
X822413Y174631D01*
X822406Y174635D01*
X822408Y174641D01*
X821834Y175470D01*
X821826Y175473D01*
X821827Y175478D01*
X821083Y176159D01*
X821074Y176160D01*
X821074Y176166D01*
X820197Y176664D01*
X820189Y176663D01*
X820186Y176668D01*
X819221Y176959D01*
X819213Y176956D01*
X819210Y176961D01*
X818203Y177029D01*
X818201Y177028D01*
X818200Y177029D01*
X817119Y177020D01*
X817112Y177015D01*
X817108Y177019D01*
X816056Y176770D01*
X816051Y176763D01*
X816046Y176766D01*
X815076Y176289D01*
X815073Y176281D01*
X815067Y176283D01*
X814228Y175602D01*
X814226Y175594D01*
X814220Y175594D01*
X813554Y174744D01*
X813553Y174735D01*
X813548Y174734D01*
X813087Y173757D01*
X813089Y173749D01*
X813084Y173746D01*
X812852Y172691D01*
X812855Y172683D01*
X812851Y172680D01*
X812851Y160680D01*
X812855Y160675D01*
X812851Y160672D01*
X813044Y159566D01*
X813050Y159561D01*
X813047Y159556D01*
X813480Y158521D01*
X813487Y158517D01*
X813485Y158512D01*
X814138Y157599D01*
X814146Y157597D01*
X814145Y157591D01*
X814984Y156847D01*
X814993Y156846D01*
X814993Y156841D01*
X815977Y156302D01*
X815985Y156303D01*
X815987Y156298D01*
X817066Y155991D01*
X817074Y155994D01*
X817077Y155989D01*
X818197Y155931D01*
X818202Y155934D01*
G37*
G36*
X818202Y600434D02*
X818202Y600434D01*
X818206Y600431D01*
X819251Y600549D01*
X819257Y600555D01*
X819262Y600551D01*
X820256Y600899D01*
X820260Y600906D01*
X820265Y600904D01*
X821157Y601464D01*
X821160Y601471D01*
X821165Y601471D01*
X821909Y602215D01*
X821911Y602223D01*
X821916Y602223D01*
X822476Y603115D01*
X822476Y603122D01*
X822477Y603123D01*
X822481Y603124D01*
X822829Y604118D01*
X822826Y604126D01*
X822831Y604129D01*
X822949Y605175D01*
X822947Y605178D01*
X822949Y605180D01*
X822949Y617180D01*
X822946Y617185D01*
X822949Y617188D01*
X822791Y618184D01*
X822785Y618190D01*
X822788Y618195D01*
X822413Y619131D01*
X822406Y619135D01*
X822408Y619141D01*
X821834Y619970D01*
X821826Y619973D01*
X821827Y619978D01*
X821083Y620659D01*
X821074Y620660D01*
X821074Y620666D01*
X820197Y621164D01*
X820189Y621163D01*
X820186Y621168D01*
X819221Y621459D01*
X819213Y621456D01*
X819210Y621461D01*
X818203Y621529D01*
X818201Y621528D01*
X818200Y621529D01*
X817119Y621520D01*
X817112Y621515D01*
X817108Y621519D01*
X816056Y621270D01*
X816051Y621263D01*
X816046Y621266D01*
X815076Y620789D01*
X815073Y620781D01*
X815067Y620783D01*
X814228Y620102D01*
X814226Y620094D01*
X814220Y620094D01*
X813554Y619244D01*
X813553Y619235D01*
X813548Y619234D01*
X813087Y618257D01*
X813089Y618249D01*
X813084Y618246D01*
X812852Y617191D01*
X812855Y617183D01*
X812851Y617180D01*
X812851Y605180D01*
X812855Y605175D01*
X812851Y605172D01*
X813044Y604066D01*
X813050Y604061D01*
X813047Y604056D01*
X813480Y603021D01*
X813487Y603017D01*
X813485Y603012D01*
X814138Y602099D01*
X814146Y602097D01*
X814145Y602091D01*
X814984Y601347D01*
X814993Y601346D01*
X814993Y601341D01*
X815977Y600802D01*
X815985Y600803D01*
X815987Y600798D01*
X817066Y600491D01*
X817074Y600494D01*
X817077Y600489D01*
X818197Y600431D01*
X818202Y600434D01*
G37*
G36*
X589602Y600434D02*
X589602Y600434D01*
X589606Y600431D01*
X590651Y600549D01*
X590657Y600555D01*
X590662Y600551D01*
X591656Y600899D01*
X591660Y600906D01*
X591665Y600904D01*
X592557Y601464D01*
X592560Y601471D01*
X592565Y601471D01*
X593309Y602215D01*
X593311Y602223D01*
X593316Y602223D01*
X593876Y603115D01*
X593876Y603122D01*
X593877Y603123D01*
X593881Y603124D01*
X594229Y604118D01*
X594226Y604126D01*
X594231Y604129D01*
X594349Y605175D01*
X594347Y605178D01*
X594349Y605180D01*
X594349Y617180D01*
X594346Y617185D01*
X594349Y617188D01*
X594191Y618184D01*
X594185Y618190D01*
X594188Y618195D01*
X593813Y619131D01*
X593806Y619135D01*
X593808Y619141D01*
X593234Y619970D01*
X593226Y619973D01*
X593227Y619978D01*
X592483Y620659D01*
X592474Y620660D01*
X592474Y620666D01*
X591597Y621164D01*
X591589Y621163D01*
X591586Y621168D01*
X590621Y621459D01*
X590613Y621456D01*
X590610Y621461D01*
X589603Y621529D01*
X589601Y621528D01*
X589600Y621529D01*
X588519Y621520D01*
X588512Y621515D01*
X588508Y621519D01*
X587456Y621270D01*
X587451Y621263D01*
X587446Y621266D01*
X586476Y620789D01*
X586473Y620781D01*
X586467Y620783D01*
X585628Y620102D01*
X585626Y620094D01*
X585620Y620094D01*
X584954Y619244D01*
X584953Y619235D01*
X584948Y619234D01*
X584487Y618257D01*
X584489Y618249D01*
X584484Y618246D01*
X584252Y617191D01*
X584255Y617183D01*
X584251Y617180D01*
X584251Y605180D01*
X584255Y605175D01*
X584251Y605172D01*
X584444Y604066D01*
X584450Y604061D01*
X584447Y604056D01*
X584880Y603021D01*
X584887Y603017D01*
X584885Y603012D01*
X585538Y602099D01*
X585546Y602097D01*
X585545Y602091D01*
X586384Y601347D01*
X586393Y601346D01*
X586393Y601341D01*
X587377Y600802D01*
X587385Y600803D01*
X587387Y600798D01*
X588466Y600491D01*
X588474Y600494D01*
X588477Y600489D01*
X589597Y600431D01*
X589602Y600434D01*
G37*
G36*
X361002Y600434D02*
X361002Y600434D01*
X361006Y600431D01*
X362051Y600549D01*
X362057Y600555D01*
X362062Y600551D01*
X363056Y600899D01*
X363060Y600906D01*
X363065Y600904D01*
X363957Y601464D01*
X363960Y601471D01*
X363965Y601471D01*
X364709Y602215D01*
X364711Y602223D01*
X364716Y602223D01*
X365276Y603115D01*
X365276Y603122D01*
X365277Y603123D01*
X365281Y603124D01*
X365629Y604118D01*
X365626Y604126D01*
X365631Y604129D01*
X365749Y605175D01*
X365747Y605178D01*
X365749Y605180D01*
X365749Y617180D01*
X365746Y617185D01*
X365749Y617188D01*
X365591Y618184D01*
X365585Y618190D01*
X365588Y618195D01*
X365213Y619131D01*
X365206Y619135D01*
X365208Y619141D01*
X364634Y619970D01*
X364626Y619973D01*
X364627Y619978D01*
X363883Y620659D01*
X363874Y620660D01*
X363874Y620666D01*
X362997Y621164D01*
X362989Y621163D01*
X362986Y621168D01*
X362021Y621459D01*
X362013Y621456D01*
X362010Y621461D01*
X361003Y621529D01*
X361001Y621528D01*
X361000Y621529D01*
X359919Y621520D01*
X359912Y621515D01*
X359908Y621519D01*
X358856Y621270D01*
X358851Y621263D01*
X358846Y621266D01*
X357876Y620789D01*
X357873Y620781D01*
X357867Y620783D01*
X357028Y620102D01*
X357026Y620094D01*
X357020Y620094D01*
X356354Y619244D01*
X356353Y619235D01*
X356348Y619234D01*
X355887Y618257D01*
X355889Y618249D01*
X355884Y618246D01*
X355652Y617191D01*
X355655Y617183D01*
X355651Y617180D01*
X355651Y605180D01*
X355655Y605175D01*
X355651Y605172D01*
X355844Y604066D01*
X355850Y604061D01*
X355847Y604056D01*
X356280Y603021D01*
X356287Y603017D01*
X356285Y603012D01*
X356938Y602099D01*
X356946Y602097D01*
X356945Y602091D01*
X357784Y601347D01*
X357793Y601346D01*
X357793Y601341D01*
X358777Y600802D01*
X358785Y600803D01*
X358787Y600798D01*
X359866Y600491D01*
X359874Y600494D01*
X359877Y600489D01*
X360997Y600431D01*
X361002Y600434D01*
G37*
G36*
X1046802Y600434D02*
X1046802Y600434D01*
X1046806Y600431D01*
X1047851Y600549D01*
X1047857Y600555D01*
X1047862Y600551D01*
X1048856Y600899D01*
X1048860Y600906D01*
X1048865Y600904D01*
X1049757Y601464D01*
X1049760Y601471D01*
X1049765Y601471D01*
X1050509Y602215D01*
X1050511Y602223D01*
X1050516Y602223D01*
X1051076Y603115D01*
X1051076Y603122D01*
X1051077Y603123D01*
X1051081Y603124D01*
X1051429Y604118D01*
X1051426Y604126D01*
X1051431Y604129D01*
X1051549Y605175D01*
X1051547Y605178D01*
X1051549Y605180D01*
X1051549Y617180D01*
X1051546Y617185D01*
X1051549Y617188D01*
X1051391Y618184D01*
X1051385Y618190D01*
X1051388Y618195D01*
X1051013Y619131D01*
X1051006Y619135D01*
X1051008Y619141D01*
X1050434Y619970D01*
X1050426Y619973D01*
X1050427Y619978D01*
X1049683Y620659D01*
X1049674Y620660D01*
X1049674Y620666D01*
X1048797Y621164D01*
X1048789Y621163D01*
X1048786Y621168D01*
X1047821Y621459D01*
X1047813Y621456D01*
X1047810Y621461D01*
X1046803Y621529D01*
X1046801Y621528D01*
X1046800Y621529D01*
X1045719Y621520D01*
X1045712Y621515D01*
X1045708Y621519D01*
X1044656Y621270D01*
X1044651Y621263D01*
X1044646Y621266D01*
X1043676Y620789D01*
X1043673Y620781D01*
X1043667Y620783D01*
X1042828Y620102D01*
X1042826Y620094D01*
X1042820Y620094D01*
X1042154Y619244D01*
X1042153Y619235D01*
X1042148Y619234D01*
X1041687Y618257D01*
X1041689Y618249D01*
X1041684Y618246D01*
X1041452Y617191D01*
X1041455Y617183D01*
X1041451Y617180D01*
X1041451Y605180D01*
X1041455Y605175D01*
X1041451Y605172D01*
X1041644Y604066D01*
X1041650Y604061D01*
X1041647Y604056D01*
X1042080Y603021D01*
X1042087Y603017D01*
X1042085Y603012D01*
X1042738Y602099D01*
X1042746Y602097D01*
X1042745Y602091D01*
X1043584Y601347D01*
X1043593Y601346D01*
X1043593Y601341D01*
X1044577Y600802D01*
X1044585Y600803D01*
X1044587Y600798D01*
X1045666Y600491D01*
X1045674Y600494D01*
X1045677Y600489D01*
X1046797Y600431D01*
X1046802Y600434D01*
G37*
G36*
X589602Y155934D02*
X589602Y155934D01*
X589606Y155931D01*
X590651Y156049D01*
X590657Y156055D01*
X590662Y156051D01*
X591656Y156399D01*
X591660Y156406D01*
X591665Y156404D01*
X592557Y156964D01*
X592560Y156971D01*
X592565Y156971D01*
X593309Y157715D01*
X593311Y157723D01*
X593316Y157723D01*
X593876Y158615D01*
X593876Y158622D01*
X593877Y158623D01*
X593881Y158624D01*
X594229Y159618D01*
X594226Y159626D01*
X594231Y159629D01*
X594349Y160675D01*
X594347Y160678D01*
X594349Y160680D01*
X594349Y172680D01*
X594346Y172685D01*
X594349Y172688D01*
X594191Y173684D01*
X594185Y173690D01*
X594188Y173695D01*
X593813Y174631D01*
X593806Y174635D01*
X593808Y174641D01*
X593234Y175470D01*
X593226Y175473D01*
X593227Y175478D01*
X592483Y176159D01*
X592474Y176160D01*
X592474Y176166D01*
X591597Y176664D01*
X591589Y176663D01*
X591586Y176668D01*
X590621Y176959D01*
X590613Y176956D01*
X590610Y176961D01*
X589603Y177029D01*
X589601Y177028D01*
X589600Y177029D01*
X588519Y177020D01*
X588512Y177015D01*
X588508Y177019D01*
X587456Y176770D01*
X587451Y176763D01*
X587446Y176766D01*
X586476Y176289D01*
X586473Y176281D01*
X586467Y176283D01*
X585628Y175602D01*
X585626Y175594D01*
X585620Y175594D01*
X584954Y174744D01*
X584953Y174735D01*
X584948Y174734D01*
X584487Y173757D01*
X584489Y173749D01*
X584484Y173746D01*
X584252Y172691D01*
X584255Y172683D01*
X584251Y172680D01*
X584251Y160680D01*
X584255Y160675D01*
X584251Y160672D01*
X584444Y159566D01*
X584450Y159561D01*
X584447Y159556D01*
X584880Y158521D01*
X584887Y158517D01*
X584885Y158512D01*
X585538Y157599D01*
X585546Y157597D01*
X585545Y157591D01*
X586384Y156847D01*
X586393Y156846D01*
X586393Y156841D01*
X587377Y156302D01*
X587385Y156303D01*
X587387Y156298D01*
X588466Y155991D01*
X588474Y155994D01*
X588477Y155989D01*
X589597Y155931D01*
X589602Y155934D01*
G37*
G36*
X132402Y600434D02*
X132402Y600434D01*
X132406Y600431D01*
X133451Y600549D01*
X133457Y600555D01*
X133462Y600551D01*
X134456Y600899D01*
X134460Y600906D01*
X134465Y600904D01*
X135357Y601464D01*
X135360Y601471D01*
X135365Y601471D01*
X136109Y602215D01*
X136111Y602223D01*
X136116Y602223D01*
X136676Y603115D01*
X136676Y603122D01*
X136677Y603123D01*
X136681Y603124D01*
X137029Y604118D01*
X137026Y604126D01*
X137031Y604129D01*
X137149Y605175D01*
X137147Y605178D01*
X137149Y605180D01*
X137149Y617180D01*
X137146Y617185D01*
X137149Y617188D01*
X136991Y618184D01*
X136985Y618190D01*
X136988Y618195D01*
X136613Y619131D01*
X136606Y619135D01*
X136608Y619141D01*
X136034Y619970D01*
X136026Y619973D01*
X136027Y619978D01*
X135283Y620659D01*
X135274Y620660D01*
X135274Y620666D01*
X134397Y621164D01*
X134389Y621163D01*
X134386Y621168D01*
X133421Y621459D01*
X133413Y621456D01*
X133410Y621461D01*
X132403Y621529D01*
X132401Y621528D01*
X132400Y621529D01*
X131319Y621520D01*
X131312Y621515D01*
X131308Y621519D01*
X130256Y621270D01*
X130251Y621263D01*
X130246Y621266D01*
X129276Y620789D01*
X129273Y620781D01*
X129267Y620783D01*
X128428Y620102D01*
X128426Y620094D01*
X128420Y620094D01*
X127754Y619244D01*
X127753Y619235D01*
X127748Y619234D01*
X127287Y618257D01*
X127289Y618249D01*
X127284Y618246D01*
X127052Y617191D01*
X127055Y617183D01*
X127051Y617180D01*
X127051Y605180D01*
X127055Y605175D01*
X127051Y605172D01*
X127244Y604066D01*
X127250Y604061D01*
X127247Y604056D01*
X127680Y603021D01*
X127687Y603017D01*
X127685Y603012D01*
X128338Y602099D01*
X128346Y602097D01*
X128345Y602091D01*
X129184Y601347D01*
X129193Y601346D01*
X129193Y601341D01*
X130177Y600802D01*
X130185Y600803D01*
X130187Y600798D01*
X131266Y600491D01*
X131274Y600494D01*
X131277Y600489D01*
X132397Y600431D01*
X132402Y600434D01*
G37*
G36*
X132402Y155934D02*
X132402Y155934D01*
X132406Y155931D01*
X133451Y156049D01*
X133457Y156055D01*
X133462Y156051D01*
X134456Y156399D01*
X134460Y156406D01*
X134465Y156404D01*
X135357Y156964D01*
X135360Y156971D01*
X135365Y156971D01*
X136109Y157715D01*
X136111Y157723D01*
X136116Y157723D01*
X136676Y158615D01*
X136676Y158622D01*
X136677Y158623D01*
X136681Y158624D01*
X137029Y159618D01*
X137026Y159626D01*
X137031Y159629D01*
X137149Y160675D01*
X137147Y160678D01*
X137149Y160680D01*
X137149Y172680D01*
X137146Y172685D01*
X137149Y172688D01*
X136991Y173684D01*
X136985Y173690D01*
X136988Y173695D01*
X136613Y174631D01*
X136606Y174635D01*
X136608Y174641D01*
X136034Y175470D01*
X136026Y175473D01*
X136027Y175478D01*
X135283Y176159D01*
X135274Y176160D01*
X135274Y176166D01*
X134397Y176664D01*
X134389Y176663D01*
X134386Y176668D01*
X133421Y176959D01*
X133413Y176956D01*
X133410Y176961D01*
X132403Y177029D01*
X132401Y177028D01*
X132400Y177029D01*
X131319Y177020D01*
X131312Y177015D01*
X131308Y177019D01*
X130256Y176770D01*
X130251Y176763D01*
X130246Y176766D01*
X129276Y176289D01*
X129273Y176281D01*
X129267Y176283D01*
X128428Y175602D01*
X128426Y175594D01*
X128420Y175594D01*
X127754Y174744D01*
X127753Y174735D01*
X127748Y174734D01*
X127287Y173757D01*
X127289Y173749D01*
X127284Y173746D01*
X127052Y172691D01*
X127055Y172683D01*
X127051Y172680D01*
X127051Y160680D01*
X127055Y160675D01*
X127051Y160672D01*
X127244Y159566D01*
X127250Y159561D01*
X127247Y159556D01*
X127680Y158521D01*
X127687Y158517D01*
X127685Y158512D01*
X128338Y157599D01*
X128346Y157597D01*
X128345Y157591D01*
X129184Y156847D01*
X129193Y156846D01*
X129193Y156841D01*
X130177Y156302D01*
X130185Y156303D01*
X130187Y156298D01*
X131266Y155991D01*
X131274Y155994D01*
X131277Y155989D01*
X132397Y155931D01*
X132402Y155934D01*
G37*
G36*
X361002Y155934D02*
X361002Y155934D01*
X361006Y155931D01*
X362051Y156049D01*
X362057Y156055D01*
X362062Y156051D01*
X363056Y156399D01*
X363060Y156406D01*
X363065Y156404D01*
X363957Y156964D01*
X363960Y156971D01*
X363965Y156971D01*
X364709Y157715D01*
X364711Y157723D01*
X364716Y157723D01*
X365276Y158615D01*
X365276Y158622D01*
X365277Y158623D01*
X365281Y158624D01*
X365629Y159618D01*
X365626Y159626D01*
X365631Y159629D01*
X365749Y160675D01*
X365747Y160678D01*
X365749Y160680D01*
X365749Y172680D01*
X365746Y172685D01*
X365749Y172688D01*
X365591Y173684D01*
X365585Y173690D01*
X365588Y173695D01*
X365213Y174631D01*
X365206Y174635D01*
X365208Y174641D01*
X364634Y175470D01*
X364626Y175473D01*
X364627Y175478D01*
X363883Y176159D01*
X363874Y176160D01*
X363874Y176166D01*
X362997Y176664D01*
X362989Y176663D01*
X362986Y176668D01*
X362021Y176959D01*
X362013Y176956D01*
X362010Y176961D01*
X361003Y177029D01*
X361001Y177028D01*
X361000Y177029D01*
X359919Y177020D01*
X359912Y177015D01*
X359908Y177019D01*
X358856Y176770D01*
X358851Y176763D01*
X358846Y176766D01*
X357876Y176289D01*
X357873Y176281D01*
X357867Y176283D01*
X357028Y175602D01*
X357026Y175594D01*
X357020Y175594D01*
X356354Y174744D01*
X356353Y174735D01*
X356348Y174734D01*
X355887Y173757D01*
X355889Y173749D01*
X355884Y173746D01*
X355652Y172691D01*
X355655Y172683D01*
X355651Y172680D01*
X355651Y160680D01*
X355655Y160675D01*
X355651Y160672D01*
X355844Y159566D01*
X355850Y159561D01*
X355847Y159556D01*
X356280Y158521D01*
X356287Y158517D01*
X356285Y158512D01*
X356938Y157599D01*
X356946Y157597D01*
X356945Y157591D01*
X357784Y156847D01*
X357793Y156846D01*
X357793Y156841D01*
X358777Y156302D01*
X358785Y156303D01*
X358787Y156298D01*
X359866Y155991D01*
X359874Y155994D01*
X359877Y155989D01*
X360997Y155931D01*
X361002Y155934D01*
G37*
G36*
X1046802Y155934D02*
X1046802Y155934D01*
X1046806Y155931D01*
X1047851Y156049D01*
X1047857Y156055D01*
X1047862Y156051D01*
X1048856Y156399D01*
X1048860Y156406D01*
X1048865Y156404D01*
X1049757Y156964D01*
X1049760Y156971D01*
X1049765Y156971D01*
X1050509Y157715D01*
X1050511Y157723D01*
X1050516Y157723D01*
X1051076Y158615D01*
X1051076Y158622D01*
X1051077Y158623D01*
X1051081Y158624D01*
X1051429Y159618D01*
X1051426Y159626D01*
X1051431Y159629D01*
X1051549Y160675D01*
X1051547Y160678D01*
X1051549Y160680D01*
X1051549Y172680D01*
X1051546Y172685D01*
X1051549Y172688D01*
X1051391Y173684D01*
X1051385Y173690D01*
X1051388Y173695D01*
X1051013Y174631D01*
X1051006Y174635D01*
X1051008Y174641D01*
X1050434Y175470D01*
X1050426Y175473D01*
X1050427Y175478D01*
X1049683Y176159D01*
X1049674Y176160D01*
X1049674Y176166D01*
X1048797Y176664D01*
X1048789Y176663D01*
X1048786Y176668D01*
X1047821Y176959D01*
X1047813Y176956D01*
X1047810Y176961D01*
X1046803Y177029D01*
X1046801Y177028D01*
X1046800Y177029D01*
X1045719Y177020D01*
X1045712Y177015D01*
X1045708Y177019D01*
X1044656Y176770D01*
X1044651Y176763D01*
X1044646Y176766D01*
X1043676Y176289D01*
X1043673Y176281D01*
X1043667Y176283D01*
X1042828Y175602D01*
X1042826Y175594D01*
X1042820Y175594D01*
X1042154Y174744D01*
X1042153Y174735D01*
X1042148Y174734D01*
X1041687Y173757D01*
X1041689Y173749D01*
X1041684Y173746D01*
X1041452Y172691D01*
X1041455Y172683D01*
X1041451Y172680D01*
X1041451Y160680D01*
X1041455Y160675D01*
X1041451Y160672D01*
X1041644Y159566D01*
X1041650Y159561D01*
X1041647Y159556D01*
X1042080Y158521D01*
X1042087Y158517D01*
X1042085Y158512D01*
X1042738Y157599D01*
X1042746Y157597D01*
X1042745Y157591D01*
X1043584Y156847D01*
X1043593Y156846D01*
X1043593Y156841D01*
X1044577Y156302D01*
X1044585Y156303D01*
X1044587Y156298D01*
X1045666Y155991D01*
X1045674Y155994D01*
X1045677Y155989D01*
X1046797Y155931D01*
X1046802Y155934D01*
G37*
G36*
X818202Y1044934D02*
X818202Y1044934D01*
X818206Y1044931D01*
X819251Y1045049D01*
X819257Y1045055D01*
X819262Y1045051D01*
X820256Y1045399D01*
X820260Y1045406D01*
X820265Y1045404D01*
X821157Y1045964D01*
X821160Y1045971D01*
X821165Y1045971D01*
X821909Y1046715D01*
X821911Y1046723D01*
X821916Y1046723D01*
X822476Y1047615D01*
X822476Y1047622D01*
X822477Y1047623D01*
X822481Y1047624D01*
X822829Y1048618D01*
X822826Y1048626D01*
X822831Y1048629D01*
X822949Y1049675D01*
X822947Y1049678D01*
X822949Y1049680D01*
X822949Y1061680D01*
X822946Y1061685D01*
X822949Y1061688D01*
X822791Y1062684D01*
X822785Y1062690D01*
X822788Y1062695D01*
X822413Y1063631D01*
X822406Y1063635D01*
X822408Y1063641D01*
X821834Y1064470D01*
X821826Y1064473D01*
X821827Y1064478D01*
X821083Y1065159D01*
X821074Y1065160D01*
X821074Y1065166D01*
X820197Y1065664D01*
X820189Y1065663D01*
X820186Y1065668D01*
X819221Y1065959D01*
X819213Y1065956D01*
X819210Y1065961D01*
X818203Y1066029D01*
X818201Y1066028D01*
X818200Y1066029D01*
X817119Y1066020D01*
X817112Y1066015D01*
X817108Y1066019D01*
X816056Y1065770D01*
X816051Y1065763D01*
X816046Y1065766D01*
X815076Y1065289D01*
X815073Y1065281D01*
X815067Y1065283D01*
X814228Y1064602D01*
X814226Y1064594D01*
X814220Y1064594D01*
X813554Y1063744D01*
X813553Y1063735D01*
X813548Y1063734D01*
X813087Y1062757D01*
X813089Y1062749D01*
X813084Y1062746D01*
X812852Y1061691D01*
X812855Y1061683D01*
X812851Y1061680D01*
X812851Y1049680D01*
X812855Y1049675D01*
X812851Y1049672D01*
X813044Y1048566D01*
X813050Y1048561D01*
X813047Y1048556D01*
X813480Y1047521D01*
X813487Y1047517D01*
X813485Y1047512D01*
X814138Y1046599D01*
X814146Y1046597D01*
X814145Y1046591D01*
X814984Y1045847D01*
X814993Y1045846D01*
X814993Y1045841D01*
X815977Y1045302D01*
X815985Y1045303D01*
X815987Y1045298D01*
X817066Y1044991D01*
X817074Y1044994D01*
X817077Y1044989D01*
X818197Y1044931D01*
X818202Y1044934D01*
G37*
G36*
X1046802Y1044934D02*
X1046802Y1044934D01*
X1046806Y1044931D01*
X1047851Y1045049D01*
X1047857Y1045055D01*
X1047862Y1045051D01*
X1048856Y1045399D01*
X1048860Y1045406D01*
X1048865Y1045404D01*
X1049757Y1045964D01*
X1049760Y1045971D01*
X1049765Y1045971D01*
X1050509Y1046715D01*
X1050511Y1046723D01*
X1050516Y1046723D01*
X1051076Y1047615D01*
X1051076Y1047622D01*
X1051077Y1047623D01*
X1051081Y1047624D01*
X1051429Y1048618D01*
X1051426Y1048626D01*
X1051431Y1048629D01*
X1051549Y1049675D01*
X1051547Y1049678D01*
X1051549Y1049680D01*
X1051549Y1061680D01*
X1051546Y1061685D01*
X1051549Y1061688D01*
X1051391Y1062684D01*
X1051385Y1062690D01*
X1051388Y1062695D01*
X1051013Y1063631D01*
X1051006Y1063635D01*
X1051008Y1063641D01*
X1050434Y1064470D01*
X1050426Y1064473D01*
X1050427Y1064478D01*
X1049683Y1065159D01*
X1049674Y1065160D01*
X1049674Y1065166D01*
X1048797Y1065664D01*
X1048789Y1065663D01*
X1048786Y1065668D01*
X1047821Y1065959D01*
X1047813Y1065956D01*
X1047810Y1065961D01*
X1046803Y1066029D01*
X1046801Y1066028D01*
X1046800Y1066029D01*
X1045719Y1066020D01*
X1045712Y1066015D01*
X1045708Y1066019D01*
X1044656Y1065770D01*
X1044651Y1065763D01*
X1044646Y1065766D01*
X1043676Y1065289D01*
X1043673Y1065281D01*
X1043667Y1065283D01*
X1042828Y1064602D01*
X1042826Y1064594D01*
X1042820Y1064594D01*
X1042154Y1063744D01*
X1042153Y1063735D01*
X1042148Y1063734D01*
X1041687Y1062757D01*
X1041689Y1062749D01*
X1041684Y1062746D01*
X1041452Y1061691D01*
X1041455Y1061683D01*
X1041451Y1061680D01*
X1041451Y1049680D01*
X1041455Y1049675D01*
X1041451Y1049672D01*
X1041644Y1048566D01*
X1041650Y1048561D01*
X1041647Y1048556D01*
X1042080Y1047521D01*
X1042087Y1047517D01*
X1042085Y1047512D01*
X1042738Y1046599D01*
X1042746Y1046597D01*
X1042745Y1046591D01*
X1043584Y1045847D01*
X1043593Y1045846D01*
X1043593Y1045841D01*
X1044577Y1045302D01*
X1044585Y1045303D01*
X1044587Y1045298D01*
X1045666Y1044991D01*
X1045674Y1044994D01*
X1045677Y1044989D01*
X1046797Y1044931D01*
X1046802Y1044934D01*
G37*
G36*
X132402Y1044934D02*
X132402Y1044934D01*
X132406Y1044931D01*
X133451Y1045049D01*
X133457Y1045055D01*
X133462Y1045051D01*
X134456Y1045399D01*
X134460Y1045406D01*
X134465Y1045404D01*
X135357Y1045964D01*
X135360Y1045971D01*
X135365Y1045971D01*
X136109Y1046715D01*
X136111Y1046723D01*
X136116Y1046723D01*
X136676Y1047615D01*
X136676Y1047622D01*
X136677Y1047623D01*
X136681Y1047624D01*
X137029Y1048618D01*
X137026Y1048626D01*
X137031Y1048629D01*
X137149Y1049675D01*
X137147Y1049678D01*
X137149Y1049680D01*
X137149Y1061680D01*
X137146Y1061685D01*
X137149Y1061688D01*
X136991Y1062684D01*
X136985Y1062690D01*
X136988Y1062695D01*
X136613Y1063631D01*
X136606Y1063635D01*
X136608Y1063641D01*
X136034Y1064470D01*
X136026Y1064473D01*
X136027Y1064478D01*
X135283Y1065159D01*
X135274Y1065160D01*
X135274Y1065166D01*
X134397Y1065664D01*
X134389Y1065663D01*
X134386Y1065668D01*
X133421Y1065959D01*
X133413Y1065956D01*
X133410Y1065961D01*
X132403Y1066029D01*
X132401Y1066028D01*
X132400Y1066029D01*
X131319Y1066020D01*
X131312Y1066015D01*
X131308Y1066019D01*
X130256Y1065770D01*
X130251Y1065763D01*
X130246Y1065766D01*
X129276Y1065289D01*
X129273Y1065281D01*
X129267Y1065283D01*
X128428Y1064602D01*
X128426Y1064594D01*
X128420Y1064594D01*
X127754Y1063744D01*
X127753Y1063735D01*
X127748Y1063734D01*
X127287Y1062757D01*
X127289Y1062749D01*
X127284Y1062746D01*
X127052Y1061691D01*
X127055Y1061683D01*
X127051Y1061680D01*
X127051Y1049680D01*
X127055Y1049675D01*
X127051Y1049672D01*
X127244Y1048566D01*
X127250Y1048561D01*
X127247Y1048556D01*
X127680Y1047521D01*
X127687Y1047517D01*
X127685Y1047512D01*
X128338Y1046599D01*
X128346Y1046597D01*
X128345Y1046591D01*
X129184Y1045847D01*
X129193Y1045846D01*
X129193Y1045841D01*
X130177Y1045302D01*
X130185Y1045303D01*
X130187Y1045298D01*
X131266Y1044991D01*
X131274Y1044994D01*
X131277Y1044989D01*
X132397Y1044931D01*
X132402Y1044934D01*
G37*
G36*
X589602Y1044934D02*
X589602Y1044934D01*
X589606Y1044931D01*
X590651Y1045049D01*
X590657Y1045055D01*
X590662Y1045051D01*
X591656Y1045399D01*
X591660Y1045406D01*
X591665Y1045404D01*
X592557Y1045964D01*
X592560Y1045971D01*
X592565Y1045971D01*
X593309Y1046715D01*
X593311Y1046723D01*
X593316Y1046723D01*
X593876Y1047615D01*
X593876Y1047622D01*
X593877Y1047623D01*
X593881Y1047624D01*
X594229Y1048618D01*
X594226Y1048626D01*
X594231Y1048629D01*
X594349Y1049675D01*
X594347Y1049678D01*
X594349Y1049680D01*
X594349Y1061680D01*
X594346Y1061685D01*
X594349Y1061688D01*
X594191Y1062684D01*
X594185Y1062690D01*
X594188Y1062695D01*
X593813Y1063631D01*
X593806Y1063635D01*
X593808Y1063641D01*
X593234Y1064470D01*
X593226Y1064473D01*
X593227Y1064478D01*
X592483Y1065159D01*
X592474Y1065160D01*
X592474Y1065166D01*
X591597Y1065664D01*
X591589Y1065663D01*
X591586Y1065668D01*
X590621Y1065959D01*
X590613Y1065956D01*
X590610Y1065961D01*
X589603Y1066029D01*
X589601Y1066028D01*
X589600Y1066029D01*
X588519Y1066020D01*
X588512Y1066015D01*
X588508Y1066019D01*
X587456Y1065770D01*
X587451Y1065763D01*
X587446Y1065766D01*
X586476Y1065289D01*
X586473Y1065281D01*
X586467Y1065283D01*
X585628Y1064602D01*
X585626Y1064594D01*
X585620Y1064594D01*
X584954Y1063744D01*
X584953Y1063735D01*
X584948Y1063734D01*
X584487Y1062757D01*
X584489Y1062749D01*
X584484Y1062746D01*
X584252Y1061691D01*
X584255Y1061683D01*
X584251Y1061680D01*
X584251Y1049680D01*
X584255Y1049675D01*
X584251Y1049672D01*
X584444Y1048566D01*
X584450Y1048561D01*
X584447Y1048556D01*
X584880Y1047521D01*
X584887Y1047517D01*
X584885Y1047512D01*
X585538Y1046599D01*
X585546Y1046597D01*
X585545Y1046591D01*
X586384Y1045847D01*
X586393Y1045846D01*
X586393Y1045841D01*
X587377Y1045302D01*
X587385Y1045303D01*
X587387Y1045298D01*
X588466Y1044991D01*
X588474Y1044994D01*
X588477Y1044989D01*
X589597Y1044931D01*
X589602Y1044934D01*
G37*
G36*
X361002Y1044934D02*
X361002Y1044934D01*
X361006Y1044931D01*
X362051Y1045049D01*
X362057Y1045055D01*
X362062Y1045051D01*
X363056Y1045399D01*
X363060Y1045406D01*
X363065Y1045404D01*
X363957Y1045964D01*
X363960Y1045971D01*
X363965Y1045971D01*
X364709Y1046715D01*
X364711Y1046723D01*
X364716Y1046723D01*
X365276Y1047615D01*
X365276Y1047622D01*
X365277Y1047623D01*
X365281Y1047624D01*
X365629Y1048618D01*
X365626Y1048626D01*
X365631Y1048629D01*
X365749Y1049675D01*
X365747Y1049678D01*
X365749Y1049680D01*
X365749Y1061680D01*
X365746Y1061685D01*
X365749Y1061688D01*
X365591Y1062684D01*
X365585Y1062690D01*
X365588Y1062695D01*
X365213Y1063631D01*
X365206Y1063635D01*
X365208Y1063641D01*
X364634Y1064470D01*
X364626Y1064473D01*
X364627Y1064478D01*
X363883Y1065159D01*
X363874Y1065160D01*
X363874Y1065166D01*
X362997Y1065664D01*
X362989Y1065663D01*
X362986Y1065668D01*
X362021Y1065959D01*
X362013Y1065956D01*
X362010Y1065961D01*
X361003Y1066029D01*
X361001Y1066028D01*
X361000Y1066029D01*
X359919Y1066020D01*
X359912Y1066015D01*
X359908Y1066019D01*
X358856Y1065770D01*
X358851Y1065763D01*
X358846Y1065766D01*
X357876Y1065289D01*
X357873Y1065281D01*
X357867Y1065283D01*
X357028Y1064602D01*
X357026Y1064594D01*
X357020Y1064594D01*
X356354Y1063744D01*
X356353Y1063735D01*
X356348Y1063734D01*
X355887Y1062757D01*
X355889Y1062749D01*
X355884Y1062746D01*
X355652Y1061691D01*
X355655Y1061683D01*
X355651Y1061680D01*
X355651Y1049680D01*
X355655Y1049675D01*
X355651Y1049672D01*
X355844Y1048566D01*
X355850Y1048561D01*
X355847Y1048556D01*
X356280Y1047521D01*
X356287Y1047517D01*
X356285Y1047512D01*
X356938Y1046599D01*
X356946Y1046597D01*
X356945Y1046591D01*
X357784Y1045847D01*
X357793Y1045846D01*
X357793Y1045841D01*
X358777Y1045302D01*
X358785Y1045303D01*
X358787Y1045298D01*
X359866Y1044991D01*
X359874Y1044994D01*
X359877Y1044989D01*
X360997Y1044931D01*
X361002Y1044934D01*
G37*
G36*
X960304Y1089436D02*
X960304Y1089436D01*
X960309Y1089432D01*
X961446Y1089639D01*
X961452Y1089645D01*
X961457Y1089642D01*
X962519Y1090097D01*
X962523Y1090104D01*
X962529Y1090102D01*
X963464Y1090782D01*
X963466Y1090790D01*
X963472Y1090789D01*
X964232Y1091660D01*
X964232Y1091668D01*
X964238Y1091669D01*
X964785Y1092688D01*
X964784Y1092696D01*
X964789Y1092698D01*
X964795Y1092717D01*
X964808Y1092766D01*
X964822Y1092816D01*
X964835Y1092865D01*
X964849Y1092914D01*
X964862Y1092963D01*
X964863Y1092963D01*
X964862Y1092963D01*
X964876Y1093013D01*
X964890Y1093062D01*
X964903Y1093111D01*
X964917Y1093160D01*
X964930Y1093210D01*
X964944Y1093259D01*
X964957Y1093308D01*
X964971Y1093357D01*
X964985Y1093407D01*
X964998Y1093456D01*
X965012Y1093505D01*
X965096Y1093812D01*
X965093Y1093820D01*
X965098Y1093823D01*
X965149Y1094978D01*
X965148Y1094979D01*
X965149Y1094980D01*
X965149Y1100980D01*
X965145Y1100986D01*
X965148Y1100989D01*
X964936Y1102070D01*
X964930Y1102075D01*
X964933Y1102080D01*
X964486Y1103086D01*
X964479Y1103090D01*
X964481Y1103096D01*
X963821Y1103977D01*
X963813Y1103980D01*
X963813Y1103985D01*
X962974Y1104698D01*
X962966Y1104698D01*
X962965Y1104704D01*
X961988Y1105212D01*
X961980Y1105211D01*
X961978Y1105216D01*
X960913Y1105494D01*
X960905Y1105491D01*
X960902Y1105495D01*
X959802Y1105529D01*
X959796Y1105526D01*
X959793Y1105529D01*
X958718Y1105374D01*
X958712Y1105368D01*
X958707Y1105371D01*
X957693Y1104981D01*
X957689Y1104974D01*
X957683Y1104976D01*
X956781Y1104369D01*
X956779Y1104361D01*
X956773Y1104362D01*
X956029Y1103570D01*
X956028Y1103562D01*
X956022Y1103562D01*
X955473Y1102624D01*
X955474Y1102616D01*
X955468Y1102614D01*
X955141Y1101578D01*
X955144Y1101570D01*
X955139Y1101567D01*
X955051Y1100484D01*
X955053Y1100481D01*
X955051Y1100480D01*
X955051Y1094480D01*
X955054Y1094476D01*
X955051Y1094474D01*
X955201Y1093341D01*
X955207Y1093335D01*
X955204Y1093330D01*
X955602Y1092260D01*
X955609Y1092256D01*
X955607Y1092250D01*
X956234Y1091295D01*
X956242Y1091292D01*
X956241Y1091287D01*
X957064Y1090495D01*
X957072Y1090494D01*
X957073Y1090488D01*
X958052Y1089899D01*
X958060Y1089900D01*
X958062Y1089895D01*
X959147Y1089539D01*
X959155Y1089542D01*
X959158Y1089537D01*
X960295Y1089431D01*
X960304Y1089436D01*
G37*
G36*
X503104Y1089436D02*
X503104Y1089436D01*
X503109Y1089432D01*
X504246Y1089639D01*
X504252Y1089645D01*
X504257Y1089642D01*
X505319Y1090097D01*
X505323Y1090104D01*
X505329Y1090102D01*
X506264Y1090782D01*
X506266Y1090790D01*
X506272Y1090789D01*
X507032Y1091660D01*
X507032Y1091668D01*
X507038Y1091669D01*
X507585Y1092688D01*
X507584Y1092696D01*
X507589Y1092698D01*
X507595Y1092717D01*
X507608Y1092766D01*
X507622Y1092816D01*
X507635Y1092865D01*
X507649Y1092914D01*
X507662Y1092963D01*
X507663Y1092963D01*
X507662Y1092963D01*
X507676Y1093013D01*
X507690Y1093062D01*
X507703Y1093111D01*
X507717Y1093160D01*
X507730Y1093210D01*
X507744Y1093259D01*
X507757Y1093308D01*
X507771Y1093357D01*
X507785Y1093407D01*
X507798Y1093456D01*
X507812Y1093505D01*
X507896Y1093812D01*
X507893Y1093820D01*
X507898Y1093823D01*
X507949Y1094978D01*
X507948Y1094979D01*
X507949Y1094980D01*
X507949Y1100980D01*
X507945Y1100986D01*
X507948Y1100989D01*
X507736Y1102070D01*
X507730Y1102075D01*
X507733Y1102080D01*
X507286Y1103086D01*
X507279Y1103090D01*
X507281Y1103096D01*
X506621Y1103977D01*
X506613Y1103980D01*
X506613Y1103985D01*
X505774Y1104698D01*
X505766Y1104698D01*
X505765Y1104704D01*
X504788Y1105212D01*
X504780Y1105211D01*
X504778Y1105216D01*
X503713Y1105494D01*
X503705Y1105491D01*
X503702Y1105495D01*
X502602Y1105529D01*
X502596Y1105526D01*
X502593Y1105529D01*
X501518Y1105374D01*
X501512Y1105368D01*
X501507Y1105371D01*
X500493Y1104981D01*
X500489Y1104974D01*
X500483Y1104976D01*
X499581Y1104369D01*
X499579Y1104361D01*
X499573Y1104362D01*
X498829Y1103570D01*
X498828Y1103562D01*
X498822Y1103562D01*
X498273Y1102624D01*
X498274Y1102616D01*
X498268Y1102614D01*
X497941Y1101578D01*
X497944Y1101570D01*
X497939Y1101567D01*
X497851Y1100484D01*
X497853Y1100481D01*
X497851Y1100480D01*
X497851Y1094480D01*
X497854Y1094476D01*
X497851Y1094474D01*
X498001Y1093341D01*
X498007Y1093335D01*
X498004Y1093330D01*
X498402Y1092260D01*
X498409Y1092256D01*
X498407Y1092250D01*
X499034Y1091295D01*
X499042Y1091292D01*
X499041Y1091287D01*
X499864Y1090495D01*
X499872Y1090494D01*
X499873Y1090488D01*
X500852Y1089899D01*
X500860Y1089900D01*
X500862Y1089895D01*
X501947Y1089539D01*
X501955Y1089542D01*
X501958Y1089537D01*
X503095Y1089431D01*
X503104Y1089436D01*
G37*
G36*
X274504Y1089436D02*
X274504Y1089436D01*
X274509Y1089432D01*
X275646Y1089639D01*
X275652Y1089645D01*
X275657Y1089642D01*
X276719Y1090097D01*
X276723Y1090104D01*
X276729Y1090102D01*
X277664Y1090782D01*
X277666Y1090790D01*
X277672Y1090789D01*
X278432Y1091660D01*
X278432Y1091668D01*
X278438Y1091669D01*
X278985Y1092688D01*
X278984Y1092696D01*
X278989Y1092698D01*
X278995Y1092717D01*
X279008Y1092766D01*
X279022Y1092816D01*
X279035Y1092865D01*
X279049Y1092914D01*
X279062Y1092963D01*
X279063Y1092963D01*
X279062Y1092963D01*
X279076Y1093013D01*
X279090Y1093062D01*
X279103Y1093111D01*
X279117Y1093160D01*
X279130Y1093210D01*
X279144Y1093259D01*
X279157Y1093308D01*
X279171Y1093357D01*
X279185Y1093407D01*
X279198Y1093456D01*
X279212Y1093505D01*
X279296Y1093812D01*
X279293Y1093820D01*
X279298Y1093823D01*
X279349Y1094978D01*
X279348Y1094979D01*
X279349Y1094980D01*
X279349Y1100980D01*
X279345Y1100986D01*
X279348Y1100989D01*
X279136Y1102070D01*
X279130Y1102075D01*
X279133Y1102080D01*
X278686Y1103086D01*
X278679Y1103090D01*
X278681Y1103096D01*
X278021Y1103977D01*
X278013Y1103980D01*
X278013Y1103985D01*
X277174Y1104698D01*
X277166Y1104698D01*
X277165Y1104704D01*
X276188Y1105212D01*
X276180Y1105211D01*
X276178Y1105216D01*
X275113Y1105494D01*
X275105Y1105491D01*
X275102Y1105495D01*
X274002Y1105529D01*
X273996Y1105526D01*
X273993Y1105529D01*
X272918Y1105374D01*
X272912Y1105368D01*
X272907Y1105371D01*
X271893Y1104981D01*
X271889Y1104974D01*
X271883Y1104976D01*
X270981Y1104369D01*
X270979Y1104361D01*
X270973Y1104362D01*
X270229Y1103570D01*
X270228Y1103562D01*
X270222Y1103562D01*
X269673Y1102624D01*
X269674Y1102616D01*
X269668Y1102614D01*
X269341Y1101578D01*
X269344Y1101570D01*
X269339Y1101567D01*
X269251Y1100484D01*
X269253Y1100481D01*
X269251Y1100480D01*
X269251Y1094480D01*
X269254Y1094476D01*
X269251Y1094474D01*
X269401Y1093341D01*
X269407Y1093335D01*
X269404Y1093330D01*
X269802Y1092260D01*
X269809Y1092256D01*
X269807Y1092250D01*
X270434Y1091295D01*
X270442Y1091292D01*
X270441Y1091287D01*
X271264Y1090495D01*
X271272Y1090494D01*
X271273Y1090488D01*
X272252Y1089899D01*
X272260Y1089900D01*
X272262Y1089895D01*
X273347Y1089539D01*
X273355Y1089542D01*
X273358Y1089537D01*
X274495Y1089431D01*
X274504Y1089436D01*
G37*
G36*
X45904Y1089436D02*
X45904Y1089436D01*
X45909Y1089432D01*
X47046Y1089639D01*
X47052Y1089645D01*
X47057Y1089642D01*
X48119Y1090097D01*
X48123Y1090104D01*
X48129Y1090102D01*
X49064Y1090782D01*
X49066Y1090790D01*
X49072Y1090789D01*
X49832Y1091660D01*
X49832Y1091668D01*
X49838Y1091669D01*
X50385Y1092688D01*
X50384Y1092696D01*
X50389Y1092698D01*
X50395Y1092717D01*
X50408Y1092766D01*
X50422Y1092816D01*
X50435Y1092865D01*
X50449Y1092914D01*
X50462Y1092963D01*
X50463Y1092963D01*
X50462Y1092963D01*
X50476Y1093013D01*
X50490Y1093062D01*
X50503Y1093111D01*
X50517Y1093160D01*
X50530Y1093210D01*
X50544Y1093259D01*
X50557Y1093308D01*
X50571Y1093357D01*
X50585Y1093407D01*
X50598Y1093456D01*
X50612Y1093505D01*
X50696Y1093812D01*
X50693Y1093820D01*
X50698Y1093823D01*
X50749Y1094978D01*
X50748Y1094979D01*
X50749Y1094980D01*
X50749Y1100980D01*
X50745Y1100986D01*
X50748Y1100989D01*
X50536Y1102070D01*
X50530Y1102075D01*
X50533Y1102080D01*
X50086Y1103086D01*
X50079Y1103090D01*
X50081Y1103096D01*
X49421Y1103977D01*
X49413Y1103980D01*
X49413Y1103985D01*
X48574Y1104698D01*
X48566Y1104698D01*
X48565Y1104704D01*
X47588Y1105212D01*
X47580Y1105211D01*
X47578Y1105216D01*
X46513Y1105494D01*
X46505Y1105491D01*
X46502Y1105495D01*
X45402Y1105529D01*
X45396Y1105526D01*
X45393Y1105529D01*
X44318Y1105374D01*
X44312Y1105368D01*
X44307Y1105371D01*
X43293Y1104981D01*
X43289Y1104974D01*
X43283Y1104976D01*
X42381Y1104369D01*
X42379Y1104361D01*
X42373Y1104362D01*
X41629Y1103570D01*
X41628Y1103562D01*
X41622Y1103562D01*
X41073Y1102624D01*
X41074Y1102616D01*
X41068Y1102614D01*
X40741Y1101578D01*
X40744Y1101570D01*
X40739Y1101567D01*
X40651Y1100484D01*
X40653Y1100481D01*
X40651Y1100480D01*
X40651Y1094480D01*
X40654Y1094476D01*
X40651Y1094474D01*
X40801Y1093341D01*
X40807Y1093335D01*
X40804Y1093330D01*
X41202Y1092260D01*
X41209Y1092256D01*
X41207Y1092250D01*
X41834Y1091295D01*
X41842Y1091292D01*
X41841Y1091287D01*
X42664Y1090495D01*
X42672Y1090494D01*
X42673Y1090488D01*
X43652Y1089899D01*
X43660Y1089900D01*
X43662Y1089895D01*
X44747Y1089539D01*
X44755Y1089542D01*
X44758Y1089537D01*
X45895Y1089431D01*
X45904Y1089436D01*
G37*
G36*
X45904Y200436D02*
X45904Y200436D01*
X45909Y200432D01*
X47046Y200639D01*
X47052Y200645D01*
X47057Y200642D01*
X48119Y201097D01*
X48123Y201104D01*
X48129Y201102D01*
X49064Y201782D01*
X49066Y201790D01*
X49072Y201789D01*
X49832Y202660D01*
X49832Y202668D01*
X49838Y202669D01*
X50385Y203688D01*
X50384Y203696D01*
X50389Y203698D01*
X50395Y203717D01*
X50408Y203766D01*
X50422Y203816D01*
X50435Y203865D01*
X50449Y203914D01*
X50462Y203963D01*
X50463Y203963D01*
X50462Y203963D01*
X50476Y204013D01*
X50490Y204062D01*
X50503Y204111D01*
X50517Y204160D01*
X50530Y204210D01*
X50544Y204259D01*
X50557Y204308D01*
X50571Y204357D01*
X50585Y204407D01*
X50598Y204456D01*
X50612Y204505D01*
X50696Y204812D01*
X50693Y204820D01*
X50698Y204823D01*
X50749Y205978D01*
X50748Y205979D01*
X50749Y205980D01*
X50749Y211980D01*
X50745Y211986D01*
X50748Y211989D01*
X50536Y213070D01*
X50530Y213075D01*
X50533Y213080D01*
X50086Y214086D01*
X50079Y214090D01*
X50081Y214096D01*
X49421Y214977D01*
X49413Y214980D01*
X49413Y214985D01*
X48574Y215698D01*
X48566Y215698D01*
X48565Y215704D01*
X47588Y216212D01*
X47580Y216211D01*
X47578Y216216D01*
X46513Y216494D01*
X46505Y216491D01*
X46502Y216495D01*
X45402Y216529D01*
X45396Y216526D01*
X45393Y216529D01*
X44318Y216374D01*
X44312Y216368D01*
X44307Y216371D01*
X43293Y215981D01*
X43289Y215974D01*
X43283Y215976D01*
X42381Y215369D01*
X42379Y215361D01*
X42373Y215362D01*
X41629Y214570D01*
X41628Y214562D01*
X41622Y214562D01*
X41073Y213624D01*
X41074Y213616D01*
X41068Y213614D01*
X40741Y212578D01*
X40744Y212570D01*
X40739Y212567D01*
X40651Y211484D01*
X40653Y211481D01*
X40651Y211480D01*
X40651Y205480D01*
X40654Y205476D01*
X40651Y205474D01*
X40801Y204341D01*
X40807Y204335D01*
X40804Y204330D01*
X41202Y203260D01*
X41209Y203256D01*
X41207Y203250D01*
X41834Y202295D01*
X41842Y202292D01*
X41841Y202287D01*
X42664Y201495D01*
X42672Y201494D01*
X42673Y201488D01*
X43652Y200899D01*
X43660Y200900D01*
X43662Y200895D01*
X44747Y200539D01*
X44755Y200542D01*
X44758Y200537D01*
X45895Y200431D01*
X45904Y200436D01*
G37*
G36*
X731704Y200436D02*
X731704Y200436D01*
X731709Y200432D01*
X732846Y200639D01*
X732852Y200645D01*
X732857Y200642D01*
X733919Y201097D01*
X733923Y201104D01*
X733929Y201102D01*
X734864Y201782D01*
X734866Y201790D01*
X734872Y201789D01*
X735632Y202660D01*
X735632Y202668D01*
X735638Y202669D01*
X736185Y203688D01*
X736184Y203696D01*
X736189Y203698D01*
X736195Y203717D01*
X736208Y203766D01*
X736222Y203816D01*
X736235Y203865D01*
X736249Y203914D01*
X736262Y203963D01*
X736263Y203963D01*
X736262Y203963D01*
X736276Y204013D01*
X736290Y204062D01*
X736303Y204111D01*
X736317Y204160D01*
X736330Y204210D01*
X736344Y204259D01*
X736357Y204308D01*
X736371Y204357D01*
X736385Y204407D01*
X736398Y204456D01*
X736412Y204505D01*
X736496Y204812D01*
X736493Y204820D01*
X736498Y204823D01*
X736549Y205978D01*
X736548Y205979D01*
X736549Y205980D01*
X736549Y211980D01*
X736545Y211986D01*
X736548Y211989D01*
X736336Y213070D01*
X736330Y213075D01*
X736333Y213080D01*
X735886Y214086D01*
X735879Y214090D01*
X735881Y214096D01*
X735221Y214977D01*
X735213Y214980D01*
X735213Y214985D01*
X734374Y215698D01*
X734366Y215698D01*
X734365Y215704D01*
X733388Y216212D01*
X733380Y216211D01*
X733378Y216216D01*
X732313Y216494D01*
X732305Y216491D01*
X732302Y216495D01*
X731202Y216529D01*
X731196Y216526D01*
X731193Y216529D01*
X730118Y216374D01*
X730112Y216368D01*
X730107Y216371D01*
X729093Y215981D01*
X729089Y215974D01*
X729083Y215976D01*
X728181Y215369D01*
X728179Y215361D01*
X728173Y215362D01*
X727429Y214570D01*
X727428Y214562D01*
X727422Y214562D01*
X726873Y213624D01*
X726874Y213616D01*
X726868Y213614D01*
X726541Y212578D01*
X726544Y212570D01*
X726539Y212567D01*
X726451Y211484D01*
X726453Y211481D01*
X726451Y211480D01*
X726451Y205480D01*
X726454Y205476D01*
X726451Y205474D01*
X726601Y204341D01*
X726607Y204335D01*
X726604Y204330D01*
X727002Y203260D01*
X727009Y203256D01*
X727007Y203250D01*
X727634Y202295D01*
X727642Y202292D01*
X727641Y202287D01*
X728464Y201495D01*
X728472Y201494D01*
X728473Y201488D01*
X729452Y200899D01*
X729460Y200900D01*
X729462Y200895D01*
X730547Y200539D01*
X730555Y200542D01*
X730558Y200537D01*
X731695Y200431D01*
X731704Y200436D01*
G37*
G36*
X274504Y200436D02*
X274504Y200436D01*
X274509Y200432D01*
X275646Y200639D01*
X275652Y200645D01*
X275657Y200642D01*
X276719Y201097D01*
X276723Y201104D01*
X276729Y201102D01*
X277664Y201782D01*
X277666Y201790D01*
X277672Y201789D01*
X278432Y202660D01*
X278432Y202668D01*
X278438Y202669D01*
X278985Y203688D01*
X278984Y203696D01*
X278989Y203698D01*
X278995Y203717D01*
X279008Y203766D01*
X279022Y203816D01*
X279035Y203865D01*
X279049Y203914D01*
X279062Y203963D01*
X279063Y203963D01*
X279062Y203963D01*
X279076Y204013D01*
X279090Y204062D01*
X279103Y204111D01*
X279117Y204160D01*
X279130Y204210D01*
X279144Y204259D01*
X279157Y204308D01*
X279171Y204357D01*
X279185Y204407D01*
X279198Y204456D01*
X279212Y204505D01*
X279296Y204812D01*
X279293Y204820D01*
X279298Y204823D01*
X279349Y205978D01*
X279348Y205979D01*
X279349Y205980D01*
X279349Y211980D01*
X279345Y211986D01*
X279348Y211989D01*
X279136Y213070D01*
X279130Y213075D01*
X279133Y213080D01*
X278686Y214086D01*
X278679Y214090D01*
X278681Y214096D01*
X278021Y214977D01*
X278013Y214980D01*
X278013Y214985D01*
X277174Y215698D01*
X277166Y215698D01*
X277165Y215704D01*
X276188Y216212D01*
X276180Y216211D01*
X276178Y216216D01*
X275113Y216494D01*
X275105Y216491D01*
X275102Y216495D01*
X274002Y216529D01*
X273996Y216526D01*
X273993Y216529D01*
X272918Y216374D01*
X272912Y216368D01*
X272907Y216371D01*
X271893Y215981D01*
X271889Y215974D01*
X271883Y215976D01*
X270981Y215369D01*
X270979Y215361D01*
X270973Y215362D01*
X270229Y214570D01*
X270228Y214562D01*
X270222Y214562D01*
X269673Y213624D01*
X269674Y213616D01*
X269668Y213614D01*
X269341Y212578D01*
X269344Y212570D01*
X269339Y212567D01*
X269251Y211484D01*
X269253Y211481D01*
X269251Y211480D01*
X269251Y205480D01*
X269254Y205476D01*
X269251Y205474D01*
X269401Y204341D01*
X269407Y204335D01*
X269404Y204330D01*
X269802Y203260D01*
X269809Y203256D01*
X269807Y203250D01*
X270434Y202295D01*
X270442Y202292D01*
X270441Y202287D01*
X271264Y201495D01*
X271272Y201494D01*
X271273Y201488D01*
X272252Y200899D01*
X272260Y200900D01*
X272262Y200895D01*
X273347Y200539D01*
X273355Y200542D01*
X273358Y200537D01*
X274495Y200431D01*
X274504Y200436D01*
G37*
G36*
X503104Y200436D02*
X503104Y200436D01*
X503109Y200432D01*
X504246Y200639D01*
X504252Y200645D01*
X504257Y200642D01*
X505319Y201097D01*
X505323Y201104D01*
X505329Y201102D01*
X506264Y201782D01*
X506266Y201790D01*
X506272Y201789D01*
X507032Y202660D01*
X507032Y202668D01*
X507038Y202669D01*
X507585Y203688D01*
X507584Y203696D01*
X507589Y203698D01*
X507595Y203717D01*
X507608Y203766D01*
X507622Y203816D01*
X507635Y203865D01*
X507649Y203914D01*
X507662Y203963D01*
X507663Y203963D01*
X507662Y203963D01*
X507676Y204013D01*
X507690Y204062D01*
X507703Y204111D01*
X507717Y204160D01*
X507730Y204210D01*
X507744Y204259D01*
X507757Y204308D01*
X507771Y204357D01*
X507785Y204407D01*
X507798Y204456D01*
X507812Y204505D01*
X507896Y204812D01*
X507893Y204820D01*
X507898Y204823D01*
X507949Y205978D01*
X507948Y205979D01*
X507949Y205980D01*
X507949Y211980D01*
X507945Y211986D01*
X507948Y211989D01*
X507736Y213070D01*
X507730Y213075D01*
X507733Y213080D01*
X507286Y214086D01*
X507279Y214090D01*
X507281Y214096D01*
X506621Y214977D01*
X506613Y214980D01*
X506613Y214985D01*
X505774Y215698D01*
X505766Y215698D01*
X505765Y215704D01*
X504788Y216212D01*
X504780Y216211D01*
X504778Y216216D01*
X503713Y216494D01*
X503705Y216491D01*
X503702Y216495D01*
X502602Y216529D01*
X502596Y216526D01*
X502593Y216529D01*
X501518Y216374D01*
X501512Y216368D01*
X501507Y216371D01*
X500493Y215981D01*
X500489Y215974D01*
X500483Y215976D01*
X499581Y215369D01*
X499579Y215361D01*
X499573Y215362D01*
X498829Y214570D01*
X498828Y214562D01*
X498822Y214562D01*
X498273Y213624D01*
X498274Y213616D01*
X498268Y213614D01*
X497941Y212578D01*
X497944Y212570D01*
X497939Y212567D01*
X497851Y211484D01*
X497853Y211481D01*
X497851Y211480D01*
X497851Y205480D01*
X497854Y205476D01*
X497851Y205474D01*
X498001Y204341D01*
X498007Y204335D01*
X498004Y204330D01*
X498402Y203260D01*
X498409Y203256D01*
X498407Y203250D01*
X499034Y202295D01*
X499042Y202292D01*
X499041Y202287D01*
X499864Y201495D01*
X499872Y201494D01*
X499873Y201488D01*
X500852Y200899D01*
X500860Y200900D01*
X500862Y200895D01*
X501947Y200539D01*
X501955Y200542D01*
X501958Y200537D01*
X503095Y200431D01*
X503104Y200436D01*
G37*
G36*
X960304Y200436D02*
X960304Y200436D01*
X960309Y200432D01*
X961446Y200639D01*
X961452Y200645D01*
X961457Y200642D01*
X962519Y201097D01*
X962523Y201104D01*
X962529Y201102D01*
X963464Y201782D01*
X963466Y201790D01*
X963472Y201789D01*
X964232Y202660D01*
X964232Y202668D01*
X964238Y202669D01*
X964785Y203688D01*
X964784Y203696D01*
X964789Y203698D01*
X964795Y203717D01*
X964808Y203766D01*
X964822Y203816D01*
X964835Y203865D01*
X964849Y203914D01*
X964862Y203963D01*
X964863Y203963D01*
X964862Y203963D01*
X964876Y204013D01*
X964890Y204062D01*
X964903Y204111D01*
X964917Y204160D01*
X964930Y204210D01*
X964944Y204259D01*
X964957Y204308D01*
X964971Y204357D01*
X964985Y204407D01*
X964998Y204456D01*
X965012Y204505D01*
X965096Y204812D01*
X965093Y204820D01*
X965098Y204823D01*
X965149Y205978D01*
X965148Y205979D01*
X965149Y205980D01*
X965149Y211980D01*
X965145Y211986D01*
X965148Y211989D01*
X964936Y213070D01*
X964930Y213075D01*
X964933Y213080D01*
X964486Y214086D01*
X964479Y214090D01*
X964481Y214096D01*
X963821Y214977D01*
X963813Y214980D01*
X963813Y214985D01*
X962974Y215698D01*
X962966Y215698D01*
X962965Y215704D01*
X961988Y216212D01*
X961980Y216211D01*
X961978Y216216D01*
X960913Y216494D01*
X960905Y216491D01*
X960902Y216495D01*
X959802Y216529D01*
X959796Y216526D01*
X959793Y216529D01*
X958718Y216374D01*
X958712Y216368D01*
X958707Y216371D01*
X957693Y215981D01*
X957689Y215974D01*
X957683Y215976D01*
X956781Y215369D01*
X956779Y215361D01*
X956773Y215362D01*
X956029Y214570D01*
X956028Y214562D01*
X956022Y214562D01*
X955473Y213624D01*
X955474Y213616D01*
X955468Y213614D01*
X955141Y212578D01*
X955144Y212570D01*
X955139Y212567D01*
X955051Y211484D01*
X955053Y211481D01*
X955051Y211480D01*
X955051Y205480D01*
X955054Y205476D01*
X955051Y205474D01*
X955201Y204341D01*
X955207Y204335D01*
X955204Y204330D01*
X955602Y203260D01*
X955609Y203256D01*
X955607Y203250D01*
X956234Y202295D01*
X956242Y202292D01*
X956241Y202287D01*
X957064Y201495D01*
X957072Y201494D01*
X957073Y201488D01*
X958052Y200899D01*
X958060Y200900D01*
X958062Y200895D01*
X959147Y200539D01*
X959155Y200542D01*
X959158Y200537D01*
X960295Y200431D01*
X960304Y200436D01*
G37*
G36*
X274504Y644936D02*
X274504Y644936D01*
X274509Y644932D01*
X275646Y645139D01*
X275652Y645145D01*
X275657Y645142D01*
X276719Y645597D01*
X276723Y645604D01*
X276729Y645602D01*
X277664Y646282D01*
X277666Y646290D01*
X277672Y646289D01*
X278432Y647160D01*
X278432Y647168D01*
X278438Y647169D01*
X278985Y648188D01*
X278984Y648196D01*
X278989Y648198D01*
X278995Y648217D01*
X279008Y648266D01*
X279022Y648316D01*
X279035Y648365D01*
X279049Y648414D01*
X279062Y648463D01*
X279063Y648463D01*
X279062Y648463D01*
X279076Y648513D01*
X279090Y648562D01*
X279103Y648611D01*
X279117Y648660D01*
X279130Y648710D01*
X279144Y648759D01*
X279157Y648808D01*
X279171Y648857D01*
X279185Y648907D01*
X279198Y648956D01*
X279212Y649005D01*
X279296Y649312D01*
X279293Y649320D01*
X279298Y649323D01*
X279349Y650478D01*
X279348Y650479D01*
X279349Y650480D01*
X279349Y656480D01*
X279345Y656486D01*
X279348Y656489D01*
X279136Y657570D01*
X279130Y657575D01*
X279133Y657580D01*
X278686Y658586D01*
X278679Y658590D01*
X278681Y658596D01*
X278021Y659477D01*
X278013Y659480D01*
X278013Y659485D01*
X277174Y660198D01*
X277166Y660198D01*
X277165Y660204D01*
X276188Y660712D01*
X276180Y660711D01*
X276178Y660716D01*
X275113Y660994D01*
X275105Y660991D01*
X275102Y660995D01*
X274002Y661029D01*
X273996Y661026D01*
X273993Y661029D01*
X272918Y660874D01*
X272912Y660868D01*
X272907Y660871D01*
X271893Y660481D01*
X271889Y660474D01*
X271883Y660476D01*
X270981Y659869D01*
X270979Y659861D01*
X270973Y659862D01*
X270229Y659070D01*
X270228Y659062D01*
X270222Y659062D01*
X269673Y658124D01*
X269674Y658116D01*
X269668Y658114D01*
X269341Y657078D01*
X269344Y657070D01*
X269339Y657067D01*
X269251Y655984D01*
X269253Y655981D01*
X269251Y655980D01*
X269251Y649980D01*
X269254Y649976D01*
X269251Y649974D01*
X269401Y648841D01*
X269407Y648835D01*
X269404Y648830D01*
X269802Y647760D01*
X269809Y647756D01*
X269807Y647750D01*
X270434Y646795D01*
X270442Y646792D01*
X270441Y646787D01*
X271264Y645995D01*
X271272Y645994D01*
X271273Y645988D01*
X272252Y645399D01*
X272260Y645400D01*
X272262Y645395D01*
X273347Y645039D01*
X273355Y645042D01*
X273358Y645037D01*
X274495Y644931D01*
X274504Y644936D01*
G37*
G36*
X731704Y644936D02*
X731704Y644936D01*
X731709Y644932D01*
X732846Y645139D01*
X732852Y645145D01*
X732857Y645142D01*
X733919Y645597D01*
X733923Y645604D01*
X733929Y645602D01*
X734864Y646282D01*
X734866Y646290D01*
X734872Y646289D01*
X735632Y647160D01*
X735632Y647168D01*
X735638Y647169D01*
X736185Y648188D01*
X736184Y648196D01*
X736189Y648198D01*
X736195Y648217D01*
X736208Y648266D01*
X736222Y648316D01*
X736235Y648365D01*
X736249Y648414D01*
X736262Y648463D01*
X736263Y648463D01*
X736262Y648463D01*
X736276Y648513D01*
X736290Y648562D01*
X736303Y648611D01*
X736317Y648660D01*
X736330Y648710D01*
X736344Y648759D01*
X736357Y648808D01*
X736371Y648857D01*
X736385Y648907D01*
X736398Y648956D01*
X736412Y649005D01*
X736496Y649312D01*
X736493Y649320D01*
X736498Y649323D01*
X736549Y650478D01*
X736548Y650479D01*
X736549Y650480D01*
X736549Y656480D01*
X736545Y656486D01*
X736548Y656489D01*
X736336Y657570D01*
X736330Y657575D01*
X736333Y657580D01*
X735886Y658586D01*
X735879Y658590D01*
X735881Y658596D01*
X735221Y659477D01*
X735213Y659480D01*
X735213Y659485D01*
X734374Y660198D01*
X734366Y660198D01*
X734365Y660204D01*
X733388Y660712D01*
X733380Y660711D01*
X733378Y660716D01*
X732313Y660994D01*
X732305Y660991D01*
X732302Y660995D01*
X731202Y661029D01*
X731196Y661026D01*
X731193Y661029D01*
X730118Y660874D01*
X730112Y660868D01*
X730107Y660871D01*
X729093Y660481D01*
X729089Y660474D01*
X729083Y660476D01*
X728181Y659869D01*
X728179Y659861D01*
X728173Y659862D01*
X727429Y659070D01*
X727428Y659062D01*
X727422Y659062D01*
X726873Y658124D01*
X726874Y658116D01*
X726868Y658114D01*
X726541Y657078D01*
X726544Y657070D01*
X726539Y657067D01*
X726451Y655984D01*
X726453Y655981D01*
X726451Y655980D01*
X726451Y649980D01*
X726454Y649976D01*
X726451Y649974D01*
X726601Y648841D01*
X726607Y648835D01*
X726604Y648830D01*
X727002Y647760D01*
X727009Y647756D01*
X727007Y647750D01*
X727634Y646795D01*
X727642Y646792D01*
X727641Y646787D01*
X728464Y645995D01*
X728472Y645994D01*
X728473Y645988D01*
X729452Y645399D01*
X729460Y645400D01*
X729462Y645395D01*
X730547Y645039D01*
X730555Y645042D01*
X730558Y645037D01*
X731695Y644931D01*
X731704Y644936D01*
G37*
G36*
X731704Y1089436D02*
X731704Y1089436D01*
X731709Y1089432D01*
X732846Y1089639D01*
X732852Y1089645D01*
X732857Y1089642D01*
X733919Y1090097D01*
X733923Y1090104D01*
X733929Y1090102D01*
X734864Y1090782D01*
X734866Y1090790D01*
X734872Y1090789D01*
X735632Y1091660D01*
X735632Y1091668D01*
X735638Y1091669D01*
X736185Y1092688D01*
X736184Y1092696D01*
X736189Y1092698D01*
X736195Y1092717D01*
X736208Y1092766D01*
X736222Y1092816D01*
X736235Y1092865D01*
X736249Y1092914D01*
X736262Y1092963D01*
X736263Y1092963D01*
X736262Y1092963D01*
X736276Y1093013D01*
X736290Y1093062D01*
X736303Y1093111D01*
X736317Y1093160D01*
X736330Y1093210D01*
X736344Y1093259D01*
X736357Y1093308D01*
X736371Y1093357D01*
X736385Y1093407D01*
X736398Y1093456D01*
X736412Y1093505D01*
X736496Y1093812D01*
X736493Y1093820D01*
X736498Y1093823D01*
X736549Y1094978D01*
X736548Y1094979D01*
X736549Y1094980D01*
X736549Y1100980D01*
X736545Y1100986D01*
X736548Y1100989D01*
X736336Y1102070D01*
X736330Y1102075D01*
X736333Y1102080D01*
X735886Y1103086D01*
X735879Y1103090D01*
X735881Y1103096D01*
X735221Y1103977D01*
X735213Y1103980D01*
X735213Y1103985D01*
X734374Y1104698D01*
X734366Y1104698D01*
X734365Y1104704D01*
X733388Y1105212D01*
X733380Y1105211D01*
X733378Y1105216D01*
X732313Y1105494D01*
X732305Y1105491D01*
X732302Y1105495D01*
X731202Y1105529D01*
X731196Y1105526D01*
X731193Y1105529D01*
X730118Y1105374D01*
X730112Y1105368D01*
X730107Y1105371D01*
X729093Y1104981D01*
X729089Y1104974D01*
X729083Y1104976D01*
X728181Y1104369D01*
X728179Y1104361D01*
X728173Y1104362D01*
X727429Y1103570D01*
X727428Y1103562D01*
X727422Y1103562D01*
X726873Y1102624D01*
X726874Y1102616D01*
X726868Y1102614D01*
X726541Y1101578D01*
X726544Y1101570D01*
X726539Y1101567D01*
X726451Y1100484D01*
X726453Y1100481D01*
X726451Y1100480D01*
X726451Y1094480D01*
X726454Y1094476D01*
X726451Y1094474D01*
X726601Y1093341D01*
X726607Y1093335D01*
X726604Y1093330D01*
X727002Y1092260D01*
X727009Y1092256D01*
X727007Y1092250D01*
X727634Y1091295D01*
X727642Y1091292D01*
X727641Y1091287D01*
X728464Y1090495D01*
X728472Y1090494D01*
X728473Y1090488D01*
X729452Y1089899D01*
X729460Y1089900D01*
X729462Y1089895D01*
X730547Y1089539D01*
X730555Y1089542D01*
X730558Y1089537D01*
X731695Y1089431D01*
X731704Y1089436D01*
G37*
G36*
X45904Y644936D02*
X45904Y644936D01*
X45909Y644932D01*
X47046Y645139D01*
X47052Y645145D01*
X47057Y645142D01*
X48119Y645597D01*
X48123Y645604D01*
X48129Y645602D01*
X49064Y646282D01*
X49066Y646290D01*
X49072Y646289D01*
X49832Y647160D01*
X49832Y647168D01*
X49838Y647169D01*
X50385Y648188D01*
X50384Y648196D01*
X50389Y648198D01*
X50395Y648217D01*
X50408Y648266D01*
X50422Y648316D01*
X50435Y648365D01*
X50449Y648414D01*
X50462Y648463D01*
X50463Y648463D01*
X50462Y648463D01*
X50476Y648513D01*
X50490Y648562D01*
X50503Y648611D01*
X50517Y648660D01*
X50530Y648710D01*
X50544Y648759D01*
X50557Y648808D01*
X50571Y648857D01*
X50585Y648907D01*
X50598Y648956D01*
X50612Y649005D01*
X50696Y649312D01*
X50693Y649320D01*
X50698Y649323D01*
X50749Y650478D01*
X50748Y650479D01*
X50749Y650480D01*
X50749Y656480D01*
X50745Y656486D01*
X50748Y656489D01*
X50536Y657570D01*
X50530Y657575D01*
X50533Y657580D01*
X50086Y658586D01*
X50079Y658590D01*
X50081Y658596D01*
X49421Y659477D01*
X49413Y659480D01*
X49413Y659485D01*
X48574Y660198D01*
X48566Y660198D01*
X48565Y660204D01*
X47588Y660712D01*
X47580Y660711D01*
X47578Y660716D01*
X46513Y660994D01*
X46505Y660991D01*
X46502Y660995D01*
X45402Y661029D01*
X45396Y661026D01*
X45393Y661029D01*
X44318Y660874D01*
X44312Y660868D01*
X44307Y660871D01*
X43293Y660481D01*
X43289Y660474D01*
X43283Y660476D01*
X42381Y659869D01*
X42379Y659861D01*
X42373Y659862D01*
X41629Y659070D01*
X41628Y659062D01*
X41622Y659062D01*
X41073Y658124D01*
X41074Y658116D01*
X41068Y658114D01*
X40741Y657078D01*
X40744Y657070D01*
X40739Y657067D01*
X40651Y655984D01*
X40653Y655981D01*
X40651Y655980D01*
X40651Y649980D01*
X40654Y649976D01*
X40651Y649974D01*
X40801Y648841D01*
X40807Y648835D01*
X40804Y648830D01*
X41202Y647760D01*
X41209Y647756D01*
X41207Y647750D01*
X41834Y646795D01*
X41842Y646792D01*
X41841Y646787D01*
X42664Y645995D01*
X42672Y645994D01*
X42673Y645988D01*
X43652Y645399D01*
X43660Y645400D01*
X43662Y645395D01*
X44747Y645039D01*
X44755Y645042D01*
X44758Y645037D01*
X45895Y644931D01*
X45904Y644936D01*
G37*
G36*
X960304Y644936D02*
X960304Y644936D01*
X960309Y644932D01*
X961446Y645139D01*
X961452Y645145D01*
X961457Y645142D01*
X962519Y645597D01*
X962523Y645604D01*
X962529Y645602D01*
X963464Y646282D01*
X963466Y646290D01*
X963472Y646289D01*
X964232Y647160D01*
X964232Y647168D01*
X964238Y647169D01*
X964785Y648188D01*
X964784Y648196D01*
X964789Y648198D01*
X964795Y648217D01*
X964808Y648266D01*
X964822Y648316D01*
X964835Y648365D01*
X964849Y648414D01*
X964862Y648463D01*
X964863Y648463D01*
X964862Y648463D01*
X964876Y648513D01*
X964890Y648562D01*
X964903Y648611D01*
X964917Y648660D01*
X964930Y648710D01*
X964944Y648759D01*
X964957Y648808D01*
X964971Y648857D01*
X964985Y648907D01*
X964998Y648956D01*
X965012Y649005D01*
X965096Y649312D01*
X965093Y649320D01*
X965098Y649323D01*
X965149Y650478D01*
X965148Y650479D01*
X965149Y650480D01*
X965149Y656480D01*
X965145Y656486D01*
X965148Y656489D01*
X964936Y657570D01*
X964930Y657575D01*
X964933Y657580D01*
X964486Y658586D01*
X964479Y658590D01*
X964481Y658596D01*
X963821Y659477D01*
X963813Y659480D01*
X963813Y659485D01*
X962974Y660198D01*
X962966Y660198D01*
X962965Y660204D01*
X961988Y660712D01*
X961980Y660711D01*
X961978Y660716D01*
X960913Y660994D01*
X960905Y660991D01*
X960902Y660995D01*
X959802Y661029D01*
X959796Y661026D01*
X959793Y661029D01*
X958718Y660874D01*
X958712Y660868D01*
X958707Y660871D01*
X957693Y660481D01*
X957689Y660474D01*
X957683Y660476D01*
X956781Y659869D01*
X956779Y659861D01*
X956773Y659862D01*
X956029Y659070D01*
X956028Y659062D01*
X956022Y659062D01*
X955473Y658124D01*
X955474Y658116D01*
X955468Y658114D01*
X955141Y657078D01*
X955144Y657070D01*
X955139Y657067D01*
X955051Y655984D01*
X955053Y655981D01*
X955051Y655980D01*
X955051Y649980D01*
X955054Y649976D01*
X955051Y649974D01*
X955201Y648841D01*
X955207Y648835D01*
X955204Y648830D01*
X955602Y647760D01*
X955609Y647756D01*
X955607Y647750D01*
X956234Y646795D01*
X956242Y646792D01*
X956241Y646787D01*
X957064Y645995D01*
X957072Y645994D01*
X957073Y645988D01*
X958052Y645399D01*
X958060Y645400D01*
X958062Y645395D01*
X959147Y645039D01*
X959155Y645042D01*
X959158Y645037D01*
X960295Y644931D01*
X960304Y644936D01*
G37*
G36*
X503104Y644936D02*
X503104Y644936D01*
X503109Y644932D01*
X504246Y645139D01*
X504252Y645145D01*
X504257Y645142D01*
X505319Y645597D01*
X505323Y645604D01*
X505329Y645602D01*
X506264Y646282D01*
X506266Y646290D01*
X506272Y646289D01*
X507032Y647160D01*
X507032Y647168D01*
X507038Y647169D01*
X507585Y648188D01*
X507584Y648196D01*
X507589Y648198D01*
X507595Y648217D01*
X507608Y648266D01*
X507622Y648316D01*
X507635Y648365D01*
X507649Y648414D01*
X507662Y648463D01*
X507663Y648463D01*
X507662Y648463D01*
X507676Y648513D01*
X507690Y648562D01*
X507703Y648611D01*
X507717Y648660D01*
X507730Y648710D01*
X507744Y648759D01*
X507757Y648808D01*
X507771Y648857D01*
X507785Y648907D01*
X507798Y648956D01*
X507812Y649005D01*
X507896Y649312D01*
X507893Y649320D01*
X507898Y649323D01*
X507949Y650478D01*
X507948Y650479D01*
X507949Y650480D01*
X507949Y656480D01*
X507945Y656486D01*
X507948Y656489D01*
X507736Y657570D01*
X507730Y657575D01*
X507733Y657580D01*
X507286Y658586D01*
X507279Y658590D01*
X507281Y658596D01*
X506621Y659477D01*
X506613Y659480D01*
X506613Y659485D01*
X505774Y660198D01*
X505766Y660198D01*
X505765Y660204D01*
X504788Y660712D01*
X504780Y660711D01*
X504778Y660716D01*
X503713Y660994D01*
X503705Y660991D01*
X503702Y660995D01*
X502602Y661029D01*
X502596Y661026D01*
X502593Y661029D01*
X501518Y660874D01*
X501512Y660868D01*
X501507Y660871D01*
X500493Y660481D01*
X500489Y660474D01*
X500483Y660476D01*
X499581Y659869D01*
X499579Y659861D01*
X499573Y659862D01*
X498829Y659070D01*
X498828Y659062D01*
X498822Y659062D01*
X498273Y658124D01*
X498274Y658116D01*
X498268Y658114D01*
X497941Y657078D01*
X497944Y657070D01*
X497939Y657067D01*
X497851Y655984D01*
X497853Y655981D01*
X497851Y655980D01*
X497851Y649980D01*
X497854Y649976D01*
X497851Y649974D01*
X498001Y648841D01*
X498007Y648835D01*
X498004Y648830D01*
X498402Y647760D01*
X498409Y647756D01*
X498407Y647750D01*
X499034Y646795D01*
X499042Y646792D01*
X499041Y646787D01*
X499864Y645995D01*
X499872Y645994D01*
X499873Y645988D01*
X500852Y645399D01*
X500860Y645400D01*
X500862Y645395D01*
X501947Y645039D01*
X501955Y645042D01*
X501958Y645037D01*
X503095Y644931D01*
X503104Y644936D01*
G37*
G36*
X818842Y1089537D02*
X818842Y1089537D01*
X818848Y1089542D01*
X818853Y1089539D01*
X819938Y1089895D01*
X819943Y1089902D01*
X819948Y1089899D01*
X820927Y1090488D01*
X820930Y1090496D01*
X820936Y1090495D01*
X821759Y1091287D01*
X821760Y1091295D01*
X821766Y1091295D01*
X822393Y1092250D01*
X822392Y1092258D01*
X822398Y1092260D01*
X822796Y1093330D01*
X822794Y1093338D01*
X822799Y1093341D01*
X822949Y1094474D01*
X822946Y1094478D01*
X822949Y1094480D01*
X822949Y1100480D01*
X822946Y1100484D01*
X822949Y1100486D01*
X822799Y1101619D01*
X822793Y1101625D01*
X822796Y1101630D01*
X822398Y1102700D01*
X822391Y1102704D01*
X822393Y1102710D01*
X821766Y1103665D01*
X821758Y1103668D01*
X821759Y1103673D01*
X820936Y1104465D01*
X820928Y1104466D01*
X820927Y1104472D01*
X819948Y1105061D01*
X819940Y1105060D01*
X819938Y1105065D01*
X818853Y1105421D01*
X818845Y1105419D01*
X818842Y1105423D01*
X817705Y1105529D01*
X817698Y1105525D01*
X817694Y1105529D01*
X816606Y1105384D01*
X816600Y1105378D01*
X816595Y1105381D01*
X815567Y1104998D01*
X815562Y1104991D01*
X815557Y1104993D01*
X814640Y1104390D01*
X814637Y1104382D01*
X814631Y1104383D01*
X813871Y1103591D01*
X813870Y1103583D01*
X813864Y1103582D01*
X813300Y1102641D01*
X813301Y1102633D01*
X813295Y1102631D01*
X812954Y1101588D01*
X812956Y1101580D01*
X812952Y1101577D01*
X812851Y1100485D01*
X812853Y1100482D01*
X812851Y1100480D01*
X812851Y1094480D01*
X812853Y1094477D01*
X812851Y1094476D01*
X812952Y1093383D01*
X812957Y1093377D01*
X812954Y1093372D01*
X813295Y1092329D01*
X813302Y1092324D01*
X813300Y1092319D01*
X813864Y1091378D01*
X813872Y1091375D01*
X813871Y1091369D01*
X814631Y1090577D01*
X814639Y1090576D01*
X814640Y1090570D01*
X815557Y1089968D01*
X815565Y1089968D01*
X815567Y1089963D01*
X816595Y1089579D01*
X816603Y1089581D01*
X816606Y1089576D01*
X817694Y1089431D01*
X817701Y1089435D01*
X817705Y1089431D01*
X818842Y1089537D01*
G37*
G36*
X1047442Y1089537D02*
X1047442Y1089537D01*
X1047448Y1089542D01*
X1047453Y1089539D01*
X1048538Y1089895D01*
X1048543Y1089902D01*
X1048548Y1089899D01*
X1049527Y1090488D01*
X1049530Y1090496D01*
X1049536Y1090495D01*
X1050359Y1091287D01*
X1050360Y1091295D01*
X1050366Y1091295D01*
X1050993Y1092250D01*
X1050992Y1092258D01*
X1050998Y1092260D01*
X1051396Y1093330D01*
X1051394Y1093338D01*
X1051399Y1093341D01*
X1051549Y1094474D01*
X1051546Y1094478D01*
X1051549Y1094480D01*
X1051549Y1100480D01*
X1051546Y1100484D01*
X1051549Y1100486D01*
X1051399Y1101619D01*
X1051393Y1101625D01*
X1051396Y1101630D01*
X1050998Y1102700D01*
X1050991Y1102704D01*
X1050993Y1102710D01*
X1050366Y1103665D01*
X1050358Y1103668D01*
X1050359Y1103673D01*
X1049536Y1104465D01*
X1049528Y1104466D01*
X1049527Y1104472D01*
X1048548Y1105061D01*
X1048540Y1105060D01*
X1048538Y1105065D01*
X1047453Y1105421D01*
X1047445Y1105419D01*
X1047442Y1105423D01*
X1046305Y1105529D01*
X1046298Y1105525D01*
X1046294Y1105529D01*
X1045206Y1105384D01*
X1045200Y1105378D01*
X1045195Y1105381D01*
X1044167Y1104998D01*
X1044162Y1104991D01*
X1044157Y1104993D01*
X1043240Y1104390D01*
X1043237Y1104382D01*
X1043231Y1104383D01*
X1042471Y1103591D01*
X1042470Y1103583D01*
X1042464Y1103582D01*
X1041900Y1102641D01*
X1041901Y1102633D01*
X1041895Y1102631D01*
X1041554Y1101588D01*
X1041556Y1101580D01*
X1041552Y1101577D01*
X1041451Y1100485D01*
X1041453Y1100482D01*
X1041451Y1100480D01*
X1041451Y1094480D01*
X1041453Y1094477D01*
X1041451Y1094476D01*
X1041552Y1093383D01*
X1041557Y1093377D01*
X1041554Y1093372D01*
X1041895Y1092329D01*
X1041902Y1092324D01*
X1041900Y1092319D01*
X1042464Y1091378D01*
X1042472Y1091375D01*
X1042471Y1091369D01*
X1043231Y1090577D01*
X1043239Y1090576D01*
X1043240Y1090570D01*
X1044157Y1089968D01*
X1044165Y1089968D01*
X1044167Y1089963D01*
X1045195Y1089579D01*
X1045203Y1089581D01*
X1045206Y1089576D01*
X1046294Y1089431D01*
X1046301Y1089435D01*
X1046305Y1089431D01*
X1047442Y1089537D01*
G37*
G36*
X361642Y1089537D02*
X361642Y1089537D01*
X361648Y1089542D01*
X361653Y1089539D01*
X362738Y1089895D01*
X362743Y1089902D01*
X362748Y1089899D01*
X363727Y1090488D01*
X363730Y1090496D01*
X363736Y1090495D01*
X364559Y1091287D01*
X364560Y1091295D01*
X364566Y1091295D01*
X365193Y1092250D01*
X365192Y1092258D01*
X365198Y1092260D01*
X365596Y1093330D01*
X365594Y1093338D01*
X365599Y1093341D01*
X365749Y1094474D01*
X365746Y1094478D01*
X365749Y1094480D01*
X365749Y1100480D01*
X365746Y1100484D01*
X365749Y1100486D01*
X365599Y1101619D01*
X365593Y1101625D01*
X365596Y1101630D01*
X365198Y1102700D01*
X365191Y1102704D01*
X365193Y1102710D01*
X364566Y1103665D01*
X364558Y1103668D01*
X364559Y1103673D01*
X363736Y1104465D01*
X363728Y1104466D01*
X363727Y1104472D01*
X362748Y1105061D01*
X362740Y1105060D01*
X362738Y1105065D01*
X361653Y1105421D01*
X361645Y1105419D01*
X361642Y1105423D01*
X360505Y1105529D01*
X360498Y1105525D01*
X360494Y1105529D01*
X359406Y1105384D01*
X359400Y1105378D01*
X359395Y1105381D01*
X358367Y1104998D01*
X358362Y1104991D01*
X358357Y1104993D01*
X357440Y1104390D01*
X357437Y1104382D01*
X357431Y1104383D01*
X356671Y1103591D01*
X356670Y1103583D01*
X356664Y1103582D01*
X356100Y1102641D01*
X356101Y1102633D01*
X356095Y1102631D01*
X355754Y1101588D01*
X355756Y1101580D01*
X355752Y1101577D01*
X355651Y1100485D01*
X355653Y1100482D01*
X355651Y1100480D01*
X355651Y1094480D01*
X355653Y1094477D01*
X355651Y1094476D01*
X355752Y1093383D01*
X355757Y1093377D01*
X355754Y1093372D01*
X356095Y1092329D01*
X356102Y1092324D01*
X356100Y1092319D01*
X356664Y1091378D01*
X356672Y1091375D01*
X356671Y1091369D01*
X357431Y1090577D01*
X357439Y1090576D01*
X357440Y1090570D01*
X358357Y1089968D01*
X358365Y1089968D01*
X358367Y1089963D01*
X359395Y1089579D01*
X359403Y1089581D01*
X359406Y1089576D01*
X360494Y1089431D01*
X360501Y1089435D01*
X360505Y1089431D01*
X361642Y1089537D01*
G37*
G36*
X133042Y1089537D02*
X133042Y1089537D01*
X133048Y1089542D01*
X133053Y1089539D01*
X134138Y1089895D01*
X134143Y1089902D01*
X134148Y1089899D01*
X135127Y1090488D01*
X135130Y1090496D01*
X135136Y1090495D01*
X135959Y1091287D01*
X135960Y1091295D01*
X135966Y1091295D01*
X136593Y1092250D01*
X136592Y1092258D01*
X136598Y1092260D01*
X136996Y1093330D01*
X136994Y1093338D01*
X136999Y1093341D01*
X137149Y1094474D01*
X137146Y1094478D01*
X137149Y1094480D01*
X137149Y1100480D01*
X137146Y1100484D01*
X137149Y1100486D01*
X136999Y1101619D01*
X136993Y1101625D01*
X136996Y1101630D01*
X136598Y1102700D01*
X136591Y1102704D01*
X136593Y1102710D01*
X135966Y1103665D01*
X135958Y1103668D01*
X135959Y1103673D01*
X135136Y1104465D01*
X135128Y1104466D01*
X135127Y1104472D01*
X134148Y1105061D01*
X134140Y1105060D01*
X134138Y1105065D01*
X133053Y1105421D01*
X133045Y1105419D01*
X133042Y1105423D01*
X131905Y1105529D01*
X131898Y1105525D01*
X131894Y1105529D01*
X130806Y1105384D01*
X130800Y1105378D01*
X130795Y1105381D01*
X129767Y1104998D01*
X129762Y1104991D01*
X129757Y1104993D01*
X128840Y1104390D01*
X128837Y1104382D01*
X128831Y1104383D01*
X128071Y1103591D01*
X128070Y1103583D01*
X128064Y1103582D01*
X127500Y1102641D01*
X127501Y1102633D01*
X127495Y1102631D01*
X127154Y1101588D01*
X127156Y1101580D01*
X127152Y1101577D01*
X127051Y1100485D01*
X127053Y1100482D01*
X127051Y1100480D01*
X127051Y1094480D01*
X127053Y1094477D01*
X127051Y1094476D01*
X127152Y1093383D01*
X127157Y1093377D01*
X127154Y1093372D01*
X127495Y1092329D01*
X127502Y1092324D01*
X127500Y1092319D01*
X128064Y1091378D01*
X128072Y1091375D01*
X128071Y1091369D01*
X128831Y1090577D01*
X128839Y1090576D01*
X128840Y1090570D01*
X129757Y1089968D01*
X129765Y1089968D01*
X129767Y1089963D01*
X130795Y1089579D01*
X130803Y1089581D01*
X130806Y1089576D01*
X131894Y1089431D01*
X131901Y1089435D01*
X131905Y1089431D01*
X133042Y1089537D01*
G37*
G36*
X590242Y1089537D02*
X590242Y1089537D01*
X590248Y1089542D01*
X590253Y1089539D01*
X591338Y1089895D01*
X591343Y1089902D01*
X591348Y1089899D01*
X592327Y1090488D01*
X592330Y1090496D01*
X592336Y1090495D01*
X593159Y1091287D01*
X593160Y1091295D01*
X593166Y1091295D01*
X593793Y1092250D01*
X593792Y1092258D01*
X593798Y1092260D01*
X594196Y1093330D01*
X594194Y1093338D01*
X594199Y1093341D01*
X594349Y1094474D01*
X594346Y1094478D01*
X594349Y1094480D01*
X594349Y1100480D01*
X594346Y1100484D01*
X594349Y1100486D01*
X594199Y1101619D01*
X594193Y1101625D01*
X594196Y1101630D01*
X593798Y1102700D01*
X593791Y1102704D01*
X593793Y1102710D01*
X593166Y1103665D01*
X593158Y1103668D01*
X593159Y1103673D01*
X592336Y1104465D01*
X592328Y1104466D01*
X592327Y1104472D01*
X591348Y1105061D01*
X591340Y1105060D01*
X591338Y1105065D01*
X590253Y1105421D01*
X590245Y1105419D01*
X590242Y1105423D01*
X589105Y1105529D01*
X589098Y1105525D01*
X589094Y1105529D01*
X588006Y1105384D01*
X588000Y1105378D01*
X587995Y1105381D01*
X586967Y1104998D01*
X586962Y1104991D01*
X586957Y1104993D01*
X586040Y1104390D01*
X586037Y1104382D01*
X586031Y1104383D01*
X585271Y1103591D01*
X585270Y1103583D01*
X585264Y1103582D01*
X584700Y1102641D01*
X584701Y1102633D01*
X584695Y1102631D01*
X584354Y1101588D01*
X584356Y1101580D01*
X584352Y1101577D01*
X584251Y1100485D01*
X584253Y1100482D01*
X584251Y1100480D01*
X584251Y1094480D01*
X584253Y1094477D01*
X584251Y1094476D01*
X584352Y1093383D01*
X584357Y1093377D01*
X584354Y1093372D01*
X584695Y1092329D01*
X584702Y1092324D01*
X584700Y1092319D01*
X585264Y1091378D01*
X585272Y1091375D01*
X585271Y1091369D01*
X586031Y1090577D01*
X586039Y1090576D01*
X586040Y1090570D01*
X586957Y1089968D01*
X586965Y1089968D01*
X586967Y1089963D01*
X587995Y1089579D01*
X588003Y1089581D01*
X588006Y1089576D01*
X589094Y1089431D01*
X589101Y1089435D01*
X589105Y1089431D01*
X590242Y1089537D01*
G37*
G36*
X1047442Y645037D02*
X1047442Y645037D01*
X1047448Y645042D01*
X1047453Y645039D01*
X1048538Y645395D01*
X1048543Y645402D01*
X1048548Y645399D01*
X1049527Y645988D01*
X1049530Y645996D01*
X1049536Y645995D01*
X1050359Y646787D01*
X1050360Y646795D01*
X1050366Y646795D01*
X1050993Y647750D01*
X1050992Y647758D01*
X1050998Y647760D01*
X1051396Y648830D01*
X1051394Y648838D01*
X1051399Y648841D01*
X1051549Y649974D01*
X1051546Y649978D01*
X1051549Y649980D01*
X1051549Y655980D01*
X1051546Y655984D01*
X1051549Y655986D01*
X1051399Y657119D01*
X1051393Y657125D01*
X1051396Y657130D01*
X1050998Y658200D01*
X1050991Y658204D01*
X1050993Y658210D01*
X1050366Y659165D01*
X1050358Y659168D01*
X1050359Y659173D01*
X1049536Y659965D01*
X1049528Y659966D01*
X1049527Y659972D01*
X1048548Y660561D01*
X1048540Y660560D01*
X1048538Y660565D01*
X1047453Y660921D01*
X1047445Y660919D01*
X1047442Y660923D01*
X1046305Y661029D01*
X1046298Y661025D01*
X1046294Y661029D01*
X1045206Y660884D01*
X1045200Y660878D01*
X1045195Y660881D01*
X1044167Y660498D01*
X1044162Y660491D01*
X1044157Y660493D01*
X1043240Y659890D01*
X1043237Y659882D01*
X1043231Y659883D01*
X1042471Y659091D01*
X1042470Y659083D01*
X1042464Y659082D01*
X1041900Y658141D01*
X1041901Y658133D01*
X1041895Y658131D01*
X1041554Y657088D01*
X1041556Y657080D01*
X1041552Y657077D01*
X1041451Y655985D01*
X1041453Y655982D01*
X1041451Y655980D01*
X1041451Y649980D01*
X1041453Y649977D01*
X1041451Y649976D01*
X1041552Y648883D01*
X1041557Y648877D01*
X1041554Y648872D01*
X1041895Y647829D01*
X1041902Y647824D01*
X1041900Y647819D01*
X1042464Y646878D01*
X1042472Y646875D01*
X1042471Y646869D01*
X1043231Y646077D01*
X1043239Y646076D01*
X1043240Y646070D01*
X1044157Y645468D01*
X1044165Y645468D01*
X1044167Y645463D01*
X1045195Y645079D01*
X1045203Y645081D01*
X1045206Y645076D01*
X1046294Y644931D01*
X1046301Y644935D01*
X1046305Y644931D01*
X1047442Y645037D01*
G37*
G36*
X361642Y645037D02*
X361642Y645037D01*
X361648Y645042D01*
X361653Y645039D01*
X362738Y645395D01*
X362743Y645402D01*
X362748Y645399D01*
X363727Y645988D01*
X363730Y645996D01*
X363736Y645995D01*
X364559Y646787D01*
X364560Y646795D01*
X364566Y646795D01*
X365193Y647750D01*
X365192Y647758D01*
X365198Y647760D01*
X365596Y648830D01*
X365594Y648838D01*
X365599Y648841D01*
X365749Y649974D01*
X365746Y649978D01*
X365749Y649980D01*
X365749Y655980D01*
X365746Y655984D01*
X365749Y655986D01*
X365599Y657119D01*
X365593Y657125D01*
X365596Y657130D01*
X365198Y658200D01*
X365191Y658204D01*
X365193Y658210D01*
X364566Y659165D01*
X364558Y659168D01*
X364559Y659173D01*
X363736Y659965D01*
X363728Y659966D01*
X363727Y659972D01*
X362748Y660561D01*
X362740Y660560D01*
X362738Y660565D01*
X361653Y660921D01*
X361645Y660919D01*
X361642Y660923D01*
X360505Y661029D01*
X360498Y661025D01*
X360494Y661029D01*
X359406Y660884D01*
X359400Y660878D01*
X359395Y660881D01*
X358367Y660498D01*
X358362Y660491D01*
X358357Y660493D01*
X357440Y659890D01*
X357437Y659882D01*
X357431Y659883D01*
X356671Y659091D01*
X356670Y659083D01*
X356664Y659082D01*
X356100Y658141D01*
X356101Y658133D01*
X356095Y658131D01*
X355754Y657088D01*
X355756Y657080D01*
X355752Y657077D01*
X355651Y655985D01*
X355653Y655982D01*
X355651Y655980D01*
X355651Y649980D01*
X355653Y649977D01*
X355651Y649976D01*
X355752Y648883D01*
X355757Y648877D01*
X355754Y648872D01*
X356095Y647829D01*
X356102Y647824D01*
X356100Y647819D01*
X356664Y646878D01*
X356672Y646875D01*
X356671Y646869D01*
X357431Y646077D01*
X357439Y646076D01*
X357440Y646070D01*
X358357Y645468D01*
X358365Y645468D01*
X358367Y645463D01*
X359395Y645079D01*
X359403Y645081D01*
X359406Y645076D01*
X360494Y644931D01*
X360501Y644935D01*
X360505Y644931D01*
X361642Y645037D01*
G37*
G36*
X1047442Y200537D02*
X1047442Y200537D01*
X1047448Y200542D01*
X1047453Y200539D01*
X1048538Y200895D01*
X1048543Y200902D01*
X1048548Y200899D01*
X1049527Y201488D01*
X1049530Y201496D01*
X1049536Y201495D01*
X1050359Y202287D01*
X1050360Y202295D01*
X1050366Y202295D01*
X1050993Y203250D01*
X1050992Y203258D01*
X1050998Y203260D01*
X1051396Y204330D01*
X1051394Y204338D01*
X1051399Y204341D01*
X1051549Y205474D01*
X1051546Y205478D01*
X1051549Y205480D01*
X1051549Y211480D01*
X1051546Y211484D01*
X1051549Y211486D01*
X1051399Y212619D01*
X1051393Y212625D01*
X1051396Y212630D01*
X1050998Y213700D01*
X1050991Y213704D01*
X1050993Y213710D01*
X1050366Y214665D01*
X1050358Y214668D01*
X1050359Y214673D01*
X1049536Y215465D01*
X1049528Y215466D01*
X1049527Y215472D01*
X1048548Y216061D01*
X1048540Y216060D01*
X1048538Y216065D01*
X1047453Y216421D01*
X1047445Y216419D01*
X1047442Y216423D01*
X1046305Y216529D01*
X1046298Y216525D01*
X1046294Y216529D01*
X1045206Y216384D01*
X1045200Y216378D01*
X1045195Y216381D01*
X1044167Y215998D01*
X1044162Y215991D01*
X1044157Y215993D01*
X1043240Y215390D01*
X1043237Y215382D01*
X1043231Y215383D01*
X1042471Y214591D01*
X1042470Y214583D01*
X1042464Y214582D01*
X1041900Y213641D01*
X1041901Y213633D01*
X1041895Y213631D01*
X1041554Y212588D01*
X1041556Y212580D01*
X1041552Y212577D01*
X1041451Y211485D01*
X1041453Y211482D01*
X1041451Y211480D01*
X1041451Y205480D01*
X1041453Y205477D01*
X1041451Y205476D01*
X1041552Y204383D01*
X1041557Y204377D01*
X1041554Y204372D01*
X1041895Y203329D01*
X1041902Y203324D01*
X1041900Y203319D01*
X1042464Y202378D01*
X1042472Y202375D01*
X1042471Y202369D01*
X1043231Y201577D01*
X1043239Y201576D01*
X1043240Y201570D01*
X1044157Y200968D01*
X1044165Y200968D01*
X1044167Y200963D01*
X1045195Y200579D01*
X1045203Y200581D01*
X1045206Y200576D01*
X1046294Y200431D01*
X1046301Y200435D01*
X1046305Y200431D01*
X1047442Y200537D01*
G37*
G36*
X133042Y200537D02*
X133042Y200537D01*
X133048Y200542D01*
X133053Y200539D01*
X134138Y200895D01*
X134143Y200902D01*
X134148Y200899D01*
X135127Y201488D01*
X135130Y201496D01*
X135136Y201495D01*
X135959Y202287D01*
X135960Y202295D01*
X135966Y202295D01*
X136593Y203250D01*
X136592Y203258D01*
X136598Y203260D01*
X136996Y204330D01*
X136994Y204338D01*
X136999Y204341D01*
X137149Y205474D01*
X137146Y205478D01*
X137149Y205480D01*
X137149Y211480D01*
X137146Y211484D01*
X137149Y211486D01*
X136999Y212619D01*
X136993Y212625D01*
X136996Y212630D01*
X136598Y213700D01*
X136591Y213704D01*
X136593Y213710D01*
X135966Y214665D01*
X135958Y214668D01*
X135959Y214673D01*
X135136Y215465D01*
X135128Y215466D01*
X135127Y215472D01*
X134148Y216061D01*
X134140Y216060D01*
X134138Y216065D01*
X133053Y216421D01*
X133045Y216419D01*
X133042Y216423D01*
X131905Y216529D01*
X131898Y216525D01*
X131894Y216529D01*
X130806Y216384D01*
X130800Y216378D01*
X130795Y216381D01*
X129767Y215998D01*
X129762Y215991D01*
X129757Y215993D01*
X128840Y215390D01*
X128837Y215382D01*
X128831Y215383D01*
X128071Y214591D01*
X128070Y214583D01*
X128064Y214582D01*
X127500Y213641D01*
X127501Y213633D01*
X127495Y213631D01*
X127154Y212588D01*
X127156Y212580D01*
X127152Y212577D01*
X127051Y211485D01*
X127053Y211482D01*
X127051Y211480D01*
X127051Y205480D01*
X127053Y205477D01*
X127051Y205476D01*
X127152Y204383D01*
X127157Y204377D01*
X127154Y204372D01*
X127495Y203329D01*
X127502Y203324D01*
X127500Y203319D01*
X128064Y202378D01*
X128072Y202375D01*
X128071Y202369D01*
X128831Y201577D01*
X128839Y201576D01*
X128840Y201570D01*
X129757Y200968D01*
X129765Y200968D01*
X129767Y200963D01*
X130795Y200579D01*
X130803Y200581D01*
X130806Y200576D01*
X131894Y200431D01*
X131901Y200435D01*
X131905Y200431D01*
X133042Y200537D01*
G37*
G36*
X361642Y200537D02*
X361642Y200537D01*
X361648Y200542D01*
X361653Y200539D01*
X362738Y200895D01*
X362743Y200902D01*
X362748Y200899D01*
X363727Y201488D01*
X363730Y201496D01*
X363736Y201495D01*
X364559Y202287D01*
X364560Y202295D01*
X364566Y202295D01*
X365193Y203250D01*
X365192Y203258D01*
X365198Y203260D01*
X365596Y204330D01*
X365594Y204338D01*
X365599Y204341D01*
X365749Y205474D01*
X365746Y205478D01*
X365749Y205480D01*
X365749Y211480D01*
X365746Y211484D01*
X365749Y211486D01*
X365599Y212619D01*
X365593Y212625D01*
X365596Y212630D01*
X365198Y213700D01*
X365191Y213704D01*
X365193Y213710D01*
X364566Y214665D01*
X364558Y214668D01*
X364559Y214673D01*
X363736Y215465D01*
X363728Y215466D01*
X363727Y215472D01*
X362748Y216061D01*
X362740Y216060D01*
X362738Y216065D01*
X361653Y216421D01*
X361645Y216419D01*
X361642Y216423D01*
X360505Y216529D01*
X360498Y216525D01*
X360494Y216529D01*
X359406Y216384D01*
X359400Y216378D01*
X359395Y216381D01*
X358367Y215998D01*
X358362Y215991D01*
X358357Y215993D01*
X357440Y215390D01*
X357437Y215382D01*
X357431Y215383D01*
X356671Y214591D01*
X356670Y214583D01*
X356664Y214582D01*
X356100Y213641D01*
X356101Y213633D01*
X356095Y213631D01*
X355754Y212588D01*
X355756Y212580D01*
X355752Y212577D01*
X355651Y211485D01*
X355653Y211482D01*
X355651Y211480D01*
X355651Y205480D01*
X355653Y205477D01*
X355651Y205476D01*
X355752Y204383D01*
X355757Y204377D01*
X355754Y204372D01*
X356095Y203329D01*
X356102Y203324D01*
X356100Y203319D01*
X356664Y202378D01*
X356672Y202375D01*
X356671Y202369D01*
X357431Y201577D01*
X357439Y201576D01*
X357440Y201570D01*
X358357Y200968D01*
X358365Y200968D01*
X358367Y200963D01*
X359395Y200579D01*
X359403Y200581D01*
X359406Y200576D01*
X360494Y200431D01*
X360501Y200435D01*
X360505Y200431D01*
X361642Y200537D01*
G37*
G36*
X818842Y200537D02*
X818842Y200537D01*
X818848Y200542D01*
X818853Y200539D01*
X819938Y200895D01*
X819943Y200902D01*
X819948Y200899D01*
X820927Y201488D01*
X820930Y201496D01*
X820936Y201495D01*
X821759Y202287D01*
X821760Y202295D01*
X821766Y202295D01*
X822393Y203250D01*
X822392Y203258D01*
X822398Y203260D01*
X822796Y204330D01*
X822794Y204338D01*
X822799Y204341D01*
X822949Y205474D01*
X822946Y205478D01*
X822949Y205480D01*
X822949Y211480D01*
X822946Y211484D01*
X822949Y211486D01*
X822799Y212619D01*
X822793Y212625D01*
X822796Y212630D01*
X822398Y213700D01*
X822391Y213704D01*
X822393Y213710D01*
X821766Y214665D01*
X821758Y214668D01*
X821759Y214673D01*
X820936Y215465D01*
X820928Y215466D01*
X820927Y215472D01*
X819948Y216061D01*
X819940Y216060D01*
X819938Y216065D01*
X818853Y216421D01*
X818845Y216419D01*
X818842Y216423D01*
X817705Y216529D01*
X817698Y216525D01*
X817694Y216529D01*
X816606Y216384D01*
X816600Y216378D01*
X816595Y216381D01*
X815567Y215998D01*
X815562Y215991D01*
X815557Y215993D01*
X814640Y215390D01*
X814637Y215382D01*
X814631Y215383D01*
X813871Y214591D01*
X813870Y214583D01*
X813864Y214582D01*
X813300Y213641D01*
X813301Y213633D01*
X813295Y213631D01*
X812954Y212588D01*
X812956Y212580D01*
X812952Y212577D01*
X812851Y211485D01*
X812853Y211482D01*
X812851Y211480D01*
X812851Y205480D01*
X812853Y205477D01*
X812851Y205476D01*
X812952Y204383D01*
X812957Y204377D01*
X812954Y204372D01*
X813295Y203329D01*
X813302Y203324D01*
X813300Y203319D01*
X813864Y202378D01*
X813872Y202375D01*
X813871Y202369D01*
X814631Y201577D01*
X814639Y201576D01*
X814640Y201570D01*
X815557Y200968D01*
X815565Y200968D01*
X815567Y200963D01*
X816595Y200579D01*
X816603Y200581D01*
X816606Y200576D01*
X817694Y200431D01*
X817701Y200435D01*
X817705Y200431D01*
X818842Y200537D01*
G37*
G36*
X818842Y645037D02*
X818842Y645037D01*
X818848Y645042D01*
X818853Y645039D01*
X819938Y645395D01*
X819943Y645402D01*
X819948Y645399D01*
X820927Y645988D01*
X820930Y645996D01*
X820936Y645995D01*
X821759Y646787D01*
X821760Y646795D01*
X821766Y646795D01*
X822393Y647750D01*
X822392Y647758D01*
X822398Y647760D01*
X822796Y648830D01*
X822794Y648838D01*
X822799Y648841D01*
X822949Y649974D01*
X822946Y649978D01*
X822949Y649980D01*
X822949Y655980D01*
X822946Y655984D01*
X822949Y655986D01*
X822799Y657119D01*
X822793Y657125D01*
X822796Y657130D01*
X822398Y658200D01*
X822391Y658204D01*
X822393Y658210D01*
X821766Y659165D01*
X821758Y659168D01*
X821759Y659173D01*
X820936Y659965D01*
X820928Y659966D01*
X820927Y659972D01*
X819948Y660561D01*
X819940Y660560D01*
X819938Y660565D01*
X818853Y660921D01*
X818845Y660919D01*
X818842Y660923D01*
X817705Y661029D01*
X817698Y661025D01*
X817694Y661029D01*
X816606Y660884D01*
X816600Y660878D01*
X816595Y660881D01*
X815567Y660498D01*
X815562Y660491D01*
X815557Y660493D01*
X814640Y659890D01*
X814637Y659882D01*
X814631Y659883D01*
X813871Y659091D01*
X813870Y659083D01*
X813864Y659082D01*
X813300Y658141D01*
X813301Y658133D01*
X813295Y658131D01*
X812954Y657088D01*
X812956Y657080D01*
X812952Y657077D01*
X812851Y655985D01*
X812853Y655982D01*
X812851Y655980D01*
X812851Y649980D01*
X812853Y649977D01*
X812851Y649976D01*
X812952Y648883D01*
X812957Y648877D01*
X812954Y648872D01*
X813295Y647829D01*
X813302Y647824D01*
X813300Y647819D01*
X813864Y646878D01*
X813872Y646875D01*
X813871Y646869D01*
X814631Y646077D01*
X814639Y646076D01*
X814640Y646070D01*
X815557Y645468D01*
X815565Y645468D01*
X815567Y645463D01*
X816595Y645079D01*
X816603Y645081D01*
X816606Y645076D01*
X817694Y644931D01*
X817701Y644935D01*
X817705Y644931D01*
X818842Y645037D01*
G37*
G36*
X590242Y645037D02*
X590242Y645037D01*
X590248Y645042D01*
X590253Y645039D01*
X591338Y645395D01*
X591343Y645402D01*
X591348Y645399D01*
X592327Y645988D01*
X592330Y645996D01*
X592336Y645995D01*
X593159Y646787D01*
X593160Y646795D01*
X593166Y646795D01*
X593793Y647750D01*
X593792Y647758D01*
X593798Y647760D01*
X594196Y648830D01*
X594194Y648838D01*
X594199Y648841D01*
X594349Y649974D01*
X594346Y649978D01*
X594349Y649980D01*
X594349Y655980D01*
X594346Y655984D01*
X594349Y655986D01*
X594199Y657119D01*
X594193Y657125D01*
X594196Y657130D01*
X593798Y658200D01*
X593791Y658204D01*
X593793Y658210D01*
X593166Y659165D01*
X593158Y659168D01*
X593159Y659173D01*
X592336Y659965D01*
X592328Y659966D01*
X592327Y659972D01*
X591348Y660561D01*
X591340Y660560D01*
X591338Y660565D01*
X590253Y660921D01*
X590245Y660919D01*
X590242Y660923D01*
X589105Y661029D01*
X589098Y661025D01*
X589094Y661029D01*
X588006Y660884D01*
X588000Y660878D01*
X587995Y660881D01*
X586967Y660498D01*
X586962Y660491D01*
X586957Y660493D01*
X586040Y659890D01*
X586037Y659882D01*
X586031Y659883D01*
X585271Y659091D01*
X585270Y659083D01*
X585264Y659082D01*
X584700Y658141D01*
X584701Y658133D01*
X584695Y658131D01*
X584354Y657088D01*
X584356Y657080D01*
X584352Y657077D01*
X584251Y655985D01*
X584253Y655982D01*
X584251Y655980D01*
X584251Y649980D01*
X584253Y649977D01*
X584251Y649976D01*
X584352Y648883D01*
X584357Y648877D01*
X584354Y648872D01*
X584695Y647829D01*
X584702Y647824D01*
X584700Y647819D01*
X585264Y646878D01*
X585272Y646875D01*
X585271Y646869D01*
X586031Y646077D01*
X586039Y646076D01*
X586040Y646070D01*
X586957Y645468D01*
X586965Y645468D01*
X586967Y645463D01*
X587995Y645079D01*
X588003Y645081D01*
X588006Y645076D01*
X589094Y644931D01*
X589101Y644935D01*
X589105Y644931D01*
X590242Y645037D01*
G37*
G36*
X133042Y645037D02*
X133042Y645037D01*
X133048Y645042D01*
X133053Y645039D01*
X134138Y645395D01*
X134143Y645402D01*
X134148Y645399D01*
X135127Y645988D01*
X135130Y645996D01*
X135136Y645995D01*
X135959Y646787D01*
X135960Y646795D01*
X135966Y646795D01*
X136593Y647750D01*
X136592Y647758D01*
X136598Y647760D01*
X136996Y648830D01*
X136994Y648838D01*
X136999Y648841D01*
X137149Y649974D01*
X137146Y649978D01*
X137149Y649980D01*
X137149Y655980D01*
X137146Y655984D01*
X137149Y655986D01*
X136999Y657119D01*
X136993Y657125D01*
X136996Y657130D01*
X136598Y658200D01*
X136591Y658204D01*
X136593Y658210D01*
X135966Y659165D01*
X135958Y659168D01*
X135959Y659173D01*
X135136Y659965D01*
X135128Y659966D01*
X135127Y659972D01*
X134148Y660561D01*
X134140Y660560D01*
X134138Y660565D01*
X133053Y660921D01*
X133045Y660919D01*
X133042Y660923D01*
X131905Y661029D01*
X131898Y661025D01*
X131894Y661029D01*
X130806Y660884D01*
X130800Y660878D01*
X130795Y660881D01*
X129767Y660498D01*
X129762Y660491D01*
X129757Y660493D01*
X128840Y659890D01*
X128837Y659882D01*
X128831Y659883D01*
X128071Y659091D01*
X128070Y659083D01*
X128064Y659082D01*
X127500Y658141D01*
X127501Y658133D01*
X127495Y658131D01*
X127154Y657088D01*
X127156Y657080D01*
X127152Y657077D01*
X127051Y655985D01*
X127053Y655982D01*
X127051Y655980D01*
X127051Y649980D01*
X127053Y649977D01*
X127051Y649976D01*
X127152Y648883D01*
X127157Y648877D01*
X127154Y648872D01*
X127495Y647829D01*
X127502Y647824D01*
X127500Y647819D01*
X128064Y646878D01*
X128072Y646875D01*
X128071Y646869D01*
X128831Y646077D01*
X128839Y646076D01*
X128840Y646070D01*
X129757Y645468D01*
X129765Y645468D01*
X129767Y645463D01*
X130795Y645079D01*
X130803Y645081D01*
X130806Y645076D01*
X131894Y644931D01*
X131901Y644935D01*
X131905Y644931D01*
X133042Y645037D01*
G37*
G36*
X590242Y200537D02*
X590242Y200537D01*
X590248Y200542D01*
X590253Y200539D01*
X591338Y200895D01*
X591343Y200902D01*
X591348Y200899D01*
X592327Y201488D01*
X592330Y201496D01*
X592336Y201495D01*
X593159Y202287D01*
X593160Y202295D01*
X593166Y202295D01*
X593793Y203250D01*
X593792Y203258D01*
X593798Y203260D01*
X594196Y204330D01*
X594194Y204338D01*
X594199Y204341D01*
X594349Y205474D01*
X594346Y205478D01*
X594349Y205480D01*
X594349Y211480D01*
X594346Y211484D01*
X594349Y211486D01*
X594199Y212619D01*
X594193Y212625D01*
X594196Y212630D01*
X593798Y213700D01*
X593791Y213704D01*
X593793Y213710D01*
X593166Y214665D01*
X593158Y214668D01*
X593159Y214673D01*
X592336Y215465D01*
X592328Y215466D01*
X592327Y215472D01*
X591348Y216061D01*
X591340Y216060D01*
X591338Y216065D01*
X590253Y216421D01*
X590245Y216419D01*
X590242Y216423D01*
X589105Y216529D01*
X589098Y216525D01*
X589094Y216529D01*
X588006Y216384D01*
X588000Y216378D01*
X587995Y216381D01*
X586967Y215998D01*
X586962Y215991D01*
X586957Y215993D01*
X586040Y215390D01*
X586037Y215382D01*
X586031Y215383D01*
X585271Y214591D01*
X585270Y214583D01*
X585264Y214582D01*
X584700Y213641D01*
X584701Y213633D01*
X584695Y213631D01*
X584354Y212588D01*
X584356Y212580D01*
X584352Y212577D01*
X584251Y211485D01*
X584253Y211482D01*
X584251Y211480D01*
X584251Y205480D01*
X584253Y205477D01*
X584251Y205476D01*
X584352Y204383D01*
X584357Y204377D01*
X584354Y204372D01*
X584695Y203329D01*
X584702Y203324D01*
X584700Y203319D01*
X585264Y202378D01*
X585272Y202375D01*
X585271Y202369D01*
X586031Y201577D01*
X586039Y201576D01*
X586040Y201570D01*
X586957Y200968D01*
X586965Y200968D01*
X586967Y200963D01*
X587995Y200579D01*
X588003Y200581D01*
X588006Y200576D01*
X589094Y200431D01*
X589101Y200435D01*
X589105Y200431D01*
X590242Y200537D01*
G37*
D10*
X39370Y137080D03*
X39370Y127080D03*
D11*
X24320Y199700D02*
X24320Y206700D01*
X31320Y206700D01*
X31320Y199700D01*
X24320Y199700D01*
X24320Y202550D02*
X31320Y202550D01*
X31320Y205400D02*
X24320Y205400D01*
X6780Y206700D02*
X6780Y199700D01*
X6780Y206700D02*
X13780Y206700D01*
X13780Y199700D01*
X6780Y199700D01*
X6780Y202550D02*
X13780Y202550D01*
X13780Y205400D02*
X6780Y205400D01*
D10*
X111840Y-57150D03*
X121840Y-57150D03*
X119300Y140970D03*
X109300Y140970D03*
D12*
X50800Y141080D03*
X50800Y123080D03*
D13*
X66040Y143580D03*
X66040Y120580D03*
D14*
X98400Y145081D03*
X88900Y145081D03*
X79400Y145081D03*
X79400Y119079D03*
X98400Y119079D03*
D10*
X40640Y194230D03*
X40640Y184230D03*
X137160Y194230D03*
X137160Y184230D03*
X119300Y132080D03*
X109300Y132080D03*
X119300Y123190D03*
X109300Y123190D03*
D15*
X131700Y-63320D03*
X147700Y-63320D03*
X147700Y-104320D03*
X131700Y-104320D03*
D16*
X60900Y-95170D03*
X116900Y-95170D03*
D17*
X73900Y-58420D03*
X83900Y-58420D03*
X93900Y-58420D03*
X103900Y-58420D03*
D10*
X111840Y-39370D03*
X121840Y-39370D03*
X111840Y-48260D03*
X121840Y-48260D03*
D18*
X81400Y160880D03*
X86400Y160880D03*
D19*
X56650Y160880D03*
X64400Y160880D03*
D18*
X71400Y160880D03*
X76400Y160880D03*
X96400Y160880D03*
X91400Y160880D03*
D19*
X121150Y160880D03*
X113400Y160880D03*
D18*
X106400Y160880D03*
X101400Y160880D03*
D10*
X65960Y-57150D03*
X55960Y-57150D03*
X65960Y-39370D03*
X55960Y-39370D03*
D20*
X54650Y7080D03*
D10*
X78900Y15080D03*
D20*
X54650Y11080D03*
X54650Y15080D03*
X54650Y19080D03*
X54650Y23080D03*
X54650Y27080D03*
X54650Y31080D03*
X54650Y-20920D03*
X54650Y-16920D03*
X54650Y-12920D03*
X54650Y-8920D03*
X54650Y-4920D03*
X54650Y-920D03*
X54650Y3080D03*
D21*
X86900Y-29170D03*
X82900Y-29170D03*
X78900Y-29170D03*
X74900Y-29170D03*
X70900Y-29170D03*
X66900Y-29170D03*
X62900Y-29170D03*
X114900Y-29170D03*
X110900Y-29170D03*
X106900Y-29170D03*
X102900Y-29170D03*
X98900Y-29170D03*
X94900Y-29170D03*
X90900Y-29170D03*
D20*
X123150Y3080D03*
X123150Y-920D03*
X123150Y-4920D03*
X123150Y-8920D03*
X123150Y-12920D03*
X123150Y-16920D03*
X123150Y-20920D03*
X123150Y31080D03*
X123150Y27080D03*
X123150Y23080D03*
X123150Y19080D03*
X123150Y15080D03*
X123150Y11080D03*
X123150Y7080D03*
D21*
X90900Y39330D03*
X94900Y39330D03*
X98900Y39330D03*
X102900Y39330D03*
X106900Y39330D03*
X110900Y39330D03*
X114900Y39330D03*
X62900Y39330D03*
X66900Y39330D03*
X70900Y39330D03*
X74900Y39330D03*
X78900Y39330D03*
X82900Y39330D03*
X86900Y39330D03*
D10*
X78900Y-4920D03*
X98900Y-4920D03*
X98900Y15080D03*
X88900Y5080D03*
X55960Y-48260D03*
X65960Y-48260D03*
X39370Y-2460D03*
X39370Y7540D03*
X83740Y-43180D03*
X73740Y-43180D03*
X125730Y50880D03*
X125730Y60880D03*
X130810Y-40720D03*
X130810Y-50720D03*
X41910Y31830D03*
X41910Y41830D03*
X133350Y50880D03*
X133350Y60880D03*
X94060Y-43180D03*
X104060Y-43180D03*
X73580Y52070D03*
X63580Y52070D03*
X139700Y149780D03*
X139700Y139780D03*
X127000Y149780D03*
X127000Y139780D03*
X104220Y52070D03*
X114220Y52070D03*
X83900Y52070D03*
X93900Y52070D03*
X133350Y78660D03*
X133350Y68660D03*
X125730Y78660D03*
X125730Y68660D03*
D22*
X45370Y-33540D03*
X28370Y-33540D03*
X28370Y-47540D03*
X45370Y-47540D03*
D10*
X125730Y97710D03*
X125730Y87710D03*
D23*
X61150Y102870D03*
X61150Y90170D03*
X61150Y77470D03*
X61150Y64770D03*
X116650Y77470D03*
X116650Y64770D03*
X116650Y90170D03*
X116650Y102870D03*
D24*
X88900Y83820D03*
D10*
X41910Y91360D03*
X41910Y81360D03*
X125730Y105490D03*
X125730Y115490D03*
X41910Y102950D03*
X41910Y112950D03*
D15*
X30100Y-63320D03*
X46100Y-63320D03*
X46100Y-104320D03*
X30100Y-104320D03*
D25*
X150500Y214930D03*
X161500Y214930D03*
X161500Y196630D03*
X150500Y196630D03*
D10*
X267970Y137080D03*
X267970Y127080D03*
D11*
X252920Y199700D02*
X252920Y206700D01*
X259920Y206700D01*
X259920Y199700D01*
X252920Y199700D01*
X252920Y202550D02*
X259920Y202550D01*
X259920Y205400D02*
X252920Y205400D01*
X235380Y206700D02*
X235380Y199700D01*
X235380Y206700D02*
X242380Y206700D01*
X242380Y199700D01*
X235380Y199700D01*
X235380Y202550D02*
X242380Y202550D01*
X242380Y205400D02*
X235380Y205400D01*
D10*
X340440Y-57150D03*
X350440Y-57150D03*
X347900Y140970D03*
X337900Y140970D03*
D12*
X279400Y141080D03*
X279400Y123080D03*
D13*
X294640Y143580D03*
X294640Y120580D03*
D14*
X327000Y145081D03*
X317500Y145081D03*
X308000Y145081D03*
X308000Y119079D03*
X327000Y119079D03*
D10*
X269240Y194230D03*
X269240Y184230D03*
X365760Y194230D03*
X365760Y184230D03*
X347900Y132080D03*
X337900Y132080D03*
X347900Y123190D03*
X337900Y123190D03*
D15*
X360300Y-63320D03*
X376300Y-63320D03*
X376300Y-104320D03*
X360300Y-104320D03*
D16*
X289500Y-95170D03*
X345500Y-95170D03*
D17*
X302500Y-58420D03*
X312500Y-58420D03*
X322500Y-58420D03*
X332500Y-58420D03*
D10*
X340440Y-39370D03*
X350440Y-39370D03*
X340440Y-48260D03*
X350440Y-48260D03*
D18*
X310000Y160880D03*
X315000Y160880D03*
D19*
X285250Y160880D03*
X293000Y160880D03*
D18*
X300000Y160880D03*
X305000Y160880D03*
X325000Y160880D03*
X320000Y160880D03*
D19*
X349750Y160880D03*
X342000Y160880D03*
D18*
X335000Y160880D03*
X330000Y160880D03*
D10*
X294560Y-57150D03*
X284560Y-57150D03*
X294560Y-39370D03*
X284560Y-39370D03*
D20*
X283250Y7080D03*
D10*
X307500Y15080D03*
D20*
X283250Y11080D03*
X283250Y15080D03*
X283250Y19080D03*
X283250Y23080D03*
X283250Y27080D03*
X283250Y31080D03*
X283250Y-20920D03*
X283250Y-16920D03*
X283250Y-12920D03*
X283250Y-8920D03*
X283250Y-4920D03*
X283250Y-920D03*
X283250Y3080D03*
D21*
X315500Y-29170D03*
X311500Y-29170D03*
X307500Y-29170D03*
X303500Y-29170D03*
X299500Y-29170D03*
X295500Y-29170D03*
X291500Y-29170D03*
X343500Y-29170D03*
X339500Y-29170D03*
X335500Y-29170D03*
X331500Y-29170D03*
X327500Y-29170D03*
X323500Y-29170D03*
X319500Y-29170D03*
D20*
X351750Y3080D03*
X351750Y-920D03*
X351750Y-4920D03*
X351750Y-8920D03*
X351750Y-12920D03*
X351750Y-16920D03*
X351750Y-20920D03*
X351750Y31080D03*
X351750Y27080D03*
X351750Y23080D03*
X351750Y19080D03*
X351750Y15080D03*
X351750Y11080D03*
X351750Y7080D03*
D21*
X319500Y39330D03*
X323500Y39330D03*
X327500Y39330D03*
X331500Y39330D03*
X335500Y39330D03*
X339500Y39330D03*
X343500Y39330D03*
X291500Y39330D03*
X295500Y39330D03*
X299500Y39330D03*
X303500Y39330D03*
X307500Y39330D03*
X311500Y39330D03*
X315500Y39330D03*
D10*
X307500Y-4920D03*
X327500Y-4920D03*
X327500Y15080D03*
X317500Y5080D03*
X284560Y-48260D03*
X294560Y-48260D03*
X267970Y-2460D03*
X267970Y7540D03*
X312340Y-43180D03*
X302340Y-43180D03*
X354330Y50880D03*
X354330Y60880D03*
X359410Y-40720D03*
X359410Y-50720D03*
X270510Y31830D03*
X270510Y41830D03*
X361950Y50880D03*
X361950Y60880D03*
X322660Y-43180D03*
X332660Y-43180D03*
X302180Y52070D03*
X292180Y52070D03*
X368300Y149780D03*
X368300Y139780D03*
X355600Y149780D03*
X355600Y139780D03*
X332820Y52070D03*
X342820Y52070D03*
X312500Y52070D03*
X322500Y52070D03*
X361950Y78660D03*
X361950Y68660D03*
X354330Y78660D03*
X354330Y68660D03*
D22*
X273970Y-33540D03*
X256970Y-33540D03*
X256970Y-47540D03*
X273970Y-47540D03*
D10*
X354330Y97710D03*
X354330Y87710D03*
D23*
X289750Y102870D03*
X289750Y90170D03*
X289750Y77470D03*
X289750Y64770D03*
X345250Y77470D03*
X345250Y64770D03*
X345250Y90170D03*
X345250Y102870D03*
D24*
X317500Y83820D03*
D10*
X270510Y91360D03*
X270510Y81360D03*
X354330Y105490D03*
X354330Y115490D03*
X270510Y102950D03*
X270510Y112950D03*
D15*
X258700Y-63320D03*
X274700Y-63320D03*
X274700Y-104320D03*
X258700Y-104320D03*
D25*
X379100Y214930D03*
X390100Y214930D03*
X390100Y196630D03*
X379100Y196630D03*
D10*
X496570Y137080D03*
X496570Y127080D03*
D11*
X481520Y199700D02*
X481520Y206700D01*
X488520Y206700D01*
X488520Y199700D01*
X481520Y199700D01*
X481520Y202550D02*
X488520Y202550D01*
X488520Y205400D02*
X481520Y205400D01*
X463980Y206700D02*
X463980Y199700D01*
X463980Y206700D02*
X470980Y206700D01*
X470980Y199700D01*
X463980Y199700D01*
X463980Y202550D02*
X470980Y202550D01*
X470980Y205400D02*
X463980Y205400D01*
D10*
X569040Y-57150D03*
X579040Y-57150D03*
X576500Y140970D03*
X566500Y140970D03*
D12*
X508000Y141080D03*
X508000Y123080D03*
D13*
X523240Y143580D03*
X523240Y120580D03*
D14*
X555600Y145081D03*
X546100Y145081D03*
X536600Y145081D03*
X536600Y119079D03*
X555600Y119079D03*
D10*
X497840Y194230D03*
X497840Y184230D03*
X594360Y194230D03*
X594360Y184230D03*
X576500Y132080D03*
X566500Y132080D03*
X576500Y123190D03*
X566500Y123190D03*
D15*
X588900Y-63320D03*
X604900Y-63320D03*
X604900Y-104320D03*
X588900Y-104320D03*
D16*
X518100Y-95170D03*
X574100Y-95170D03*
D17*
X531100Y-58420D03*
X541100Y-58420D03*
X551100Y-58420D03*
X561100Y-58420D03*
D10*
X569040Y-39370D03*
X579040Y-39370D03*
X569040Y-48260D03*
X579040Y-48260D03*
D18*
X538600Y160880D03*
X543600Y160880D03*
D19*
X513850Y160880D03*
X521600Y160880D03*
D18*
X528600Y160880D03*
X533600Y160880D03*
X553600Y160880D03*
X548600Y160880D03*
D19*
X578350Y160880D03*
X570600Y160880D03*
D18*
X563600Y160880D03*
X558600Y160880D03*
D10*
X523160Y-57150D03*
X513160Y-57150D03*
X523160Y-39370D03*
X513160Y-39370D03*
D20*
X511850Y7080D03*
D10*
X536100Y15080D03*
D20*
X511850Y11080D03*
X511850Y15080D03*
X511850Y19080D03*
X511850Y23080D03*
X511850Y27080D03*
X511850Y31080D03*
X511850Y-20920D03*
X511850Y-16920D03*
X511850Y-12920D03*
X511850Y-8920D03*
X511850Y-4920D03*
X511850Y-920D03*
X511850Y3080D03*
D21*
X544100Y-29170D03*
X540100Y-29170D03*
X536100Y-29170D03*
X532100Y-29170D03*
X528100Y-29170D03*
X524100Y-29170D03*
X520100Y-29170D03*
X572100Y-29170D03*
X568100Y-29170D03*
X564100Y-29170D03*
X560100Y-29170D03*
X556100Y-29170D03*
X552100Y-29170D03*
X548100Y-29170D03*
D20*
X580350Y3080D03*
X580350Y-920D03*
X580350Y-4920D03*
X580350Y-8920D03*
X580350Y-12920D03*
X580350Y-16920D03*
X580350Y-20920D03*
X580350Y31080D03*
X580350Y27080D03*
X580350Y23080D03*
X580350Y19080D03*
X580350Y15080D03*
X580350Y11080D03*
X580350Y7080D03*
D21*
X548100Y39330D03*
X552100Y39330D03*
X556100Y39330D03*
X560100Y39330D03*
X564100Y39330D03*
X568100Y39330D03*
X572100Y39330D03*
X520100Y39330D03*
X524100Y39330D03*
X528100Y39330D03*
X532100Y39330D03*
X536100Y39330D03*
X540100Y39330D03*
X544100Y39330D03*
D10*
X536100Y-4920D03*
X556100Y-4920D03*
X556100Y15080D03*
X546100Y5080D03*
X513160Y-48260D03*
X523160Y-48260D03*
X496570Y-2460D03*
X496570Y7540D03*
X540940Y-43180D03*
X530940Y-43180D03*
X582930Y50880D03*
X582930Y60880D03*
X588010Y-40720D03*
X588010Y-50720D03*
X499110Y31830D03*
X499110Y41830D03*
X590550Y50880D03*
X590550Y60880D03*
X551260Y-43180D03*
X561260Y-43180D03*
X530780Y52070D03*
X520780Y52070D03*
X596900Y149780D03*
X596900Y139780D03*
X584200Y149780D03*
X584200Y139780D03*
X561420Y52070D03*
X571420Y52070D03*
X541100Y52070D03*
X551100Y52070D03*
X590550Y78660D03*
X590550Y68660D03*
X582930Y78660D03*
X582930Y68660D03*
D22*
X502570Y-33540D03*
X485570Y-33540D03*
X485570Y-47540D03*
X502570Y-47540D03*
D10*
X582930Y97710D03*
X582930Y87710D03*
D23*
X518350Y102870D03*
X518350Y90170D03*
X518350Y77470D03*
X518350Y64770D03*
X573850Y77470D03*
X573850Y64770D03*
X573850Y90170D03*
X573850Y102870D03*
D24*
X546100Y83820D03*
D10*
X499110Y91360D03*
X499110Y81360D03*
X582930Y105490D03*
X582930Y115490D03*
X499110Y102950D03*
X499110Y112950D03*
D15*
X487300Y-63320D03*
X503300Y-63320D03*
X503300Y-104320D03*
X487300Y-104320D03*
D25*
X607700Y214930D03*
X618700Y214930D03*
X618700Y196630D03*
X607700Y196630D03*
D10*
X725170Y137080D03*
X725170Y127080D03*
D11*
X710120Y199700D02*
X710120Y206700D01*
X717120Y206700D01*
X717120Y199700D01*
X710120Y199700D01*
X710120Y202550D02*
X717120Y202550D01*
X717120Y205400D02*
X710120Y205400D01*
X692580Y206700D02*
X692580Y199700D01*
X692580Y206700D02*
X699580Y206700D01*
X699580Y199700D01*
X692580Y199700D01*
X692580Y202550D02*
X699580Y202550D01*
X699580Y205400D02*
X692580Y205400D01*
D10*
X797640Y-57150D03*
X807640Y-57150D03*
X805100Y140970D03*
X795100Y140970D03*
D12*
X736600Y141080D03*
X736600Y123080D03*
D13*
X751840Y143580D03*
X751840Y120580D03*
D14*
X784200Y145081D03*
X774700Y145081D03*
X765200Y145081D03*
X765200Y119079D03*
X784200Y119079D03*
D10*
X726440Y194230D03*
X726440Y184230D03*
X822960Y194230D03*
X822960Y184230D03*
X805100Y132080D03*
X795100Y132080D03*
X805100Y123190D03*
X795100Y123190D03*
D15*
X817500Y-63320D03*
X833500Y-63320D03*
X833500Y-104320D03*
X817500Y-104320D03*
D16*
X746700Y-95170D03*
X802700Y-95170D03*
D17*
X759700Y-58420D03*
X769700Y-58420D03*
X779700Y-58420D03*
X789700Y-58420D03*
D10*
X797640Y-39370D03*
X807640Y-39370D03*
X797640Y-48260D03*
X807640Y-48260D03*
D18*
X767200Y160880D03*
X772200Y160880D03*
D19*
X742450Y160880D03*
X750200Y160880D03*
D18*
X757200Y160880D03*
X762200Y160880D03*
X782200Y160880D03*
X777200Y160880D03*
D19*
X806950Y160880D03*
X799200Y160880D03*
D18*
X792200Y160880D03*
X787200Y160880D03*
D10*
X751760Y-57150D03*
X741760Y-57150D03*
X751760Y-39370D03*
X741760Y-39370D03*
D20*
X740450Y7080D03*
D10*
X764700Y15080D03*
D20*
X740450Y11080D03*
X740450Y15080D03*
X740450Y19080D03*
X740450Y23080D03*
X740450Y27080D03*
X740450Y31080D03*
X740450Y-20920D03*
X740450Y-16920D03*
X740450Y-12920D03*
X740450Y-8920D03*
X740450Y-4920D03*
X740450Y-920D03*
X740450Y3080D03*
D21*
X772700Y-29170D03*
X768700Y-29170D03*
X764700Y-29170D03*
X760700Y-29170D03*
X756700Y-29170D03*
X752700Y-29170D03*
X748700Y-29170D03*
X800700Y-29170D03*
X796700Y-29170D03*
X792700Y-29170D03*
X788700Y-29170D03*
X784700Y-29170D03*
X780700Y-29170D03*
X776700Y-29170D03*
D20*
X808950Y3080D03*
X808950Y-920D03*
X808950Y-4920D03*
X808950Y-8920D03*
X808950Y-12920D03*
X808950Y-16920D03*
X808950Y-20920D03*
X808950Y31080D03*
X808950Y27080D03*
X808950Y23080D03*
X808950Y19080D03*
X808950Y15080D03*
X808950Y11080D03*
X808950Y7080D03*
D21*
X776700Y39330D03*
X780700Y39330D03*
X784700Y39330D03*
X788700Y39330D03*
X792700Y39330D03*
X796700Y39330D03*
X800700Y39330D03*
X748700Y39330D03*
X752700Y39330D03*
X756700Y39330D03*
X760700Y39330D03*
X764700Y39330D03*
X768700Y39330D03*
X772700Y39330D03*
D10*
X764700Y-4920D03*
X784700Y-4920D03*
X784700Y15080D03*
X774700Y5080D03*
X741760Y-48260D03*
X751760Y-48260D03*
X725170Y-2460D03*
X725170Y7540D03*
X769540Y-43180D03*
X759540Y-43180D03*
X811530Y50880D03*
X811530Y60880D03*
X816610Y-40720D03*
X816610Y-50720D03*
X727710Y31830D03*
X727710Y41830D03*
X819150Y50880D03*
X819150Y60880D03*
X779860Y-43180D03*
X789860Y-43180D03*
X759380Y52070D03*
X749380Y52070D03*
X825500Y149780D03*
X825500Y139780D03*
X812800Y149780D03*
X812800Y139780D03*
X790020Y52070D03*
X800020Y52070D03*
X769700Y52070D03*
X779700Y52070D03*
X819150Y78660D03*
X819150Y68660D03*
X811530Y78660D03*
X811530Y68660D03*
D22*
X731170Y-33540D03*
X714170Y-33540D03*
X714170Y-47540D03*
X731170Y-47540D03*
D10*
X811530Y97710D03*
X811530Y87710D03*
D23*
X746950Y102870D03*
X746950Y90170D03*
X746950Y77470D03*
X746950Y64770D03*
X802450Y77470D03*
X802450Y64770D03*
X802450Y90170D03*
X802450Y102870D03*
D24*
X774700Y83820D03*
D10*
X727710Y91360D03*
X727710Y81360D03*
X811530Y105490D03*
X811530Y115490D03*
X727710Y102950D03*
X727710Y112950D03*
D15*
X715900Y-63320D03*
X731900Y-63320D03*
X731900Y-104320D03*
X715900Y-104320D03*
D25*
X836300Y214930D03*
X847300Y214930D03*
X847300Y196630D03*
X836300Y196630D03*
D10*
X953770Y137080D03*
X953770Y127080D03*
D11*
X938720Y199700D02*
X938720Y206700D01*
X945720Y206700D01*
X945720Y199700D01*
X938720Y199700D01*
X938720Y202550D02*
X945720Y202550D01*
X945720Y205400D02*
X938720Y205400D01*
X921180Y206700D02*
X921180Y199700D01*
X921180Y206700D02*
X928180Y206700D01*
X928180Y199700D01*
X921180Y199700D01*
X921180Y202550D02*
X928180Y202550D01*
X928180Y205400D02*
X921180Y205400D01*
D10*
X1026240Y-57150D03*
X1036240Y-57150D03*
X1033700Y140970D03*
X1023700Y140970D03*
D12*
X965200Y141080D03*
X965200Y123080D03*
D13*
X980440Y143580D03*
X980440Y120580D03*
D14*
X1012800Y145081D03*
X1003300Y145081D03*
X993800Y145081D03*
X993800Y119079D03*
X1012800Y119079D03*
D10*
X955040Y194230D03*
X955040Y184230D03*
X1051560Y194230D03*
X1051560Y184230D03*
X1033700Y132080D03*
X1023700Y132080D03*
X1033700Y123190D03*
X1023700Y123190D03*
D15*
X1046100Y-63320D03*
X1062100Y-63320D03*
X1062100Y-104320D03*
X1046100Y-104320D03*
D16*
X975300Y-95170D03*
X1031300Y-95170D03*
D17*
X988300Y-58420D03*
X998300Y-58420D03*
X1008300Y-58420D03*
X1018300Y-58420D03*
D10*
X1026240Y-39370D03*
X1036240Y-39370D03*
X1026240Y-48260D03*
X1036240Y-48260D03*
D18*
X995800Y160880D03*
X1000800Y160880D03*
D19*
X971050Y160880D03*
X978800Y160880D03*
D18*
X985800Y160880D03*
X990800Y160880D03*
X1010800Y160880D03*
X1005800Y160880D03*
D19*
X1035550Y160880D03*
X1027800Y160880D03*
D18*
X1020800Y160880D03*
X1015800Y160880D03*
D10*
X980360Y-57150D03*
X970360Y-57150D03*
X980360Y-39370D03*
X970360Y-39370D03*
D20*
X969050Y7080D03*
D10*
X993300Y15080D03*
D20*
X969050Y11080D03*
X969050Y15080D03*
X969050Y19080D03*
X969050Y23080D03*
X969050Y27080D03*
X969050Y31080D03*
X969050Y-20920D03*
X969050Y-16920D03*
X969050Y-12920D03*
X969050Y-8920D03*
X969050Y-4920D03*
X969050Y-920D03*
X969050Y3080D03*
D21*
X1001300Y-29170D03*
X997300Y-29170D03*
X993300Y-29170D03*
X989300Y-29170D03*
X985300Y-29170D03*
X981300Y-29170D03*
X977300Y-29170D03*
X1029300Y-29170D03*
X1025300Y-29170D03*
X1021300Y-29170D03*
X1017300Y-29170D03*
X1013300Y-29170D03*
X1009300Y-29170D03*
X1005300Y-29170D03*
D20*
X1037550Y3080D03*
X1037550Y-920D03*
X1037550Y-4920D03*
X1037550Y-8920D03*
X1037550Y-12920D03*
X1037550Y-16920D03*
X1037550Y-20920D03*
X1037550Y31080D03*
X1037550Y27080D03*
X1037550Y23080D03*
X1037550Y19080D03*
X1037550Y15080D03*
X1037550Y11080D03*
X1037550Y7080D03*
D21*
X1005300Y39330D03*
X1009300Y39330D03*
X1013300Y39330D03*
X1017300Y39330D03*
X1021300Y39330D03*
X1025300Y39330D03*
X1029300Y39330D03*
X977300Y39330D03*
X981300Y39330D03*
X985300Y39330D03*
X989300Y39330D03*
X993300Y39330D03*
X997300Y39330D03*
X1001300Y39330D03*
D10*
X993300Y-4920D03*
X1013300Y-4920D03*
X1013300Y15080D03*
X1003300Y5080D03*
X970360Y-48260D03*
X980360Y-48260D03*
X953770Y-2460D03*
X953770Y7540D03*
X998140Y-43180D03*
X988140Y-43180D03*
X1040130Y50880D03*
X1040130Y60880D03*
X1045210Y-40720D03*
X1045210Y-50720D03*
X956310Y31830D03*
X956310Y41830D03*
X1047750Y50880D03*
X1047750Y60880D03*
X1008460Y-43180D03*
X1018460Y-43180D03*
X987980Y52070D03*
X977980Y52070D03*
X1054100Y149780D03*
X1054100Y139780D03*
X1041400Y149780D03*
X1041400Y139780D03*
X1018620Y52070D03*
X1028620Y52070D03*
X998300Y52070D03*
X1008300Y52070D03*
X1047750Y78660D03*
X1047750Y68660D03*
X1040130Y78660D03*
X1040130Y68660D03*
D22*
X959770Y-33540D03*
X942770Y-33540D03*
X942770Y-47540D03*
X959770Y-47540D03*
D10*
X1040130Y97710D03*
X1040130Y87710D03*
D23*
X975550Y102870D03*
X975550Y90170D03*
X975550Y77470D03*
X975550Y64770D03*
X1031050Y77470D03*
X1031050Y64770D03*
X1031050Y90170D03*
X1031050Y102870D03*
D24*
X1003300Y83820D03*
D10*
X956310Y91360D03*
X956310Y81360D03*
X1040130Y105490D03*
X1040130Y115490D03*
X956310Y102950D03*
X956310Y112950D03*
D15*
X944500Y-63320D03*
X960500Y-63320D03*
X960500Y-104320D03*
X944500Y-104320D03*
D25*
X1064900Y214930D03*
X1075900Y214930D03*
X1075900Y196630D03*
X1064900Y196630D03*
D10*
X39370Y581580D03*
X39370Y571580D03*
D11*
X24320Y644200D02*
X24320Y651200D01*
X31320Y651200D01*
X31320Y644200D01*
X24320Y644200D01*
X24320Y647050D02*
X31320Y647050D01*
X31320Y649900D02*
X24320Y649900D01*
X6780Y651200D02*
X6780Y644200D01*
X6780Y651200D02*
X13780Y651200D01*
X13780Y644200D01*
X6780Y644200D01*
X6780Y647050D02*
X13780Y647050D01*
X13780Y649900D02*
X6780Y649900D01*
D10*
X111840Y387350D03*
X121840Y387350D03*
X119300Y585470D03*
X109300Y585470D03*
D12*
X50800Y585580D03*
X50800Y567580D03*
D13*
X66040Y588080D03*
X66040Y565080D03*
D14*
X98400Y589581D03*
X88900Y589581D03*
X79400Y589581D03*
X79400Y563579D03*
X98400Y563579D03*
D10*
X40640Y638730D03*
X40640Y628730D03*
X137160Y638730D03*
X137160Y628730D03*
X119300Y576580D03*
X109300Y576580D03*
X119300Y567690D03*
X109300Y567690D03*
D15*
X131700Y381180D03*
X147700Y381180D03*
X147700Y340180D03*
X131700Y340180D03*
D16*
X60900Y349330D03*
X116900Y349330D03*
D17*
X73900Y386080D03*
X83900Y386080D03*
X93900Y386080D03*
X103900Y386080D03*
D10*
X111840Y405130D03*
X121840Y405130D03*
X111840Y396240D03*
X121840Y396240D03*
D18*
X81400Y605380D03*
X86400Y605380D03*
D19*
X56650Y605380D03*
X64400Y605380D03*
D18*
X71400Y605380D03*
X76400Y605380D03*
X96400Y605380D03*
X91400Y605380D03*
D19*
X121150Y605380D03*
X113400Y605380D03*
D18*
X106400Y605380D03*
X101400Y605380D03*
D10*
X65960Y387350D03*
X55960Y387350D03*
X65960Y405130D03*
X55960Y405130D03*
D20*
X54650Y451580D03*
D10*
X78900Y459580D03*
D20*
X54650Y455580D03*
X54650Y459580D03*
X54650Y463580D03*
X54650Y467580D03*
X54650Y471580D03*
X54650Y475580D03*
X54650Y423580D03*
X54650Y427580D03*
X54650Y431580D03*
X54650Y435580D03*
X54650Y439580D03*
X54650Y443580D03*
X54650Y447580D03*
D21*
X86900Y415330D03*
X82900Y415330D03*
X78900Y415330D03*
X74900Y415330D03*
X70900Y415330D03*
X66900Y415330D03*
X62900Y415330D03*
X114900Y415330D03*
X110900Y415330D03*
X106900Y415330D03*
X102900Y415330D03*
X98900Y415330D03*
X94900Y415330D03*
X90900Y415330D03*
D20*
X123150Y447580D03*
X123150Y443580D03*
X123150Y439580D03*
X123150Y435580D03*
X123150Y431580D03*
X123150Y427580D03*
X123150Y423580D03*
X123150Y475580D03*
X123150Y471580D03*
X123150Y467580D03*
X123150Y463580D03*
X123150Y459580D03*
X123150Y455580D03*
X123150Y451580D03*
D21*
X90900Y483830D03*
X94900Y483830D03*
X98900Y483830D03*
X102900Y483830D03*
X106900Y483830D03*
X110900Y483830D03*
X114900Y483830D03*
X62900Y483830D03*
X66900Y483830D03*
X70900Y483830D03*
X74900Y483830D03*
X78900Y483830D03*
X82900Y483830D03*
X86900Y483830D03*
D10*
X78900Y439580D03*
X98900Y439580D03*
X98900Y459580D03*
X88900Y449580D03*
X55960Y396240D03*
X65960Y396240D03*
X39370Y442040D03*
X39370Y452040D03*
X83740Y401320D03*
X73740Y401320D03*
X125730Y495380D03*
X125730Y505380D03*
X130810Y403780D03*
X130810Y393780D03*
X41910Y476330D03*
X41910Y486330D03*
X133350Y495380D03*
X133350Y505380D03*
X94060Y401320D03*
X104060Y401320D03*
X73580Y496570D03*
X63580Y496570D03*
X139700Y594280D03*
X139700Y584280D03*
X127000Y594280D03*
X127000Y584280D03*
X104220Y496570D03*
X114220Y496570D03*
X83900Y496570D03*
X93900Y496570D03*
X133350Y523160D03*
X133350Y513160D03*
X125730Y523160D03*
X125730Y513160D03*
D22*
X45370Y410960D03*
X28370Y410960D03*
X28370Y396960D03*
X45370Y396960D03*
D10*
X125730Y542210D03*
X125730Y532210D03*
D23*
X61150Y547370D03*
X61150Y534670D03*
X61150Y521970D03*
X61150Y509270D03*
X116650Y521970D03*
X116650Y509270D03*
X116650Y534670D03*
X116650Y547370D03*
D24*
X88900Y528320D03*
D10*
X41910Y535860D03*
X41910Y525860D03*
X125730Y549990D03*
X125730Y559990D03*
X41910Y547450D03*
X41910Y557450D03*
D15*
X30100Y381180D03*
X46100Y381180D03*
X46100Y340180D03*
X30100Y340180D03*
D25*
X150500Y659430D03*
X161500Y659430D03*
X161500Y641130D03*
X150500Y641130D03*
D10*
X267970Y581580D03*
X267970Y571580D03*
D11*
X252920Y644200D02*
X252920Y651200D01*
X259920Y651200D01*
X259920Y644200D01*
X252920Y644200D01*
X252920Y647050D02*
X259920Y647050D01*
X259920Y649900D02*
X252920Y649900D01*
X235380Y651200D02*
X235380Y644200D01*
X235380Y651200D02*
X242380Y651200D01*
X242380Y644200D01*
X235380Y644200D01*
X235380Y647050D02*
X242380Y647050D01*
X242380Y649900D02*
X235380Y649900D01*
D10*
X340440Y387350D03*
X350440Y387350D03*
X347900Y585470D03*
X337900Y585470D03*
D12*
X279400Y585580D03*
X279400Y567580D03*
D13*
X294640Y588080D03*
X294640Y565080D03*
D14*
X327000Y589581D03*
X317500Y589581D03*
X308000Y589581D03*
X308000Y563579D03*
X327000Y563579D03*
D10*
X269240Y638730D03*
X269240Y628730D03*
X365760Y638730D03*
X365760Y628730D03*
X347900Y576580D03*
X337900Y576580D03*
X347900Y567690D03*
X337900Y567690D03*
D15*
X360300Y381180D03*
X376300Y381180D03*
X376300Y340180D03*
X360300Y340180D03*
D16*
X289500Y349330D03*
X345500Y349330D03*
D17*
X302500Y386080D03*
X312500Y386080D03*
X322500Y386080D03*
X332500Y386080D03*
D10*
X340440Y405130D03*
X350440Y405130D03*
X340440Y396240D03*
X350440Y396240D03*
D18*
X310000Y605380D03*
X315000Y605380D03*
D19*
X285250Y605380D03*
X293000Y605380D03*
D18*
X300000Y605380D03*
X305000Y605380D03*
X325000Y605380D03*
X320000Y605380D03*
D19*
X349750Y605380D03*
X342000Y605380D03*
D18*
X335000Y605380D03*
X330000Y605380D03*
D10*
X294560Y387350D03*
X284560Y387350D03*
X294560Y405130D03*
X284560Y405130D03*
D20*
X283250Y451580D03*
D10*
X307500Y459580D03*
D20*
X283250Y455580D03*
X283250Y459580D03*
X283250Y463580D03*
X283250Y467580D03*
X283250Y471580D03*
X283250Y475580D03*
X283250Y423580D03*
X283250Y427580D03*
X283250Y431580D03*
X283250Y435580D03*
X283250Y439580D03*
X283250Y443580D03*
X283250Y447580D03*
D21*
X315500Y415330D03*
X311500Y415330D03*
X307500Y415330D03*
X303500Y415330D03*
X299500Y415330D03*
X295500Y415330D03*
X291500Y415330D03*
X343500Y415330D03*
X339500Y415330D03*
X335500Y415330D03*
X331500Y415330D03*
X327500Y415330D03*
X323500Y415330D03*
X319500Y415330D03*
D20*
X351750Y447580D03*
X351750Y443580D03*
X351750Y439580D03*
X351750Y435580D03*
X351750Y431580D03*
X351750Y427580D03*
X351750Y423580D03*
X351750Y475580D03*
X351750Y471580D03*
X351750Y467580D03*
X351750Y463580D03*
X351750Y459580D03*
X351750Y455580D03*
X351750Y451580D03*
D21*
X319500Y483830D03*
X323500Y483830D03*
X327500Y483830D03*
X331500Y483830D03*
X335500Y483830D03*
X339500Y483830D03*
X343500Y483830D03*
X291500Y483830D03*
X295500Y483830D03*
X299500Y483830D03*
X303500Y483830D03*
X307500Y483830D03*
X311500Y483830D03*
X315500Y483830D03*
D10*
X307500Y439580D03*
X327500Y439580D03*
X327500Y459580D03*
X317500Y449580D03*
X284560Y396240D03*
X294560Y396240D03*
X267970Y442040D03*
X267970Y452040D03*
X312340Y401320D03*
X302340Y401320D03*
X354330Y495380D03*
X354330Y505380D03*
X359410Y403780D03*
X359410Y393780D03*
X270510Y476330D03*
X270510Y486330D03*
X361950Y495380D03*
X361950Y505380D03*
X322660Y401320D03*
X332660Y401320D03*
X302180Y496570D03*
X292180Y496570D03*
X368300Y594280D03*
X368300Y584280D03*
X355600Y594280D03*
X355600Y584280D03*
X332820Y496570D03*
X342820Y496570D03*
X312500Y496570D03*
X322500Y496570D03*
X361950Y523160D03*
X361950Y513160D03*
X354330Y523160D03*
X354330Y513160D03*
D22*
X273970Y410960D03*
X256970Y410960D03*
X256970Y396960D03*
X273970Y396960D03*
D10*
X354330Y542210D03*
X354330Y532210D03*
D23*
X289750Y547370D03*
X289750Y534670D03*
X289750Y521970D03*
X289750Y509270D03*
X345250Y521970D03*
X345250Y509270D03*
X345250Y534670D03*
X345250Y547370D03*
D24*
X317500Y528320D03*
D10*
X270510Y535860D03*
X270510Y525860D03*
X354330Y549990D03*
X354330Y559990D03*
X270510Y547450D03*
X270510Y557450D03*
D15*
X258700Y381180D03*
X274700Y381180D03*
X274700Y340180D03*
X258700Y340180D03*
D25*
X379100Y659430D03*
X390100Y659430D03*
X390100Y641130D03*
X379100Y641130D03*
D10*
X496570Y581580D03*
X496570Y571580D03*
D11*
X481520Y644200D02*
X481520Y651200D01*
X488520Y651200D01*
X488520Y644200D01*
X481520Y644200D01*
X481520Y647050D02*
X488520Y647050D01*
X488520Y649900D02*
X481520Y649900D01*
X463980Y651200D02*
X463980Y644200D01*
X463980Y651200D02*
X470980Y651200D01*
X470980Y644200D01*
X463980Y644200D01*
X463980Y647050D02*
X470980Y647050D01*
X470980Y649900D02*
X463980Y649900D01*
D10*
X569040Y387350D03*
X579040Y387350D03*
X576500Y585470D03*
X566500Y585470D03*
D12*
X508000Y585580D03*
X508000Y567580D03*
D13*
X523240Y588080D03*
X523240Y565080D03*
D14*
X555600Y589581D03*
X546100Y589581D03*
X536600Y589581D03*
X536600Y563579D03*
X555600Y563579D03*
D10*
X497840Y638730D03*
X497840Y628730D03*
X594360Y638730D03*
X594360Y628730D03*
X576500Y576580D03*
X566500Y576580D03*
X576500Y567690D03*
X566500Y567690D03*
D15*
X588900Y381180D03*
X604900Y381180D03*
X604900Y340180D03*
X588900Y340180D03*
D16*
X518100Y349330D03*
X574100Y349330D03*
D17*
X531100Y386080D03*
X541100Y386080D03*
X551100Y386080D03*
X561100Y386080D03*
D10*
X569040Y405130D03*
X579040Y405130D03*
X569040Y396240D03*
X579040Y396240D03*
D18*
X538600Y605380D03*
X543600Y605380D03*
D19*
X513850Y605380D03*
X521600Y605380D03*
D18*
X528600Y605380D03*
X533600Y605380D03*
X553600Y605380D03*
X548600Y605380D03*
D19*
X578350Y605380D03*
X570600Y605380D03*
D18*
X563600Y605380D03*
X558600Y605380D03*
D10*
X523160Y387350D03*
X513160Y387350D03*
X523160Y405130D03*
X513160Y405130D03*
D20*
X511850Y451580D03*
D10*
X536100Y459580D03*
D20*
X511850Y455580D03*
X511850Y459580D03*
X511850Y463580D03*
X511850Y467580D03*
X511850Y471580D03*
X511850Y475580D03*
X511850Y423580D03*
X511850Y427580D03*
X511850Y431580D03*
X511850Y435580D03*
X511850Y439580D03*
X511850Y443580D03*
X511850Y447580D03*
D21*
X544100Y415330D03*
X540100Y415330D03*
X536100Y415330D03*
X532100Y415330D03*
X528100Y415330D03*
X524100Y415330D03*
X520100Y415330D03*
X572100Y415330D03*
X568100Y415330D03*
X564100Y415330D03*
X560100Y415330D03*
X556100Y415330D03*
X552100Y415330D03*
X548100Y415330D03*
D20*
X580350Y447580D03*
X580350Y443580D03*
X580350Y439580D03*
X580350Y435580D03*
X580350Y431580D03*
X580350Y427580D03*
X580350Y423580D03*
X580350Y475580D03*
X580350Y471580D03*
X580350Y467580D03*
X580350Y463580D03*
X580350Y459580D03*
X580350Y455580D03*
X580350Y451580D03*
D21*
X548100Y483830D03*
X552100Y483830D03*
X556100Y483830D03*
X560100Y483830D03*
X564100Y483830D03*
X568100Y483830D03*
X572100Y483830D03*
X520100Y483830D03*
X524100Y483830D03*
X528100Y483830D03*
X532100Y483830D03*
X536100Y483830D03*
X540100Y483830D03*
X544100Y483830D03*
D10*
X536100Y439580D03*
X556100Y439580D03*
X556100Y459580D03*
X546100Y449580D03*
X513160Y396240D03*
X523160Y396240D03*
X496570Y442040D03*
X496570Y452040D03*
X540940Y401320D03*
X530940Y401320D03*
X582930Y495380D03*
X582930Y505380D03*
X588010Y403780D03*
X588010Y393780D03*
X499110Y476330D03*
X499110Y486330D03*
X590550Y495380D03*
X590550Y505380D03*
X551260Y401320D03*
X561260Y401320D03*
X530780Y496570D03*
X520780Y496570D03*
X596900Y594280D03*
X596900Y584280D03*
X584200Y594280D03*
X584200Y584280D03*
X561420Y496570D03*
X571420Y496570D03*
X541100Y496570D03*
X551100Y496570D03*
X590550Y523160D03*
X590550Y513160D03*
X582930Y523160D03*
X582930Y513160D03*
D22*
X502570Y410960D03*
X485570Y410960D03*
X485570Y396960D03*
X502570Y396960D03*
D10*
X582930Y542210D03*
X582930Y532210D03*
D23*
X518350Y547370D03*
X518350Y534670D03*
X518350Y521970D03*
X518350Y509270D03*
X573850Y521970D03*
X573850Y509270D03*
X573850Y534670D03*
X573850Y547370D03*
D24*
X546100Y528320D03*
D10*
X499110Y535860D03*
X499110Y525860D03*
X582930Y549990D03*
X582930Y559990D03*
X499110Y547450D03*
X499110Y557450D03*
D15*
X487300Y381180D03*
X503300Y381180D03*
X503300Y340180D03*
X487300Y340180D03*
D25*
X607700Y659430D03*
X618700Y659430D03*
X618700Y641130D03*
X607700Y641130D03*
D10*
X725170Y581580D03*
X725170Y571580D03*
D11*
X710120Y644200D02*
X710120Y651200D01*
X717120Y651200D01*
X717120Y644200D01*
X710120Y644200D01*
X710120Y647050D02*
X717120Y647050D01*
X717120Y649900D02*
X710120Y649900D01*
X692580Y651200D02*
X692580Y644200D01*
X692580Y651200D02*
X699580Y651200D01*
X699580Y644200D01*
X692580Y644200D01*
X692580Y647050D02*
X699580Y647050D01*
X699580Y649900D02*
X692580Y649900D01*
D10*
X797640Y387350D03*
X807640Y387350D03*
X805100Y585470D03*
X795100Y585470D03*
D12*
X736600Y585580D03*
X736600Y567580D03*
D13*
X751840Y588080D03*
X751840Y565080D03*
D14*
X784200Y589581D03*
X774700Y589581D03*
X765200Y589581D03*
X765200Y563579D03*
X784200Y563579D03*
D10*
X726440Y638730D03*
X726440Y628730D03*
X822960Y638730D03*
X822960Y628730D03*
X805100Y576580D03*
X795100Y576580D03*
X805100Y567690D03*
X795100Y567690D03*
D15*
X817500Y381180D03*
X833500Y381180D03*
X833500Y340180D03*
X817500Y340180D03*
D16*
X746700Y349330D03*
X802700Y349330D03*
D17*
X759700Y386080D03*
X769700Y386080D03*
X779700Y386080D03*
X789700Y386080D03*
D10*
X797640Y405130D03*
X807640Y405130D03*
X797640Y396240D03*
X807640Y396240D03*
D18*
X767200Y605380D03*
X772200Y605380D03*
D19*
X742450Y605380D03*
X750200Y605380D03*
D18*
X757200Y605380D03*
X762200Y605380D03*
X782200Y605380D03*
X777200Y605380D03*
D19*
X806950Y605380D03*
X799200Y605380D03*
D18*
X792200Y605380D03*
X787200Y605380D03*
D10*
X751760Y387350D03*
X741760Y387350D03*
X751760Y405130D03*
X741760Y405130D03*
D20*
X740450Y451580D03*
D10*
X764700Y459580D03*
D20*
X740450Y455580D03*
X740450Y459580D03*
X740450Y463580D03*
X740450Y467580D03*
X740450Y471580D03*
X740450Y475580D03*
X740450Y423580D03*
X740450Y427580D03*
X740450Y431580D03*
X740450Y435580D03*
X740450Y439580D03*
X740450Y443580D03*
X740450Y447580D03*
D21*
X772700Y415330D03*
X768700Y415330D03*
X764700Y415330D03*
X760700Y415330D03*
X756700Y415330D03*
X752700Y415330D03*
X748700Y415330D03*
X800700Y415330D03*
X796700Y415330D03*
X792700Y415330D03*
X788700Y415330D03*
X784700Y415330D03*
X780700Y415330D03*
X776700Y415330D03*
D20*
X808950Y447580D03*
X808950Y443580D03*
X808950Y439580D03*
X808950Y435580D03*
X808950Y431580D03*
X808950Y427580D03*
X808950Y423580D03*
X808950Y475580D03*
X808950Y471580D03*
X808950Y467580D03*
X808950Y463580D03*
X808950Y459580D03*
X808950Y455580D03*
X808950Y451580D03*
D21*
X776700Y483830D03*
X780700Y483830D03*
X784700Y483830D03*
X788700Y483830D03*
X792700Y483830D03*
X796700Y483830D03*
X800700Y483830D03*
X748700Y483830D03*
X752700Y483830D03*
X756700Y483830D03*
X760700Y483830D03*
X764700Y483830D03*
X768700Y483830D03*
X772700Y483830D03*
D10*
X764700Y439580D03*
X784700Y439580D03*
X784700Y459580D03*
X774700Y449580D03*
X741760Y396240D03*
X751760Y396240D03*
X725170Y442040D03*
X725170Y452040D03*
X769540Y401320D03*
X759540Y401320D03*
X811530Y495380D03*
X811530Y505380D03*
X816610Y403780D03*
X816610Y393780D03*
X727710Y476330D03*
X727710Y486330D03*
X819150Y495380D03*
X819150Y505380D03*
X779860Y401320D03*
X789860Y401320D03*
X759380Y496570D03*
X749380Y496570D03*
X825500Y594280D03*
X825500Y584280D03*
X812800Y594280D03*
X812800Y584280D03*
X790020Y496570D03*
X800020Y496570D03*
X769700Y496570D03*
X779700Y496570D03*
X819150Y523160D03*
X819150Y513160D03*
X811530Y523160D03*
X811530Y513160D03*
D22*
X731170Y410960D03*
X714170Y410960D03*
X714170Y396960D03*
X731170Y396960D03*
D10*
X811530Y542210D03*
X811530Y532210D03*
D23*
X746950Y547370D03*
X746950Y534670D03*
X746950Y521970D03*
X746950Y509270D03*
X802450Y521970D03*
X802450Y509270D03*
X802450Y534670D03*
X802450Y547370D03*
D24*
X774700Y528320D03*
D10*
X727710Y535860D03*
X727710Y525860D03*
X811530Y549990D03*
X811530Y559990D03*
X727710Y547450D03*
X727710Y557450D03*
D15*
X715900Y381180D03*
X731900Y381180D03*
X731900Y340180D03*
X715900Y340180D03*
D25*
X836300Y659430D03*
X847300Y659430D03*
X847300Y641130D03*
X836300Y641130D03*
D10*
X953770Y581580D03*
X953770Y571580D03*
D11*
X938720Y644200D02*
X938720Y651200D01*
X945720Y651200D01*
X945720Y644200D01*
X938720Y644200D01*
X938720Y647050D02*
X945720Y647050D01*
X945720Y649900D02*
X938720Y649900D01*
X921180Y651200D02*
X921180Y644200D01*
X921180Y651200D02*
X928180Y651200D01*
X928180Y644200D01*
X921180Y644200D01*
X921180Y647050D02*
X928180Y647050D01*
X928180Y649900D02*
X921180Y649900D01*
D10*
X1026240Y387350D03*
X1036240Y387350D03*
X1033700Y585470D03*
X1023700Y585470D03*
D12*
X965200Y585580D03*
X965200Y567580D03*
D13*
X980440Y588080D03*
X980440Y565080D03*
D14*
X1012800Y589581D03*
X1003300Y589581D03*
X993800Y589581D03*
X993800Y563579D03*
X1012800Y563579D03*
D10*
X955040Y638730D03*
X955040Y628730D03*
X1051560Y638730D03*
X1051560Y628730D03*
X1033700Y576580D03*
X1023700Y576580D03*
X1033700Y567690D03*
X1023700Y567690D03*
D15*
X1046100Y381180D03*
X1062100Y381180D03*
X1062100Y340180D03*
X1046100Y340180D03*
D16*
X975300Y349330D03*
X1031300Y349330D03*
D17*
X988300Y386080D03*
X998300Y386080D03*
X1008300Y386080D03*
X1018300Y386080D03*
D10*
X1026240Y405130D03*
X1036240Y405130D03*
X1026240Y396240D03*
X1036240Y396240D03*
D18*
X995800Y605380D03*
X1000800Y605380D03*
D19*
X971050Y605380D03*
X978800Y605380D03*
D18*
X985800Y605380D03*
X990800Y605380D03*
X1010800Y605380D03*
X1005800Y605380D03*
D19*
X1035550Y605380D03*
X1027800Y605380D03*
D18*
X1020800Y605380D03*
X1015800Y605380D03*
D10*
X980360Y387350D03*
X970360Y387350D03*
X980360Y405130D03*
X970360Y405130D03*
D20*
X969050Y451580D03*
D10*
X993300Y459580D03*
D20*
X969050Y455580D03*
X969050Y459580D03*
X969050Y463580D03*
X969050Y467580D03*
X969050Y471580D03*
X969050Y475580D03*
X969050Y423580D03*
X969050Y427580D03*
X969050Y431580D03*
X969050Y435580D03*
X969050Y439580D03*
X969050Y443580D03*
X969050Y447580D03*
D21*
X1001300Y415330D03*
X997300Y415330D03*
X993300Y415330D03*
X989300Y415330D03*
X985300Y415330D03*
X981300Y415330D03*
X977300Y415330D03*
X1029300Y415330D03*
X1025300Y415330D03*
X1021300Y415330D03*
X1017300Y415330D03*
X1013300Y415330D03*
X1009300Y415330D03*
X1005300Y415330D03*
D20*
X1037550Y447580D03*
X1037550Y443580D03*
X1037550Y439580D03*
X1037550Y435580D03*
X1037550Y431580D03*
X1037550Y427580D03*
X1037550Y423580D03*
X1037550Y475580D03*
X1037550Y471580D03*
X1037550Y467580D03*
X1037550Y463580D03*
X1037550Y459580D03*
X1037550Y455580D03*
X1037550Y451580D03*
D21*
X1005300Y483830D03*
X1009300Y483830D03*
X1013300Y483830D03*
X1017300Y483830D03*
X1021300Y483830D03*
X1025300Y483830D03*
X1029300Y483830D03*
X977300Y483830D03*
X981300Y483830D03*
X985300Y483830D03*
X989300Y483830D03*
X993300Y483830D03*
X997300Y483830D03*
X1001300Y483830D03*
D10*
X993300Y439580D03*
X1013300Y439580D03*
X1013300Y459580D03*
X1003300Y449580D03*
X970360Y396240D03*
X980360Y396240D03*
X953770Y442040D03*
X953770Y452040D03*
X998140Y401320D03*
X988140Y401320D03*
X1040130Y495380D03*
X1040130Y505380D03*
X1045210Y403780D03*
X1045210Y393780D03*
X956310Y476330D03*
X956310Y486330D03*
X1047750Y495380D03*
X1047750Y505380D03*
X1008460Y401320D03*
X1018460Y401320D03*
X987980Y496570D03*
X977980Y496570D03*
X1054100Y594280D03*
X1054100Y584280D03*
X1041400Y594280D03*
X1041400Y584280D03*
X1018620Y496570D03*
X1028620Y496570D03*
X998300Y496570D03*
X1008300Y496570D03*
X1047750Y523160D03*
X1047750Y513160D03*
X1040130Y523160D03*
X1040130Y513160D03*
D22*
X959770Y410960D03*
X942770Y410960D03*
X942770Y396960D03*
X959770Y396960D03*
D10*
X1040130Y542210D03*
X1040130Y532210D03*
D23*
X975550Y547370D03*
X975550Y534670D03*
X975550Y521970D03*
X975550Y509270D03*
X1031050Y521970D03*
X1031050Y509270D03*
X1031050Y534670D03*
X1031050Y547370D03*
D24*
X1003300Y528320D03*
D10*
X956310Y535860D03*
X956310Y525860D03*
X1040130Y549990D03*
X1040130Y559990D03*
X956310Y547450D03*
X956310Y557450D03*
D15*
X944500Y381180D03*
X960500Y381180D03*
X960500Y340180D03*
X944500Y340180D03*
D25*
X1064900Y659430D03*
X1075900Y659430D03*
X1075900Y641130D03*
X1064900Y641130D03*
D10*
X39370Y1026080D03*
X39370Y1016080D03*
D11*
X24320Y1088700D02*
X24320Y1095700D01*
X31320Y1095700D01*
X31320Y1088700D01*
X24320Y1088700D01*
X24320Y1091550D02*
X31320Y1091550D01*
X31320Y1094400D02*
X24320Y1094400D01*
X6780Y1095700D02*
X6780Y1088700D01*
X6780Y1095700D02*
X13780Y1095700D01*
X13780Y1088700D01*
X6780Y1088700D01*
X6780Y1091550D02*
X13780Y1091550D01*
X13780Y1094400D02*
X6780Y1094400D01*
D10*
X111840Y831850D03*
X121840Y831850D03*
X119300Y1029970D03*
X109300Y1029970D03*
D12*
X50800Y1030080D03*
X50800Y1012080D03*
D13*
X66040Y1032580D03*
X66040Y1009580D03*
D14*
X98400Y1034081D03*
X88900Y1034081D03*
X79400Y1034081D03*
X79400Y1008079D03*
X98400Y1008079D03*
D10*
X40640Y1083230D03*
X40640Y1073230D03*
X137160Y1083230D03*
X137160Y1073230D03*
X119300Y1021080D03*
X109300Y1021080D03*
X119300Y1012190D03*
X109300Y1012190D03*
D15*
X131700Y825680D03*
X147700Y825680D03*
X147700Y784680D03*
X131700Y784680D03*
D16*
X60900Y793830D03*
X116900Y793830D03*
D17*
X73900Y830580D03*
X83900Y830580D03*
X93900Y830580D03*
X103900Y830580D03*
D10*
X111840Y849630D03*
X121840Y849630D03*
X111840Y840740D03*
X121840Y840740D03*
D18*
X81400Y1049880D03*
X86400Y1049880D03*
D19*
X56650Y1049880D03*
X64400Y1049880D03*
D18*
X71400Y1049880D03*
X76400Y1049880D03*
X96400Y1049880D03*
X91400Y1049880D03*
D19*
X121150Y1049880D03*
X113400Y1049880D03*
D18*
X106400Y1049880D03*
X101400Y1049880D03*
D10*
X65960Y831850D03*
X55960Y831850D03*
X65960Y849630D03*
X55960Y849630D03*
D20*
X54650Y896080D03*
D10*
X78900Y904080D03*
D20*
X54650Y900080D03*
X54650Y904080D03*
X54650Y908080D03*
X54650Y912080D03*
X54650Y916080D03*
X54650Y920080D03*
X54650Y868080D03*
X54650Y872080D03*
X54650Y876080D03*
X54650Y880080D03*
X54650Y884080D03*
X54650Y888080D03*
X54650Y892080D03*
D21*
X86900Y859830D03*
X82900Y859830D03*
X78900Y859830D03*
X74900Y859830D03*
X70900Y859830D03*
X66900Y859830D03*
X62900Y859830D03*
X114900Y859830D03*
X110900Y859830D03*
X106900Y859830D03*
X102900Y859830D03*
X98900Y859830D03*
X94900Y859830D03*
X90900Y859830D03*
D20*
X123150Y892080D03*
X123150Y888080D03*
X123150Y884080D03*
X123150Y880080D03*
X123150Y876080D03*
X123150Y872080D03*
X123150Y868080D03*
X123150Y920080D03*
X123150Y916080D03*
X123150Y912080D03*
X123150Y908080D03*
X123150Y904080D03*
X123150Y900080D03*
X123150Y896080D03*
D21*
X90900Y928330D03*
X94900Y928330D03*
X98900Y928330D03*
X102900Y928330D03*
X106900Y928330D03*
X110900Y928330D03*
X114900Y928330D03*
X62900Y928330D03*
X66900Y928330D03*
X70900Y928330D03*
X74900Y928330D03*
X78900Y928330D03*
X82900Y928330D03*
X86900Y928330D03*
D10*
X78900Y884080D03*
X98900Y884080D03*
X98900Y904080D03*
X88900Y894080D03*
X55960Y840740D03*
X65960Y840740D03*
X39370Y886540D03*
X39370Y896540D03*
X83740Y845820D03*
X73740Y845820D03*
X125730Y939880D03*
X125730Y949880D03*
X130810Y848280D03*
X130810Y838280D03*
X41910Y920830D03*
X41910Y930830D03*
X133350Y939880D03*
X133350Y949880D03*
X94060Y845820D03*
X104060Y845820D03*
X73580Y941070D03*
X63580Y941070D03*
X139700Y1038780D03*
X139700Y1028780D03*
X127000Y1038780D03*
X127000Y1028780D03*
X104220Y941070D03*
X114220Y941070D03*
X83900Y941070D03*
X93900Y941070D03*
X133350Y967660D03*
X133350Y957660D03*
X125730Y967660D03*
X125730Y957660D03*
D22*
X45370Y855460D03*
X28370Y855460D03*
X28370Y841460D03*
X45370Y841460D03*
D10*
X125730Y986710D03*
X125730Y976710D03*
D23*
X61150Y991870D03*
X61150Y979170D03*
X61150Y966470D03*
X61150Y953770D03*
X116650Y966470D03*
X116650Y953770D03*
X116650Y979170D03*
X116650Y991870D03*
D24*
X88900Y972820D03*
D10*
X41910Y980360D03*
X41910Y970360D03*
X125730Y994490D03*
X125730Y1004490D03*
X41910Y991950D03*
X41910Y1001950D03*
D15*
X30100Y825680D03*
X46100Y825680D03*
X46100Y784680D03*
X30100Y784680D03*
D25*
X150500Y1103930D03*
X161500Y1103930D03*
X161500Y1085630D03*
X150500Y1085630D03*
D10*
X267970Y1026080D03*
X267970Y1016080D03*
D11*
X252920Y1088700D02*
X252920Y1095700D01*
X259920Y1095700D01*
X259920Y1088700D01*
X252920Y1088700D01*
X252920Y1091550D02*
X259920Y1091550D01*
X259920Y1094400D02*
X252920Y1094400D01*
X235380Y1095700D02*
X235380Y1088700D01*
X235380Y1095700D02*
X242380Y1095700D01*
X242380Y1088700D01*
X235380Y1088700D01*
X235380Y1091550D02*
X242380Y1091550D01*
X242380Y1094400D02*
X235380Y1094400D01*
D10*
X340440Y831850D03*
X350440Y831850D03*
X347900Y1029970D03*
X337900Y1029970D03*
D12*
X279400Y1030080D03*
X279400Y1012080D03*
D13*
X294640Y1032580D03*
X294640Y1009580D03*
D14*
X327000Y1034081D03*
X317500Y1034081D03*
X308000Y1034081D03*
X308000Y1008079D03*
X327000Y1008079D03*
D10*
X269240Y1083230D03*
X269240Y1073230D03*
X365760Y1083230D03*
X365760Y1073230D03*
X347900Y1021080D03*
X337900Y1021080D03*
X347900Y1012190D03*
X337900Y1012190D03*
D15*
X360300Y825680D03*
X376300Y825680D03*
X376300Y784680D03*
X360300Y784680D03*
D16*
X289500Y793830D03*
X345500Y793830D03*
D17*
X302500Y830580D03*
X312500Y830580D03*
X322500Y830580D03*
X332500Y830580D03*
D10*
X340440Y849630D03*
X350440Y849630D03*
X340440Y840740D03*
X350440Y840740D03*
D18*
X310000Y1049880D03*
X315000Y1049880D03*
D19*
X285250Y1049880D03*
X293000Y1049880D03*
D18*
X300000Y1049880D03*
X305000Y1049880D03*
X325000Y1049880D03*
X320000Y1049880D03*
D19*
X349750Y1049880D03*
X342000Y1049880D03*
D18*
X335000Y1049880D03*
X330000Y1049880D03*
D10*
X294560Y831850D03*
X284560Y831850D03*
X294560Y849630D03*
X284560Y849630D03*
D20*
X283250Y896080D03*
D10*
X307500Y904080D03*
D20*
X283250Y900080D03*
X283250Y904080D03*
X283250Y908080D03*
X283250Y912080D03*
X283250Y916080D03*
X283250Y920080D03*
X283250Y868080D03*
X283250Y872080D03*
X283250Y876080D03*
X283250Y880080D03*
X283250Y884080D03*
X283250Y888080D03*
X283250Y892080D03*
D21*
X315500Y859830D03*
X311500Y859830D03*
X307500Y859830D03*
X303500Y859830D03*
X299500Y859830D03*
X295500Y859830D03*
X291500Y859830D03*
X343500Y859830D03*
X339500Y859830D03*
X335500Y859830D03*
X331500Y859830D03*
X327500Y859830D03*
X323500Y859830D03*
X319500Y859830D03*
D20*
X351750Y892080D03*
X351750Y888080D03*
X351750Y884080D03*
X351750Y880080D03*
X351750Y876080D03*
X351750Y872080D03*
X351750Y868080D03*
X351750Y920080D03*
X351750Y916080D03*
X351750Y912080D03*
X351750Y908080D03*
X351750Y904080D03*
X351750Y900080D03*
X351750Y896080D03*
D21*
X319500Y928330D03*
X323500Y928330D03*
X327500Y928330D03*
X331500Y928330D03*
X335500Y928330D03*
X339500Y928330D03*
X343500Y928330D03*
X291500Y928330D03*
X295500Y928330D03*
X299500Y928330D03*
X303500Y928330D03*
X307500Y928330D03*
X311500Y928330D03*
X315500Y928330D03*
D10*
X307500Y884080D03*
X327500Y884080D03*
X327500Y904080D03*
X317500Y894080D03*
X284560Y840740D03*
X294560Y840740D03*
X267970Y886540D03*
X267970Y896540D03*
X312340Y845820D03*
X302340Y845820D03*
X354330Y939880D03*
X354330Y949880D03*
X359410Y848280D03*
X359410Y838280D03*
X270510Y920830D03*
X270510Y930830D03*
X361950Y939880D03*
X361950Y949880D03*
X322660Y845820D03*
X332660Y845820D03*
X302180Y941070D03*
X292180Y941070D03*
X368300Y1038780D03*
X368300Y1028780D03*
X355600Y1038780D03*
X355600Y1028780D03*
X332820Y941070D03*
X342820Y941070D03*
X312500Y941070D03*
X322500Y941070D03*
X361950Y967660D03*
X361950Y957660D03*
X354330Y967660D03*
X354330Y957660D03*
D22*
X273970Y855460D03*
X256970Y855460D03*
X256970Y841460D03*
X273970Y841460D03*
D10*
X354330Y986710D03*
X354330Y976710D03*
D23*
X289750Y991870D03*
X289750Y979170D03*
X289750Y966470D03*
X289750Y953770D03*
X345250Y966470D03*
X345250Y953770D03*
X345250Y979170D03*
X345250Y991870D03*
D24*
X317500Y972820D03*
D10*
X270510Y980360D03*
X270510Y970360D03*
X354330Y994490D03*
X354330Y1004490D03*
X270510Y991950D03*
X270510Y1001950D03*
D15*
X258700Y825680D03*
X274700Y825680D03*
X274700Y784680D03*
X258700Y784680D03*
D25*
X379100Y1103930D03*
X390100Y1103930D03*
X390100Y1085630D03*
X379100Y1085630D03*
D10*
X496570Y1026080D03*
X496570Y1016080D03*
D11*
X481520Y1088700D02*
X481520Y1095700D01*
X488520Y1095700D01*
X488520Y1088700D01*
X481520Y1088700D01*
X481520Y1091550D02*
X488520Y1091550D01*
X488520Y1094400D02*
X481520Y1094400D01*
X463980Y1095700D02*
X463980Y1088700D01*
X463980Y1095700D02*
X470980Y1095700D01*
X470980Y1088700D01*
X463980Y1088700D01*
X463980Y1091550D02*
X470980Y1091550D01*
X470980Y1094400D02*
X463980Y1094400D01*
D10*
X569040Y831850D03*
X579040Y831850D03*
X576500Y1029970D03*
X566500Y1029970D03*
D12*
X508000Y1030080D03*
X508000Y1012080D03*
D13*
X523240Y1032580D03*
X523240Y1009580D03*
D14*
X555600Y1034081D03*
X546100Y1034081D03*
X536600Y1034081D03*
X536600Y1008079D03*
X555600Y1008079D03*
D10*
X497840Y1083230D03*
X497840Y1073230D03*
X594360Y1083230D03*
X594360Y1073230D03*
X576500Y1021080D03*
X566500Y1021080D03*
X576500Y1012190D03*
X566500Y1012190D03*
D15*
X588900Y825680D03*
X604900Y825680D03*
X604900Y784680D03*
X588900Y784680D03*
D16*
X518100Y793830D03*
X574100Y793830D03*
D17*
X531100Y830580D03*
X541100Y830580D03*
X551100Y830580D03*
X561100Y830580D03*
D10*
X569040Y849630D03*
X579040Y849630D03*
X569040Y840740D03*
X579040Y840740D03*
D18*
X538600Y1049880D03*
X543600Y1049880D03*
D19*
X513850Y1049880D03*
X521600Y1049880D03*
D18*
X528600Y1049880D03*
X533600Y1049880D03*
X553600Y1049880D03*
X548600Y1049880D03*
D19*
X578350Y1049880D03*
X570600Y1049880D03*
D18*
X563600Y1049880D03*
X558600Y1049880D03*
D10*
X523160Y831850D03*
X513160Y831850D03*
X523160Y849630D03*
X513160Y849630D03*
D20*
X511850Y896080D03*
D10*
X536100Y904080D03*
D20*
X511850Y900080D03*
X511850Y904080D03*
X511850Y908080D03*
X511850Y912080D03*
X511850Y916080D03*
X511850Y920080D03*
X511850Y868080D03*
X511850Y872080D03*
X511850Y876080D03*
X511850Y880080D03*
X511850Y884080D03*
X511850Y888080D03*
X511850Y892080D03*
D21*
X544100Y859830D03*
X540100Y859830D03*
X536100Y859830D03*
X532100Y859830D03*
X528100Y859830D03*
X524100Y859830D03*
X520100Y859830D03*
X572100Y859830D03*
X568100Y859830D03*
X564100Y859830D03*
X560100Y859830D03*
X556100Y859830D03*
X552100Y859830D03*
X548100Y859830D03*
D20*
X580350Y892080D03*
X580350Y888080D03*
X580350Y884080D03*
X580350Y880080D03*
X580350Y876080D03*
X580350Y872080D03*
X580350Y868080D03*
X580350Y920080D03*
X580350Y916080D03*
X580350Y912080D03*
X580350Y908080D03*
X580350Y904080D03*
X580350Y900080D03*
X580350Y896080D03*
D21*
X548100Y928330D03*
X552100Y928330D03*
X556100Y928330D03*
X560100Y928330D03*
X564100Y928330D03*
X568100Y928330D03*
X572100Y928330D03*
X520100Y928330D03*
X524100Y928330D03*
X528100Y928330D03*
X532100Y928330D03*
X536100Y928330D03*
X540100Y928330D03*
X544100Y928330D03*
D10*
X536100Y884080D03*
X556100Y884080D03*
X556100Y904080D03*
X546100Y894080D03*
X513160Y840740D03*
X523160Y840740D03*
X496570Y886540D03*
X496570Y896540D03*
X540940Y845820D03*
X530940Y845820D03*
X582930Y939880D03*
X582930Y949880D03*
X588010Y848280D03*
X588010Y838280D03*
X499110Y920830D03*
X499110Y930830D03*
X590550Y939880D03*
X590550Y949880D03*
X551260Y845820D03*
X561260Y845820D03*
X530780Y941070D03*
X520780Y941070D03*
X596900Y1038780D03*
X596900Y1028780D03*
X584200Y1038780D03*
X584200Y1028780D03*
X561420Y941070D03*
X571420Y941070D03*
X541100Y941070D03*
X551100Y941070D03*
X590550Y967660D03*
X590550Y957660D03*
X582930Y967660D03*
X582930Y957660D03*
D22*
X502570Y855460D03*
X485570Y855460D03*
X485570Y841460D03*
X502570Y841460D03*
D10*
X582930Y986710D03*
X582930Y976710D03*
D23*
X518350Y991870D03*
X518350Y979170D03*
X518350Y966470D03*
X518350Y953770D03*
X573850Y966470D03*
X573850Y953770D03*
X573850Y979170D03*
X573850Y991870D03*
D24*
X546100Y972820D03*
D10*
X499110Y980360D03*
X499110Y970360D03*
X582930Y994490D03*
X582930Y1004490D03*
X499110Y991950D03*
X499110Y1001950D03*
D15*
X487300Y825680D03*
X503300Y825680D03*
X503300Y784680D03*
X487300Y784680D03*
D25*
X607700Y1103930D03*
X618700Y1103930D03*
X618700Y1085630D03*
X607700Y1085630D03*
D10*
X725170Y1026080D03*
X725170Y1016080D03*
D11*
X710120Y1088700D02*
X710120Y1095700D01*
X717120Y1095700D01*
X717120Y1088700D01*
X710120Y1088700D01*
X710120Y1091550D02*
X717120Y1091550D01*
X717120Y1094400D02*
X710120Y1094400D01*
X692580Y1095700D02*
X692580Y1088700D01*
X692580Y1095700D02*
X699580Y1095700D01*
X699580Y1088700D01*
X692580Y1088700D01*
X692580Y1091550D02*
X699580Y1091550D01*
X699580Y1094400D02*
X692580Y1094400D01*
D10*
X797640Y831850D03*
X807640Y831850D03*
X805100Y1029970D03*
X795100Y1029970D03*
D12*
X736600Y1030080D03*
X736600Y1012080D03*
D13*
X751840Y1032580D03*
X751840Y1009580D03*
D14*
X784200Y1034081D03*
X774700Y1034081D03*
X765200Y1034081D03*
X765200Y1008079D03*
X784200Y1008079D03*
D10*
X726440Y1083230D03*
X726440Y1073230D03*
X822960Y1083230D03*
X822960Y1073230D03*
X805100Y1021080D03*
X795100Y1021080D03*
X805100Y1012190D03*
X795100Y1012190D03*
D15*
X817500Y825680D03*
X833500Y825680D03*
X833500Y784680D03*
X817500Y784680D03*
D16*
X746700Y793830D03*
X802700Y793830D03*
D17*
X759700Y830580D03*
X769700Y830580D03*
X779700Y830580D03*
X789700Y830580D03*
D10*
X797640Y849630D03*
X807640Y849630D03*
X797640Y840740D03*
X807640Y840740D03*
D18*
X767200Y1049880D03*
X772200Y1049880D03*
D19*
X742450Y1049880D03*
X750200Y1049880D03*
D18*
X757200Y1049880D03*
X762200Y1049880D03*
X782200Y1049880D03*
X777200Y1049880D03*
D19*
X806950Y1049880D03*
X799200Y1049880D03*
D18*
X792200Y1049880D03*
X787200Y1049880D03*
D10*
X751760Y831850D03*
X741760Y831850D03*
X751760Y849630D03*
X741760Y849630D03*
D20*
X740450Y896080D03*
D10*
X764700Y904080D03*
D20*
X740450Y900080D03*
X740450Y904080D03*
X740450Y908080D03*
X740450Y912080D03*
X740450Y916080D03*
X740450Y920080D03*
X740450Y868080D03*
X740450Y872080D03*
X740450Y876080D03*
X740450Y880080D03*
X740450Y884080D03*
X740450Y888080D03*
X740450Y892080D03*
D21*
X772700Y859830D03*
X768700Y859830D03*
X764700Y859830D03*
X760700Y859830D03*
X756700Y859830D03*
X752700Y859830D03*
X748700Y859830D03*
X800700Y859830D03*
X796700Y859830D03*
X792700Y859830D03*
X788700Y859830D03*
X784700Y859830D03*
X780700Y859830D03*
X776700Y859830D03*
D20*
X808950Y892080D03*
X808950Y888080D03*
X808950Y884080D03*
X808950Y880080D03*
X808950Y876080D03*
X808950Y872080D03*
X808950Y868080D03*
X808950Y920080D03*
X808950Y916080D03*
X808950Y912080D03*
X808950Y908080D03*
X808950Y904080D03*
X808950Y900080D03*
X808950Y896080D03*
D21*
X776700Y928330D03*
X780700Y928330D03*
X784700Y928330D03*
X788700Y928330D03*
X792700Y928330D03*
X796700Y928330D03*
X800700Y928330D03*
X748700Y928330D03*
X752700Y928330D03*
X756700Y928330D03*
X760700Y928330D03*
X764700Y928330D03*
X768700Y928330D03*
X772700Y928330D03*
D10*
X764700Y884080D03*
X784700Y884080D03*
X784700Y904080D03*
X774700Y894080D03*
X741760Y840740D03*
X751760Y840740D03*
X725170Y886540D03*
X725170Y896540D03*
X769540Y845820D03*
X759540Y845820D03*
X811530Y939880D03*
X811530Y949880D03*
X816610Y848280D03*
X816610Y838280D03*
X727710Y920830D03*
X727710Y930830D03*
X819150Y939880D03*
X819150Y949880D03*
X779860Y845820D03*
X789860Y845820D03*
X759380Y941070D03*
X749380Y941070D03*
X825500Y1038780D03*
X825500Y1028780D03*
X812800Y1038780D03*
X812800Y1028780D03*
X790020Y941070D03*
X800020Y941070D03*
X769700Y941070D03*
X779700Y941070D03*
X819150Y967660D03*
X819150Y957660D03*
X811530Y967660D03*
X811530Y957660D03*
D22*
X731170Y855460D03*
X714170Y855460D03*
X714170Y841460D03*
X731170Y841460D03*
D10*
X811530Y986710D03*
X811530Y976710D03*
D23*
X746950Y991870D03*
X746950Y979170D03*
X746950Y966470D03*
X746950Y953770D03*
X802450Y966470D03*
X802450Y953770D03*
X802450Y979170D03*
X802450Y991870D03*
D24*
X774700Y972820D03*
D10*
X727710Y980360D03*
X727710Y970360D03*
X811530Y994490D03*
X811530Y1004490D03*
X727710Y991950D03*
X727710Y1001950D03*
D15*
X715900Y825680D03*
X731900Y825680D03*
X731900Y784680D03*
X715900Y784680D03*
D25*
X836300Y1103930D03*
X847300Y1103930D03*
X847300Y1085630D03*
X836300Y1085630D03*
D10*
X953770Y1026080D03*
X953770Y1016080D03*
D11*
X938720Y1088700D02*
X938720Y1095700D01*
X945720Y1095700D01*
X945720Y1088700D01*
X938720Y1088700D01*
X938720Y1091550D02*
X945720Y1091550D01*
X945720Y1094400D02*
X938720Y1094400D01*
X921180Y1095700D02*
X921180Y1088700D01*
X921180Y1095700D02*
X928180Y1095700D01*
X928180Y1088700D01*
X921180Y1088700D01*
X921180Y1091550D02*
X928180Y1091550D01*
X928180Y1094400D02*
X921180Y1094400D01*
D10*
X1026240Y831850D03*
X1036240Y831850D03*
X1033700Y1029970D03*
X1023700Y1029970D03*
D12*
X965200Y1030080D03*
X965200Y1012080D03*
D13*
X980440Y1032580D03*
X980440Y1009580D03*
D14*
X1012800Y1034081D03*
X1003300Y1034081D03*
X993800Y1034081D03*
X993800Y1008079D03*
X1012800Y1008079D03*
D10*
X955040Y1083230D03*
X955040Y1073230D03*
X1051560Y1083230D03*
X1051560Y1073230D03*
X1033700Y1021080D03*
X1023700Y1021080D03*
X1033700Y1012190D03*
X1023700Y1012190D03*
D15*
X1046100Y825680D03*
X1062100Y825680D03*
X1062100Y784680D03*
X1046100Y784680D03*
D16*
X975300Y793830D03*
X1031300Y793830D03*
D17*
X988300Y830580D03*
X998300Y830580D03*
X1008300Y830580D03*
X1018300Y830580D03*
D10*
X1026240Y849630D03*
X1036240Y849630D03*
X1026240Y840740D03*
X1036240Y840740D03*
D18*
X995800Y1049880D03*
X1000800Y1049880D03*
D19*
X971050Y1049880D03*
X978800Y1049880D03*
D18*
X985800Y1049880D03*
X990800Y1049880D03*
X1010800Y1049880D03*
X1005800Y1049880D03*
D19*
X1035550Y1049880D03*
X1027800Y1049880D03*
D18*
X1020800Y1049880D03*
X1015800Y1049880D03*
D10*
X980360Y831850D03*
X970360Y831850D03*
X980360Y849630D03*
X970360Y849630D03*
D20*
X969050Y896080D03*
D10*
X993300Y904080D03*
D20*
X969050Y900080D03*
X969050Y904080D03*
X969050Y908080D03*
X969050Y912080D03*
X969050Y916080D03*
X969050Y920080D03*
X969050Y868080D03*
X969050Y872080D03*
X969050Y876080D03*
X969050Y880080D03*
X969050Y884080D03*
X969050Y888080D03*
X969050Y892080D03*
D21*
X1001300Y859830D03*
X997300Y859830D03*
X993300Y859830D03*
X989300Y859830D03*
X985300Y859830D03*
X981300Y859830D03*
X977300Y859830D03*
X1029300Y859830D03*
X1025300Y859830D03*
X1021300Y859830D03*
X1017300Y859830D03*
X1013300Y859830D03*
X1009300Y859830D03*
X1005300Y859830D03*
D20*
X1037550Y892080D03*
X1037550Y888080D03*
X1037550Y884080D03*
X1037550Y880080D03*
X1037550Y876080D03*
X1037550Y872080D03*
X1037550Y868080D03*
X1037550Y920080D03*
X1037550Y916080D03*
X1037550Y912080D03*
X1037550Y908080D03*
X1037550Y904080D03*
X1037550Y900080D03*
X1037550Y896080D03*
D21*
X1005300Y928330D03*
X1009300Y928330D03*
X1013300Y928330D03*
X1017300Y928330D03*
X1021300Y928330D03*
X1025300Y928330D03*
X1029300Y928330D03*
X977300Y928330D03*
X981300Y928330D03*
X985300Y928330D03*
X989300Y928330D03*
X993300Y928330D03*
X997300Y928330D03*
X1001300Y928330D03*
D10*
X993300Y884080D03*
X1013300Y884080D03*
X1013300Y904080D03*
X1003300Y894080D03*
X970360Y840740D03*
X980360Y840740D03*
X953770Y886540D03*
X953770Y896540D03*
X998140Y845820D03*
X988140Y845820D03*
X1040130Y939880D03*
X1040130Y949880D03*
X1045210Y848280D03*
X1045210Y838280D03*
X956310Y920830D03*
X956310Y930830D03*
X1047750Y939880D03*
X1047750Y949880D03*
X1008460Y845820D03*
X1018460Y845820D03*
X987980Y941070D03*
X977980Y941070D03*
X1054100Y1038780D03*
X1054100Y1028780D03*
X1041400Y1038780D03*
X1041400Y1028780D03*
X1018620Y941070D03*
X1028620Y941070D03*
X998300Y941070D03*
X1008300Y941070D03*
X1047750Y967660D03*
X1047750Y957660D03*
X1040130Y967660D03*
X1040130Y957660D03*
D22*
X959770Y855460D03*
X942770Y855460D03*
X942770Y841460D03*
X959770Y841460D03*
D10*
X1040130Y986710D03*
X1040130Y976710D03*
D23*
X975550Y991870D03*
X975550Y979170D03*
X975550Y966470D03*
X975550Y953770D03*
X1031050Y966470D03*
X1031050Y953770D03*
X1031050Y979170D03*
X1031050Y991870D03*
D24*
X1003300Y972820D03*
D10*
X956310Y980360D03*
X956310Y970360D03*
X1040130Y994490D03*
X1040130Y1004490D03*
X956310Y991950D03*
X956310Y1001950D03*
D15*
X944500Y825680D03*
X960500Y825680D03*
X960500Y784680D03*
X944500Y784680D03*
D25*
X1064900Y1103930D03*
X1075900Y1103930D03*
X1075900Y1085630D03*
X1064900Y1085630D03*
M02*
