M48
;GenerationSoftware,Autodesk,EAGLE,9.6.2*%
;CreationDate,2021-01-07T17:56:14Z*%
FMAT,2
ICI,OFF
METRIC,TZ,000.000
T5C0.200
T4C0.400
T3C0.650
T2C0.850
T1C1.700
%
G90
M71
T1
X22560Y13970
X91140Y50800
X91140Y53340
X91140Y55880
X91140Y58420
X91140Y60960
X91140Y63500
X91140Y66040
X91140Y68580
X91140Y71120
X91140Y73660
X86660Y73660
X86660Y71120
X86660Y68580
X86660Y66040
X86660Y63500
X86660Y60960
X86660Y58420
X86660Y55880
X86660Y53340
X86660Y50800
X86660Y48260
X86660Y45720
X68280Y45720
X68280Y48260
X68280Y50800
X68280Y53340
X68280Y55880
X68280Y58420
X68280Y60960
X68280Y63500
X86660Y8890
X86660Y11430
X86660Y13970
X86660Y16510
X86660Y19050
X86660Y21590
X86660Y24130
X86660Y26670
X86660Y29210
X63800Y53340
X63800Y50800
X63800Y48260
X-300Y29210
X-300Y26670
X-300Y24130
X-300Y21590
X-300Y19050
X-300Y16510
X-300Y13970
X-300Y11430
X-300Y8890
X-300Y6350
X-300Y3810
X-300Y1270
X63800Y45720
X40940Y55880
X40940Y58420
X40940Y60960
X40940Y63500
X18080Y45720
X18080Y48260
X18080Y50800
X18080Y53340
X18080Y55880
X18080Y58420
X18080Y60960
X18080Y1270
X18080Y3810
X18080Y6350
X18080Y8890
X18080Y11430
X18080Y13970
X18080Y16510
X18080Y19050
X18080Y21590
X18080Y24130
X18080Y26670
X18080Y29210
X68280Y66040
X68280Y68580
X68280Y71120
X68280Y73660
X18080Y63500
X91140Y29210
X91140Y26670
X91140Y24130
X91140Y21590
X91140Y19050
X91140Y16510
X91140Y13970
X91140Y11430
X91140Y8890
X91140Y6350
X91140Y3810
X22560Y29210
X22560Y26670
X22560Y24130
X22560Y21590
X22560Y19050
X22560Y16510
X68280Y21590
X22560Y11430
X22560Y8890
X22560Y6350
X22560Y3810
X22560Y1270
X91140Y1270
X18080Y66040
X18080Y68580
X18080Y71120
X18080Y73660
X45420Y55880
X45420Y58420
X45420Y60960
X45420Y63500
X40940Y66040
X40940Y68580
X40940Y71120
X40940Y1270
X40940Y3810
X40940Y6350
X40940Y8890
X40940Y11430
X40940Y13970
X40940Y16510
X40940Y19050
X40940Y21590
X40940Y24130
X40940Y26670
X40940Y29210
X63800Y73660
X63800Y71120
X63800Y68580
X63800Y66040
X40940Y73660
X109520Y1270
X109520Y3810
X109520Y6350
X109520Y8890
X109520Y11430
X109520Y13970
X109520Y16510
X109520Y19050
X109520Y21590
X109520Y24130
X109520Y26670
X45420Y29210
X45420Y26670
X45420Y24130
X45420Y21590
X45420Y19050
X45420Y16510
X45420Y13970
X45420Y11430
X45420Y8890
X45420Y6350
X45420Y3810
X45420Y1270
X109520Y29210
X45420Y45720
X45420Y48260
X45420Y50800
X45420Y53340
X45420Y66040
X45420Y68580
X45420Y71120
X45420Y73660
X40940Y45720
X40940Y48260
X40940Y50800
X63800Y1270
X63800Y3810
X63800Y6350
X63800Y8890
X63800Y11430
X63800Y13970
X63800Y16510
X63800Y19050
X63800Y21590
X63800Y24130
X63800Y26670
X63800Y29210
X63800Y63500
X63800Y60960
X63800Y58420
X63800Y55880
X40940Y53340
X22560Y73660
X22560Y71120
X22560Y68580
X22560Y66040
X-300Y73660
X-300Y71120
X-300Y68580
X-300Y66040
X-300Y63500
X-300Y60960
X-300Y58420
X68280Y29210
X68280Y26670
X68280Y24130
X-300Y55880
X68280Y19050
X68280Y16510
X68280Y13970
X68280Y11430
X68280Y8890
X68280Y6350
X68280Y3810
X68280Y1270
X-300Y53340
X-300Y50800
X-300Y48260
X-300Y45720
X22560Y63500
X22560Y60960
X22560Y58420
X22560Y55880
X22560Y53340
X22560Y50800
X22560Y48260
X22560Y45720
X86660Y1270
X86660Y3810
X86660Y6350
X91140Y48260
X91140Y45720
X109520Y45720
X109520Y48260
X109520Y50800
X109520Y53340
X109520Y55880
X109520Y58420
X109520Y60960
X109520Y63500
X109520Y66040
X109520Y68580
X109520Y71120
X109520Y73660
X-300Y118110
X-300Y115570
X-300Y113030
X-300Y110490
X-300Y107950
X-300Y105410
X-300Y102870
X-300Y100330
X-300Y97790
X-300Y95250
X-300Y92710
X-300Y90170
X18080Y90170
X18080Y92710
X18080Y95250
X18080Y97790
X18080Y100330
X18080Y102870
X18080Y105410
X18080Y107950
X18080Y110490
X18080Y113030
X18080Y115570
X18080Y118110
X22560Y118110
X22560Y115570
X22560Y113030
X22560Y110490
X22560Y107950
X22560Y105410
X22560Y102870
X22560Y100330
X22560Y97790
X22560Y95250
X22560Y92710
X22560Y90170
X40940Y90170
X40940Y92710
X40940Y95250
X40940Y97790
X40940Y100330
X40940Y102870
X40940Y105410
X40940Y107950
X40940Y110490
X40940Y113030
X40940Y115570
X40940Y118110
X45420Y118110
X45420Y115570
X45420Y113030
X45420Y110490
X45420Y107950
X45420Y105410
X45420Y102870
X45420Y100330
X45420Y97790
X45420Y95250
X45420Y92710
X45420Y90170
X63800Y90170
X63800Y92710
X63800Y95250
X63800Y97790
X63800Y100330
X63800Y102870
X63800Y105410
X63800Y107950
X63800Y110490
X63800Y113030
X63800Y115570
X63800Y118110
X68280Y118110
X68280Y115570
X68280Y113030
X68280Y110490
X68280Y107950
X68280Y105410
X68280Y102870
X68280Y100330
X68280Y97790
X68280Y95250
X68280Y92710
X68280Y90170
X86660Y90170
X86660Y92710
X86660Y95250
X86660Y97790
X86660Y100330
X86660Y102870
X86660Y105410
X86660Y107950
X86660Y110490
X86660Y113030
X86660Y115570
X86660Y118110
X91140Y118110
X91140Y115570
X91140Y113030
X91140Y110490
X91140Y107950
X91140Y105410
X91140Y102870
X91140Y100330
X91140Y97790
X91140Y95250
X91140Y92710
X91140Y90170
X109520Y90170
X109520Y92710
X109520Y95250
X109520Y97790
X109520Y100330
X109520Y102870
X109520Y105410
X109520Y107950
X109520Y110490
X109520Y113030
X109520Y115570
X109520Y118110
T2
X16510Y55880
X16510Y60960
X16510Y50800
X16510Y48260
X16510Y53340
X16510Y45720
X16510Y63500
X16510Y68580
X16510Y66040
X16510Y71120
X16510Y73660
X24130Y60960
X24130Y63500
X24130Y58420
X24130Y68580
X24130Y71120
X24130Y66040
X24130Y73660
X24130Y55880
X24130Y50800
X24130Y53340
X24130Y48260
X24130Y45720
X39370Y58420
X39370Y55880
X39370Y60960
X39370Y50800
X39370Y48260
X39370Y53340
X39370Y45720
X39370Y63500
X39370Y68580
X39370Y66040
X39370Y71120
X39370Y73660
X46990Y60960
X46990Y63500
X46990Y58420
X46990Y68580
X46990Y71120
X46990Y66040
X46990Y73660
X46990Y55880
X46990Y50800
X46990Y53340
X46990Y48260
X46990Y45720
X62230Y58420
X62230Y55880
X62230Y60960
X62230Y50800
X62230Y48260
X62230Y53340
X62230Y45720
X62230Y63500
X62230Y68580
X62230Y66040
X62230Y71120
X62230Y73660
X69850Y60960
X69850Y63500
X69850Y58420
X69850Y68580
X69850Y71120
X69850Y66040
X69850Y73660
X69850Y55880
X69850Y50800
X69850Y53340
X69850Y48260
X69850Y45720
X85090Y58420
X85090Y55880
X85090Y60960
X85090Y50800
X85090Y48260
X85090Y53340
X85090Y45720
X85090Y63500
X85090Y68580
X85090Y66040
X85090Y71120
X85090Y73660
X92710Y60960
X92710Y63500
X92710Y58420
X92710Y68580
X92710Y71120
X92710Y66040
X92710Y73660
X92710Y55880
X92710Y50800
X92710Y53340
X92710Y48260
X92710Y45720
X1270Y16510
X1270Y19050
X107950Y58420
X107950Y55880
X107950Y60960
X107950Y50800
X107950Y48260
X107950Y53340
X107950Y45720
X107950Y63500
X107950Y68580
X107950Y66040
X107950Y73660
X1270Y13970
X1270Y24130
X1270Y26670
X1270Y21590
X1270Y29210
X1270Y11430
X1270Y6350
X1270Y8890
X1270Y3810
X1270Y1270
X16510Y13970
X16510Y11430
X1270Y105410
X1270Y107950
X1270Y102870
X1270Y113030
X1270Y115570
X1270Y110490
X1270Y118110
X1270Y100330
X1270Y95250
X1270Y97790
X1270Y92710
X1270Y90170
X16510Y16510
X16510Y6350
X16510Y3810
X16510Y8890
X16510Y1270
X16510Y19050
X16510Y24130
X16510Y21590
X16510Y26670
X16510Y29210
X24130Y16510
X24130Y19050
X16510Y102870
X16510Y100330
X16510Y105410
X16510Y95250
X16510Y92710
X16510Y97790
X16510Y90170
X16510Y107950
X16510Y113030
X16510Y110490
X16510Y115570
X16510Y118110
X24130Y13970
X24130Y24130
X24130Y26670
X24130Y21590
X24130Y29210
X24130Y11430
X24130Y6350
X24130Y8890
X24130Y3810
X24130Y1270
X39370Y13970
X39370Y11430
X24130Y105410
X24130Y107950
X24130Y102870
X24130Y113030
X24130Y115570
X24130Y110490
X24130Y118110
X24130Y100330
X24130Y95250
X24130Y97790
X24130Y92710
X24130Y90170
X39370Y16510
X39370Y6350
X39370Y3810
X39370Y8890
X39370Y1270
X39370Y19050
X39370Y24130
X39370Y21590
X39370Y26670
X39370Y29210
X46990Y16510
X46990Y19050
X39370Y102870
X39370Y100330
X39370Y105410
X39370Y95250
X39370Y92710
X39370Y97790
X39370Y90170
X39370Y107950
X39370Y113030
X39370Y110490
X39370Y115570
X39370Y118110
X46990Y13970
X46990Y24130
X46990Y26670
X46990Y21590
X46990Y29210
X46990Y11430
X46990Y6350
X46990Y8890
X46990Y3810
X46990Y1270
X62230Y13970
X62230Y11430
X46990Y105410
X46990Y107950
X46990Y102870
X46990Y113030
X46990Y115570
X46990Y110490
X46990Y118110
X46990Y100330
X46990Y95250
X46990Y97790
X46990Y92710
X46990Y90170
X62230Y16510
X62230Y6350
X62230Y3810
X62230Y8890
X62230Y1270
X62230Y19050
X62230Y24130
X62230Y21590
X62230Y26670
X62230Y29210
X69850Y16510
X69850Y19050
X62230Y102870
X62230Y100330
X62230Y105410
X62230Y95250
X62230Y92710
X62230Y97790
X62230Y90170
X62230Y107950
X62230Y113030
X62230Y110490
X62230Y115570
X62230Y118110
X69850Y13970
X69850Y24130
X69850Y26670
X69850Y21590
X69850Y29210
X69850Y11430
X69850Y6350
X69850Y8890
X69850Y3810
X69850Y1270
X107950Y71120
X85090Y13970
X69850Y105410
X69850Y107950
X69850Y102870
X69850Y113030
X69850Y115570
X69850Y110490
X69850Y118110
X69850Y100330
X69850Y95250
X69850Y97790
X69850Y92710
X69850Y90170
X85090Y11430
X85090Y16510
X85090Y6350
X85090Y3810
X85090Y8890
X85090Y1270
X85090Y19050
X85090Y24130
X85090Y21590
X85090Y26670
X85090Y29210
X92710Y16510
X85090Y102870
X85090Y100330
X85090Y105410
X85090Y95250
X85090Y92710
X85090Y97790
X85090Y90170
X85090Y107950
X85090Y113030
X85090Y110490
X85090Y115570
X85090Y118110
X92710Y19050
X92710Y13970
X92710Y24130
X92710Y26670
X92710Y21590
X92710Y29210
X92710Y11430
X92710Y6350
X92710Y8890
X92710Y3810
X92710Y1270
X107950Y13970
X92710Y105410
X92710Y107950
X92710Y102870
X92710Y113030
X92710Y115570
X92710Y110490
X92710Y118110
X92710Y100330
X92710Y95250
X92710Y97790
X92710Y92710
X92710Y90170
X107950Y11430
X107950Y16510
X107950Y6350
X107950Y3810
X107950Y8890
X107950Y1270
X107950Y19050
X107950Y24130
X107950Y21590
X107950Y26670
X107950Y29210
X1270Y60960
X107950Y102870
X107950Y100330
X107950Y105410
X107950Y95250
X107950Y92710
X107950Y97790
X107950Y90170
X107950Y107950
X107950Y113030
X107950Y110490
X107950Y115570
X107950Y118110
X1270Y63500
X1270Y58420
X1270Y68580
X1270Y71120
X1270Y66040
X1270Y73660
X1270Y55880
X1270Y50800
X1270Y53340
X1270Y48260
X1270Y45720
X16510Y58420
T3
X11780Y72565
X103220Y28115
X97440Y28115
X11780Y28115
X74580Y28115
X80360Y28115
X51720Y28115
X57500Y28115
X28860Y28115
X34640Y28115
X6000Y28115
X97440Y117015
X103220Y117015
X74580Y117015
X80360Y117015
X51720Y117015
X57500Y117015
X28860Y117015
X34640Y117015
X103220Y72565
X6000Y117015
X11780Y117015
X97440Y72565
X74580Y72565
X80360Y72565
X51720Y72565
X57500Y72565
X28860Y72565
X34640Y72565
X6000Y72565
T4
X27432Y76215
X104648Y27585
X96012Y27585
X96012Y31765
X81788Y120665
X73152Y120665
X73152Y116485
X81788Y116485
X104648Y31765
X13208Y27585
X4572Y27585
X4572Y31765
X13208Y120665
X4572Y120665
X4572Y116485
X13208Y116485
X13208Y31765
X81788Y76215
X73152Y76215
X73152Y72035
X81788Y72035
X58928Y76215
X50292Y76215
X50292Y72035
X58928Y72035
X81788Y27585
X73152Y27585
X73152Y31765
X81788Y31765
X58928Y27585
X50292Y27585
X50292Y31765
X58928Y31765
X36068Y27585
X104648Y76215
X96012Y76215
X96012Y72035
X36068Y72035
X58928Y120665
X50292Y120665
X50292Y116485
X58928Y116485
X27432Y27585
X27432Y31765
X36068Y31765
X27432Y72035
X36068Y120665
X27432Y120665
X104648Y72035
X27432Y116485
X36068Y116485
X36068Y76215
X13208Y72035
X4572Y72035
X4572Y76215
X13208Y76215
X104648Y120665
X96012Y120665
X96012Y116485
X104648Y116485
T5
X75057Y55299
X82550Y54497
X80645Y52451
X80645Y48133
X80032Y53340
X80137Y47498
X76305Y58537
X76200Y63119
X79502Y63119
X76200Y58006
X75819Y61849
X79502Y61849
X76835Y58420
X76581Y64389
X79502Y64389
X76962Y53213
X73152Y53213
X78940Y58293
X82550Y68326
X78486Y58293
X81280Y68453
X77597Y53848
X77470Y58293
X75184Y58420
X75438Y64389
X75565Y58039
X75438Y63119
X80645Y70358
X76835Y72390
X81915Y70358
X78232Y72390
X71501Y46482
X72771Y62611
X82780Y56350
X83580Y72950
X85725Y75311
X100330Y68961
X95631Y60325
X97155Y60579
X100838Y61341
X102870Y61214
X105410Y61468
X104775Y64135
X104775Y66929
X104013Y67691
X103886Y73025
X96774Y73152
X95250Y75565
X98425Y74041
X105410Y75438
X97536Y62484
X99314Y53594
X101854Y51689
X98806Y51689
X98806Y48514
X96012Y48260
X96012Y45720
X106299Y48260
X105410Y45720
X105156Y50292
X94742Y56134
X99060Y54610
X99060Y57150
X101600Y57150
X100330Y54610
X100330Y55880
X99060Y55880
X101600Y55880
X100330Y57150
X99504Y68517
X101600Y72390
X105664Y72898
X98679Y72263
X97663Y73787
X102590Y73051
X104521Y51943
X104775Y54864
X100457Y53340
X99822Y48514
X102616Y58420
X100892Y58293
X96266Y59690
X98151Y54891
X105410Y62230
X101280Y66106
X102362Y53340
X102489Y48895
X105029Y67818
X101854Y53340
X101346Y53340
X105918Y55753
X97917Y54483
X97917Y54029
X97917Y55753
X97917Y55299
X105410Y54497
X103505Y52451
X103505Y48133
X102892Y53340
X102997Y47498
X99165Y58537
X99060Y63119
X102362Y63119
X99060Y58006
X98679Y61849
X102362Y61849
X99695Y58420
X99441Y64389
X102362Y64389
X99822Y53213
X96012Y53213
X101800Y58293
X105410Y68326
X101346Y58293
X104140Y68453
X100457Y53848
X100330Y58293
X98044Y58420
X98298Y64389
X98425Y58039
X98298Y63119
X103505Y70358
X99695Y72390
X104775Y70358
X101092Y72390
X94361Y46482
X95631Y62611
X105640Y56350
X106440Y72950
X108585Y75311
X8890Y113411
X4191Y104775
X5715Y105029
X9398Y105791
X11430Y105664
X13970Y105918
X13335Y108585
X13335Y111379
X12573Y112141
X12446Y117475
X5334Y117602
X3810Y120015
X6985Y118491
X13970Y119888
X6096Y106934
X7874Y98044
X10414Y96139
X7366Y96139
X7366Y92964
X4572Y92710
X4572Y90170
X14859Y92710
X13970Y90170
X13716Y94742
X3302Y100584
X7620Y99060
X7620Y101600
X10160Y101600
X8890Y99060
X8890Y100330
X7620Y100330
X10160Y100330
X8890Y101600
X8064Y112966
X10160Y116840
X14224Y117348
X7239Y116713
X6223Y118237
X11150Y117501
X13081Y96393
X13335Y99314
X9017Y97790
X8382Y92964
X11176Y102870
X9452Y102743
X4826Y104140
X6711Y99341
X13970Y106680
X9840Y110556
X10922Y97790
X11049Y93345
X13589Y112268
X10414Y97790
X9906Y97790
X14478Y100203
X6477Y98933
X6477Y98479
X6477Y100203
X6477Y99749
X13970Y98947
X12065Y96901
X12065Y92583
X11452Y97790
X11557Y91948
X7725Y102987
X7620Y107569
X10922Y107569
X7620Y102456
X7239Y106299
X10922Y106299
X8255Y102870
X8001Y108839
X10922Y108839
X8382Y97663
X4572Y97663
X10360Y102743
X13970Y112776
X9906Y102743
X12700Y112903
X9017Y98298
X8890Y102743
X6604Y102870
X6858Y108839
X6985Y102489
X6858Y107569
X12065Y114808
X8255Y116840
X13335Y114808
X9652Y116840
X2921Y90932
X4191Y107061
X14200Y100800
X15000Y117400
X17145Y119761
X31750Y113411
X27051Y104775
X28575Y105029
X32258Y105791
X34290Y105664
X36830Y105918
X36195Y108585
X36195Y111379
X35433Y112141
X35306Y117475
X28194Y117602
X26670Y120015
X29845Y118491
X36830Y119888
X28956Y106934
X30734Y98044
X33274Y96139
X30226Y96139
X30226Y92964
X27432Y92710
X27432Y90170
X37719Y92710
X36830Y90170
X36576Y94742
X26162Y100584
X30480Y99060
X30480Y101600
X33020Y101600
X31750Y99060
X31750Y100330
X30480Y100330
X33020Y100330
X31750Y101600
X30924Y112966
X33020Y116840
X37084Y117348
X30099Y116713
X29083Y118237
X34010Y117501
X35941Y96393
X36195Y99314
X31877Y97790
X31242Y92964
X34036Y102870
X32312Y102743
X27686Y104140
X29571Y99341
X36830Y106680
X32700Y110556
X33782Y97790
X33909Y93345
X36449Y112268
X33274Y97790
X32766Y97790
X37338Y100203
X29337Y98933
X29337Y98479
X29337Y100203
X29337Y99749
X36830Y98947
X34925Y96901
X34925Y92583
X34312Y97790
X34417Y91948
X30585Y102987
X30480Y107569
X33782Y107569
X30480Y102456
X30099Y106299
X33782Y106299
X31115Y102870
X30861Y108839
X33782Y108839
X31242Y97663
X27432Y97663
X33220Y102743
X48641Y2032
X32766Y102743
X35560Y112903
X31877Y98298
X31750Y102743
X29464Y102870
X29718Y108839
X29845Y102489
X29718Y107569
X34925Y114808
X31115Y116840
X36195Y114808
X32512Y116840
X25781Y90932
X27051Y107061
X37060Y100800
X37860Y117400
X40005Y119761
X54610Y113411
X49911Y104775
X51435Y105029
X55118Y105791
X57150Y105664
X59690Y105918
X59055Y108585
X59055Y111379
X58293Y112141
X58166Y117475
X51054Y117602
X49530Y120015
X52705Y118491
X59690Y119888
X51816Y106934
X53594Y98044
X56134Y96139
X53086Y96139
X53086Y92964
X50292Y92710
X50292Y90170
X60579Y92710
X59690Y90170
X59436Y94742
X49022Y100584
X53340Y99060
X53340Y101600
X55880Y101600
X54610Y99060
X54610Y100330
X53340Y100330
X55880Y100330
X54610Y101600
X53784Y112966
X55880Y116840
X59944Y117348
X52959Y116713
X51943Y118237
X56870Y117501
X58801Y96393
X59055Y99314
X54737Y97790
X54102Y92964
X56896Y102870
X55172Y102743
X50546Y104140
X52431Y99341
X59690Y106680
X55560Y110556
X56642Y97790
X56769Y93345
X59309Y112268
X56134Y97790
X55626Y97790
X60198Y100203
X52197Y98933
X52197Y98479
X52197Y100203
X52197Y99749
X59690Y98947
X57785Y96901
X57785Y92583
X57172Y97790
X57277Y91948
X53445Y102987
X53340Y107569
X56642Y107569
X53340Y102456
X52959Y106299
X56642Y106299
X53975Y102870
X53721Y108839
X56642Y108839
X54102Y97663
X50292Y97663
X56080Y102743
X59690Y112776
X55626Y102743
X58420Y112903
X54737Y98298
X54610Y102743
X52324Y102870
X52578Y108839
X52705Y102489
X52578Y107569
X57785Y114808
X53975Y116840
X59055Y114808
X55372Y116840
X48641Y90932
X49911Y107061
X59920Y100800
X60720Y117400
X62865Y119761
X77470Y113411
X72771Y104775
X74295Y105029
X77978Y105791
X80010Y105664
X82550Y105918
X81915Y108585
X81915Y111379
X81153Y112141
X81026Y117475
X73914Y117602
X72390Y120015
X75565Y118491
X82550Y119888
X74676Y106934
X76454Y98044
X78994Y96139
X75946Y96139
X75946Y92964
X73152Y92710
X73152Y90170
X83439Y92710
X82550Y90170
X82296Y94742
X71882Y100584
X76200Y99060
X76200Y101600
X78740Y101600
X77470Y99060
X77470Y100330
X76200Y100330
X78740Y100330
X77470Y101600
X76645Y112966
X78740Y116840
X82804Y117348
X75819Y116713
X74803Y118237
X79730Y117501
X81661Y96393
X81915Y99314
X77597Y97790
X76962Y92964
X79756Y102870
X78032Y102743
X73406Y104140
X75291Y99341
X82550Y106680
X78420Y110556
X79502Y97790
X79629Y93345
X82169Y112268
X78994Y97790
X78486Y97790
X83058Y100203
X75057Y98933
X75057Y98479
X75057Y100203
X75057Y99749
X82550Y98947
X80645Y96901
X80645Y92583
X80032Y97790
X80137Y91948
X76305Y102987
X76200Y107569
X79502Y107569
X76200Y102456
X75819Y106299
X79502Y106299
X76835Y102870
X76581Y108839
X79502Y108839
X76962Y97663
X73152Y97663
X78940Y102743
X82550Y112776
X78486Y102743
X81280Y112903
X77597Y98298
X77470Y102743
X75184Y102870
X75438Y108839
X75565Y102489
X75438Y107569
X80645Y114808
X76835Y116840
X81915Y114808
X78232Y116840
X71501Y90932
X72771Y107061
X82780Y100800
X83580Y117400
X85725Y119761
X100330Y113411
X95631Y104775
X97155Y105029
X100838Y105791
X102870Y105664
X105410Y105918
X104775Y108585
X104775Y111379
X104013Y112141
X103886Y117475
X96774Y117602
X95250Y120015
X98425Y118491
X105410Y119888
X97536Y106934
X99314Y98044
X101854Y96139
X98806Y96139
X98806Y92964
X96012Y92710
X96012Y90170
X106299Y92710
X105410Y90170
X105156Y94742
X94742Y100584
X99060Y99060
X99060Y101600
X101600Y101600
X100330Y99060
X100330Y100330
X99060Y100330
X101600Y100330
X100330Y101600
X99504Y112966
X101600Y116840
X105664Y117348
X98679Y116713
X97663Y118237
X102590Y117501
X104521Y96393
X104775Y99314
X100457Y97790
X99822Y92964
X102616Y102870
X100892Y102743
X96266Y104140
X98151Y99341
X105410Y106680
X101280Y110556
X102362Y97790
X102489Y93345
X105029Y112268
X101854Y97790
X101346Y97790
X105918Y100203
X97917Y98933
X97917Y98479
X97917Y100203
X97917Y99749
X105410Y98947
X103505Y96901
X103505Y92583
X102892Y97790
X102997Y91948
X99165Y102987
X99060Y107569
X102362Y107569
X99060Y102456
X98679Y106299
X102362Y106299
X99695Y102870
X99441Y108839
X102362Y108839
X99822Y97663
X96012Y97663
X101800Y102743
X105410Y112776
X101346Y102743
X104140Y112903
X100457Y98298
X100330Y102743
X98044Y102870
X98298Y108839
X98425Y102489
X98298Y107569
X103505Y114808
X99695Y116840
X104775Y114808
X101092Y116840
X94361Y90932
X95631Y107061
X105640Y100800
X106440Y117400
X108585Y119761
X8890Y24511
X4191Y15875
X5715Y16129
X9398Y16891
X11430Y16764
X13970Y17018
X13335Y19685
X13335Y22479
X12573Y23241
X12446Y28575
X5334Y28702
X3810Y31115
X6985Y29591
X13970Y30988
X6096Y18034
X7874Y9144
X10414Y7239
X7366Y7239
X7366Y4064
X4572Y3810
X4572Y1270
X14859Y3810
X13970Y1270
X13716Y5842
X3302Y11684
X7620Y10160
X7620Y12700
X10160Y12700
X8890Y10160
X8890Y11430
X7620Y11430
X10160Y11430
X8890Y12700
X8064Y24066
X10160Y27940
X14224Y28448
X7239Y27813
X6223Y29337
X11150Y28601
X13081Y7493
X13335Y10414
X9017Y8890
X8382Y4064
X11176Y13970
X9452Y13843
X4826Y15240
X6711Y10441
X13970Y17780
X9840Y21656
X10922Y8890
X11049Y4445
X13589Y23368
X10414Y8890
X9906Y8890
X14478Y11303
X6477Y10033
X6477Y9579
X6477Y11303
X6477Y10849
X13970Y10048
X12065Y8001
X12065Y3683
X11452Y8890
X11557Y3048
X7725Y14087
X7620Y18669
X10922Y18669
X7620Y13556
X7239Y17399
X10922Y17399
X8255Y13970
X8001Y19939
X10922Y19939
X8382Y8763
X4572Y8763
X10360Y13843
X13970Y23876
X9906Y13843
X12700Y24003
X9017Y9398
X8890Y13843
X6604Y13970
X6858Y19939
X6985Y13589
X6858Y18669
X12065Y25908
X8255Y27940
X13335Y25908
X9652Y27940
X2921Y2032
X4191Y18161
X14200Y11900
X15000Y28500
X17145Y30861
X31750Y24511
X27051Y15875
X28575Y16129
X32258Y16891
X34290Y16764
X36830Y17018
X36195Y19685
X36195Y22479
X35433Y23241
X35306Y28575
X28194Y28702
X26670Y31115
X29845Y29591
X36830Y30988
X28956Y18034
X30734Y9144
X33274Y7239
X30226Y7239
X30226Y4064
X27432Y3810
X27432Y1270
X37719Y3810
X36830Y1270
X36576Y5842
X26162Y11684
X30480Y10160
X30480Y12700
X33020Y12700
X31750Y10160
X31750Y11430
X30480Y11430
X33020Y11430
X31750Y12700
X30924Y24066
X33020Y27940
X37084Y28448
X30099Y27813
X29083Y29337
X34010Y28601
X35941Y7493
X36195Y10414
X31877Y8890
X31242Y4064
X34036Y13970
X32312Y13843
X27686Y15240
X29571Y10441
X36830Y17780
X32700Y21656
X33782Y8890
X33909Y4445
X36449Y23368
X33274Y8890
X32766Y8890
X37338Y11303
X29337Y10033
X29337Y9579
X29337Y11303
X29337Y10849
X36830Y10048
X34925Y8001
X34925Y3683
X34312Y8890
X34417Y3048
X30585Y14087
X30480Y18669
X33782Y18669
X30480Y13556
X30099Y17399
X33782Y17399
X31115Y13970
X30861Y19939
X33782Y19939
X31242Y8763
X27432Y8763
X33220Y13843
X36830Y23876
X32766Y13843
X35560Y24003
X31877Y9398
X31750Y13843
X29464Y13970
X29718Y19939
X29845Y13589
X29718Y18669
X34925Y25908
X31115Y27940
X36195Y25908
X32512Y27940
X25781Y2032
X27051Y18161
X37060Y11900
X37860Y28500
X40005Y30861
X54610Y24511
X49911Y15875
X51435Y16129
X55118Y16891
X57150Y16764
X59690Y17018
X59055Y19685
X59055Y22479
X58293Y23241
X58166Y28575
X51054Y28702
X49530Y31115
X52705Y29591
X59690Y30988
X51816Y18034
X53594Y9144
X56134Y7239
X53086Y7239
X53086Y4064
X50292Y3810
X50292Y1270
X60579Y3810
X59690Y1270
X59436Y5842
X49022Y11684
X53340Y10160
X53340Y12700
X55880Y12700
X54610Y10160
X54610Y11430
X53340Y11430
X55880Y11430
X54610Y12700
X53784Y24066
X55880Y27940
X59944Y28448
X52959Y27813
X51943Y29337
X56870Y28601
X58801Y7493
X59055Y10414
X54737Y8890
X54102Y4064
X56896Y13970
X55172Y13843
X50546Y15240
X52431Y10441
X59690Y17780
X55560Y21656
X56642Y8890
X56769Y4445
X59309Y23368
X56134Y8890
X55626Y8890
X60198Y11303
X52197Y10033
X52197Y9579
X52197Y11303
X52197Y10849
X59690Y10048
X57785Y8001
X57785Y3683
X57172Y8890
X57277Y3048
X53445Y14087
X53340Y18669
X56642Y18669
X53340Y13556
X52959Y17399
X56642Y17399
X53975Y13970
X53721Y19939
X56642Y19939
X54102Y8763
X50292Y8763
X56080Y13843
X59690Y23876
X55626Y13843
X58420Y24003
X54737Y9398
X54610Y13843
X52324Y13970
X52578Y19939
X52705Y13589
X52578Y18669
X57785Y25908
X53975Y27940
X59055Y25908
X55372Y27940
X49911Y18161
X59920Y11900
X60720Y28500
X62865Y30861
X77470Y24511
X72771Y15875
X74295Y16129
X77978Y16891
X80010Y16764
X82550Y17018
X81915Y19685
X81915Y22479
X81153Y23241
X81026Y28575
X73914Y28702
X72390Y31115
X75565Y29591
X82550Y30988
X74676Y18034
X76454Y9144
X78994Y7239
X75946Y7239
X75946Y4064
X73152Y3810
X73152Y1270
X83439Y3810
X82550Y1270
X82296Y5842
X71882Y11684
X76200Y10160
X76200Y12700
X78740Y12700
X77470Y10160
X77470Y11430
X76200Y11430
X78740Y11430
X77470Y12700
X76645Y24066
X78740Y27940
X82804Y28448
X75819Y27813
X74803Y29337
X79730Y28601
X81661Y7493
X81915Y10414
X77597Y8890
X76962Y4064
X79756Y13970
X78032Y13843
X73406Y15240
X75291Y10441
X82550Y17780
X78420Y21656
X79502Y8890
X79629Y4445
X82169Y23368
X78994Y8890
X78486Y8890
X83058Y11303
X75057Y10033
X75057Y9579
X75057Y11303
X75057Y10849
X82550Y10048
X80645Y8001
X80645Y3683
X80032Y8890
X80137Y3048
X76305Y14087
X76200Y18669
X79502Y18669
X76200Y13556
X75819Y17399
X79502Y17399
X76835Y13970
X76581Y19939
X79502Y19939
X76962Y8763
X73152Y8763
X78940Y13843
X82550Y23876
X78486Y13843
X81280Y24003
X77597Y9398
X77470Y13843
X75184Y13970
X75438Y19939
X75565Y13589
X75438Y18669
X80645Y25908
X76835Y27940
X81915Y25908
X78232Y27940
X71501Y2032
X72771Y18161
X82780Y11900
X83580Y28500
X85725Y30861
X100330Y24511
X95631Y15875
X97155Y16129
X100838Y16891
X102870Y16764
X105410Y17018
X104775Y19685
X104775Y22479
X104013Y23241
X103886Y28575
X96774Y28702
X95250Y31115
X98425Y29591
X105410Y30988
X97536Y18034
X99314Y9144
X101854Y7239
X98806Y7239
X98806Y4064
X96012Y3810
X96012Y1270
X106299Y3810
X105410Y1270
X105156Y5842
X94742Y11684
X99060Y10160
X99060Y12700
X101600Y12700
X100330Y10160
X100330Y11430
X99060Y11430
X101600Y11430
X100330Y12700
X99504Y24066
X101600Y27940
X105664Y28448
X98679Y27813
X97663Y29337
X102590Y28601
X104521Y7493
X104775Y10414
X100457Y8890
X99822Y4064
X102616Y13970
X100892Y13843
X96266Y15240
X98151Y10441
X105410Y17780
X101280Y21656
X102362Y8890
X102489Y4445
X105029Y23368
X101854Y8890
X101346Y8890
X105918Y11303
X97917Y10033
X97917Y9579
X97917Y11303
X97917Y10849
X105410Y10048
X103505Y8001
X103505Y3683
X102892Y8890
X102997Y3048
X99165Y14087
X99060Y18669
X102362Y18669
X99060Y13556
X98679Y17399
X102362Y17399
X99695Y13970
X99441Y19939
X102362Y19939
X99822Y8763
X96012Y8763
X101800Y13843
X105410Y23876
X101346Y13843
X104140Y24003
X100457Y9398
X100330Y13843
X98044Y13970
X98298Y19939
X98425Y13589
X98298Y18669
X103505Y25908
X99695Y27940
X104775Y25908
X101092Y27940
X94361Y2032
X95631Y18161
X105640Y11900
X106440Y28500
X108585Y30861
X8890Y68961
X4191Y60325
X5715Y60579
X9398Y61341
X11430Y61214
X13970Y61468
X13335Y64135
X13335Y66929
X12573Y67691
X12446Y73025
X5334Y73152
X3810Y75565
X6985Y74041
X13970Y75438
X6096Y62484
X7874Y53594
X10414Y51689
X7366Y51689
X7366Y48514
X4572Y48260
X4572Y45720
X14859Y48260
X13970Y45720
X13716Y50292
X3302Y56134
X7620Y54610
X7620Y57150
X10160Y57150
X8890Y54610
X8890Y55880
X7620Y55880
X10160Y55880
X8890Y57150
X8064Y68517
X10160Y72390
X14224Y72898
X7239Y72263
X6223Y73787
X11150Y73051
X13081Y51943
X13335Y54864
X9017Y53340
X8382Y48514
X11176Y58420
X9452Y58293
X4826Y59690
X6711Y54891
X13970Y62230
X9840Y66106
X10922Y53340
X11049Y48895
X13589Y67818
X10414Y53340
X9906Y53340
X14478Y55753
X6477Y54483
X6477Y54029
X6477Y55753
X6477Y55299
X13970Y54497
X12065Y52451
X12065Y48133
X11452Y53340
X36830Y112776
X11557Y47498
X7725Y58537
X7620Y63119
X10922Y63119
X7620Y58006
X7239Y61849
X10922Y61849
X8255Y58420
X8001Y64389
X10922Y64389
X8382Y53213
X4572Y53213
X10360Y58293
X13970Y68326
X9906Y58293
X12700Y68453
X9017Y53848
X8890Y58293
X6604Y58420
X6858Y64389
X6985Y58039
X6858Y63119
X12065Y70358
X8255Y72390
X13335Y70358
X9652Y72390
X2921Y46482
X4191Y62611
X14200Y56350
X15000Y72950
X17145Y75311
X31750Y68961
X27051Y60325
X28575Y60579
X32258Y61341
X34290Y61214
X36830Y61468
X36195Y64135
X36195Y66929
X35433Y67691
X35306Y73025
X28194Y73152
X26670Y75565
X29845Y74041
X36830Y75438
X28956Y62484
X30734Y53594
X33274Y51689
X30226Y51689
X30226Y48514
X27432Y48260
X27432Y45720
X37719Y48260
X36830Y45720
X36576Y50292
X26162Y56134
X30480Y54610
X30480Y57150
X33020Y57150
X31750Y54610
X31750Y55880
X30480Y55880
X33020Y55880
X31750Y57150
X30924Y68517
X33020Y72390
X37084Y72898
X30099Y72263
X29083Y73787
X34010Y73051
X35941Y51943
X36195Y54864
X31877Y53340
X31242Y48514
X34036Y58420
X32312Y58293
X27686Y59690
X29571Y54891
X36830Y62230
X32700Y66106
X33782Y53340
X33909Y48895
X36449Y67818
X33274Y53340
X32766Y53340
X37338Y55753
X29337Y54483
X29337Y54029
X29337Y55753
X29337Y55299
X36830Y54497
X34925Y52451
X34925Y48133
X34312Y53340
X34417Y47498
X30585Y58537
X30480Y63119
X33782Y63119
X30480Y58006
X30099Y61849
X33782Y61849
X31115Y58420
X30861Y64389
X33782Y64389
X31242Y53213
X27432Y53213
X33220Y58293
X36830Y68326
X32766Y58293
X35560Y68453
X31877Y53848
X31750Y58293
X29464Y58420
X29718Y64389
X29845Y58039
X29718Y63119
X34925Y70358
X31115Y72390
X36195Y70358
X32512Y72390
X25781Y46482
X27051Y62611
X37060Y56350
X37860Y72950
X40005Y75311
X54610Y68961
X49911Y60325
X51435Y60579
X55118Y61341
X57150Y61214
X59690Y61468
X59055Y64135
X59055Y66929
X58293Y67691
X58166Y73025
X51054Y73152
X49530Y75565
X52705Y74041
X59690Y75438
X51816Y62484
X53594Y53594
X56134Y51689
X53086Y51689
X53086Y48514
X50292Y48260
X50292Y45720
X60579Y48260
X59690Y45720
X59436Y50292
X49022Y56134
X53340Y54610
X53340Y57150
X55880Y57150
X54610Y54610
X54610Y55880
X53340Y55880
X55880Y55880
X54610Y57150
X53784Y68517
X55880Y72390
X59944Y72898
X52959Y72263
X51943Y73787
X56870Y73051
X58801Y51943
X59055Y54864
X54737Y53340
X54102Y48514
X56896Y58420
X55172Y58293
X50546Y59690
X52431Y54891
X59690Y62230
X55560Y66106
X56642Y53340
X56769Y48895
X59309Y67818
X56134Y53340
X55626Y53340
X60198Y55753
X52197Y54483
X52197Y54029
X52197Y55753
X52197Y55299
X59690Y54497
X57785Y52451
X57785Y48133
X57172Y53340
X57277Y47498
X53445Y58537
X53340Y63119
X56642Y63119
X53340Y58006
X52959Y61849
X56642Y61849
X53975Y58420
X53721Y64389
X56642Y64389
X54102Y53213
X50292Y53213
X56080Y58293
X59690Y68326
X55626Y58293
X58420Y68453
X54737Y53848
X54610Y58293
X52324Y58420
X52578Y64389
X52705Y58039
X52578Y63119
X57785Y70358
X53975Y72390
X59055Y70358
X55372Y72390
X48641Y46482
X49911Y62611
X59920Y56350
X60720Y72950
X62865Y75311
X77470Y68961
X72771Y60325
X74295Y60579
X77978Y61341
X80010Y61214
X82550Y61468
X81915Y64135
X81915Y66929
X81153Y67691
X81026Y73025
X73914Y73152
X72390Y75565
X75565Y74041
X82550Y75438
X74676Y62484
X76454Y53594
X78994Y51689
X75946Y51689
X75946Y48514
X73152Y48260
X73152Y45720
X83439Y48260
X82550Y45720
X82296Y50292
X71882Y56134
X76200Y54610
X76200Y57150
X78740Y57150
X77470Y54610
X77470Y55880
X76200Y55880
X78740Y55880
X77470Y57150
X76645Y68517
X78740Y72390
X82804Y72898
X75819Y72263
X74803Y73787
X79730Y73051
X81661Y51943
X81915Y54864
X77597Y53340
X76962Y48514
X79756Y58420
X78032Y58293
X73406Y59690
X75291Y54891
X82550Y62230
X78420Y66106
X79502Y53340
X79629Y48895
X82169Y67818
X78994Y53340
X78486Y53340
X83058Y55753
X75057Y54483
X75057Y54029
X75057Y55753
M30